<svg width="536" height="536" viewBox="0 0 536 536" fill="none" xmlns="http://www.w3.org/2000/svg">
<path d="M139.306 36.5338H36.3408V128.651H139.306V36.5338Z" fill="#FAFAFA"/>
<path d="M139.36 128.64C139.36 128.64 139.36 128.05 139.36 126.925C139.36 125.799 139.36 124.148 139.36 121.994C139.36 117.706 139.36 111.349 139.296 103.298C139.296 87.2179 139.232 64.2021 139.178 36.5123L139.414 36.7482H36.5021L36.7701 36.4694C36.7701 69.9909 36.7701 101.529 36.7701 128.597L36.5343 128.351L111.006 128.479L131.856 128.64H137.42H138.857H137.431H131.921L110.963 128.704L36.3413 128.822H36.0947V128.64C36.0947 101.572 36.0947 70.0338 36.0947 36.5123V36.2443H36.3842H139.296H139.532V36.4694C139.532 64.2128 139.436 87.2715 139.414 103.394C139.414 111.424 139.36 117.727 139.35 122.047C139.35 124.191 139.35 125.821 139.35 126.936C139.35 128.05 139.36 128.64 139.36 128.64Z" fill="#E0E0E0"/>
<path d="M75.822 52.9032C75.822 53.064 70.3976 53.1819 63.7191 53.1819C57.0405 53.1819 51.6055 53.064 51.6055 52.9032C51.6055 52.7424 57.0298 52.6352 63.7191 52.6352C70.4083 52.6352 75.822 52.7531 75.822 52.9032Z" fill="#E0E0E0"/>
<path d="M119.453 59.8283C119.453 59.9784 104.563 60.0963 86.2213 60.0963C67.8793 60.0963 52.9893 59.9784 52.9893 59.8283C52.9893 59.6783 67.8686 59.5496 86.2213 59.5496C104.574 59.5496 119.453 59.6675 119.453 59.8283Z" fill="#E0E0E0"/>
<path d="M56.1297 71.5453H51.7881V75.8869H56.1297V71.5453Z" fill="#E0E0E0"/>
<path d="M66.8074 71.5453H62.4658V75.8869H66.8074V71.5453Z" fill="#E0E0E0"/>
<path d="M77.6873 71.3415H73.3457V75.6831H77.6873V71.3415Z" fill="#E0E0E0"/>
<path d="M88.1609 71.5453H83.8193V75.8869H88.1609V71.5453Z" fill="#E0E0E0"/>
<path d="M98.8377 71.5453H94.4961V75.8869H98.8377V71.5453Z" fill="#E0E0E0"/>
<path d="M109.523 71.5453H105.182V75.8869H109.523V71.5453Z" fill="#E0E0E0"/>
<path d="M120.202 71.5453H115.86V75.8869H120.202V71.5453Z" fill="#EBEBEB"/>
<path d="M56.1297 80.7644H51.7881V85.106H56.1297V80.7644Z" fill="#EBEBEB"/>
<path d="M66.8074 80.7644H62.4658V85.106H66.8074V80.7644Z" fill="#E0E0E0"/>
<path d="M77.4832 80.7644H73.1416V85.106H77.4832V80.7644Z" fill="#EBEBEB"/>
<path d="M88.1609 80.7644H83.8193V85.106H88.1609V80.7644Z" fill="#E0E0E0"/>
<path d="M98.8377 80.7644H94.4961V85.106H98.8377V80.7644Z" fill="#E0E0E0"/>
<path d="M109.718 80.5609H105.376V84.9024H109.718V80.5609Z" fill="#E0E0E0"/>
<path d="M120.202 80.7644H115.86V85.106H120.202V80.7644Z" fill="#E0E0E0"/>
<path d="M56.1297 89.9836H51.7881V94.3252H56.1297V89.9836Z" fill="#E0E0E0"/>
<path d="M67.0115 89.7908H62.6699V94.1324H67.0115V89.7908Z" fill="#E0E0E0"/>
<path d="M77.4832 89.9836H73.1416V94.3252H77.4832V89.9836Z" fill="#E0E0E0"/>
<path d="M88.1609 89.9836H83.8193V94.3252H88.1609V89.9836Z" fill="#EBEBEB"/>
<path d="M98.8377 89.9836H94.4961V94.3252H98.8377V89.9836Z" fill="#E0E0E0"/>
<path d="M109.523 89.9836H105.182V94.3252H109.523V89.9836Z" fill="#E0E0E0"/>
<path d="M120.202 89.9836H115.86V94.3252H120.202V89.9836Z" fill="#E0E0E0"/>
<path d="M56.1297 99.2029H51.7881V103.544H56.1297V99.2029Z" fill="#E0E0E0"/>
<path d="M66.8074 99.2029H62.4658V103.544H66.8074V99.2029Z" fill="#E0E0E0"/>
<path d="M77.4832 99.2029H73.1416V103.544H77.4832V99.2029Z" fill="#E0E0E0"/>
<path d="M88.366 99.0099H84.0244V103.352H88.366V99.0099Z" fill="#E0E0E0"/>
<path d="M98.8377 99.2029H94.4961V103.544H98.8377V99.2029Z" fill="#E0E0E0"/>
<path d="M109.523 99.2029H105.182V103.544H109.523V99.2029Z" fill="#EBEBEB"/>
<path d="M120.202 99.2029H115.86V103.544H120.202V99.2029Z" fill="#E0E0E0"/>
<path d="M56.1297 108.433H51.7881V112.774H56.1297V108.433Z" fill="#E0E0E0"/>
<path d="M66.8074 108.433H62.4658V112.774H66.8074V108.433Z" fill="#EBEBEB"/>
<path d="M77.4832 108.433H73.1416V112.774H77.4832V108.433Z" fill="#E0E0E0"/>
<path d="M88.1609 108.433H83.8193V112.774H88.1609V108.433Z" fill="#E0E0E0"/>
<path d="M98.8377 108.433H94.4961V112.774H98.8377V108.433Z" fill="#E0E0E0"/>
<path d="M109.718 108.229H105.376V112.571H109.718V108.229Z" fill="#E0E0E0"/>
<path d="M120.202 108.433H115.86V112.774H120.202V108.433Z" fill="#E0E0E0"/>
<path d="M504.376 38.4099H431.438V111.349H504.376V38.4099Z" fill="white"/>
<path d="M504.377 111.359C504.377 111.359 504.377 111.231 504.377 111.006C504.377 110.78 504.377 110.427 504.377 109.934C504.377 109.033 504.377 107.715 504.377 106.01C504.377 102.558 504.377 97.5413 504.313 91.1629C504.313 78.3954 504.238 60.1928 504.184 38.3562L504.431 38.6027H431.535L431.813 38.324C431.813 65.0383 431.813 90.0695 431.813 111.274L431.578 111.027L484.374 111.156L499.221 111.22H503.155H504.163H504.517H503.209H499.317L484.534 111.284L431.578 111.402H431.331V111.166C431.331 89.9622 431.331 64.9311 431.331 38.2704V37.9917H431.61H504.506H504.752V38.2275C504.699 60.1285 504.656 78.3847 504.624 91.1843C504.624 97.5413 504.624 102.548 504.559 105.978C504.559 107.672 504.559 108.969 504.559 109.859C504.559 110.287 504.559 110.609 504.559 110.845C504.559 111.081 504.377 111.359 504.377 111.359Z" fill="#E0E0E0"/>
<path d="M504.065 57.084C504.065 57.2341 487.803 57.3627 467.746 57.3627C447.689 57.3627 431.438 57.2341 431.438 57.084C431.438 56.9339 447.689 56.816 467.746 56.816C487.803 56.816 504.065 56.9339 504.065 57.084Z" fill="#E0E0E0"/>
<path d="M438.535 49.4407C439.677 49.4407 440.604 48.5144 440.604 47.3718C440.604 46.2291 439.677 45.3028 438.535 45.3028C437.392 45.3028 436.466 46.2291 436.466 47.3718C436.466 48.5144 437.392 49.4407 438.535 49.4407Z" fill="#E0E0E0"/>
<path d="M444.836 49.4407C445.978 49.4407 446.905 48.5144 446.905 47.3718C446.905 46.2291 445.978 45.3028 444.836 45.3028C443.693 45.3028 442.767 46.2291 442.767 47.3718C442.767 48.5144 443.693 49.4407 444.836 49.4407Z" fill="#E0E0E0"/>
<path d="M453.21 47.3717C453.21 47.7809 453.089 48.1809 452.862 48.5211C452.634 48.8614 452.311 49.1265 451.933 49.2831C451.555 49.4397 451.139 49.4807 450.738 49.4009C450.336 49.321 449.968 49.124 449.678 48.8346C449.389 48.5453 449.192 48.1766 449.112 47.7753C449.032 47.374 449.073 46.958 449.23 46.5799C449.386 46.2019 449.652 45.8787 449.992 45.6514C450.332 45.424 450.732 45.3027 451.141 45.3027C451.413 45.3013 451.683 45.3538 451.935 45.4573C452.186 45.5608 452.415 45.7131 452.607 45.9055C452.8 46.0979 452.952 46.3266 453.056 46.5782C453.159 46.8299 453.212 47.0996 453.21 47.3717Z" fill="#E0E0E0"/>
<path d="M446.208 78.5347C449.482 78.5347 452.137 75.8805 452.137 72.6065C452.137 69.3325 449.482 66.6783 446.208 66.6783C442.934 66.6783 440.28 69.3325 440.28 72.6065C440.28 75.8805 442.934 78.5347 446.208 78.5347Z" fill="#EBEBEB"/>
<path d="M452.137 94.3359C452.137 95.5084 451.789 96.6546 451.138 97.6294C450.486 98.6043 449.56 99.3642 448.477 99.8128C447.394 100.262 446.202 100.379 445.052 100.15C443.902 99.9214 442.846 99.3568 442.017 98.5278C441.188 97.6987 440.623 96.6424 440.394 95.4925C440.165 94.3425 440.283 93.1506 440.732 92.0673C441.18 90.9841 441.94 90.0582 442.915 89.4068C443.89 88.7555 445.036 88.4078 446.208 88.4078C447.781 88.4078 449.289 89.0323 450.4 90.1441C451.512 91.2558 452.137 92.7637 452.137 94.3359Z" fill="#EBEBEB"/>
<path d="M493.485 72.1242C493.485 72.2743 485.38 72.4029 475.379 72.4029C465.377 72.4029 457.272 72.2743 457.272 72.1242C457.272 71.9741 465.377 71.8455 475.379 71.8455C485.38 71.8455 493.485 71.9634 493.485 72.1242Z" fill="#E0E0E0"/>
<path d="M470.318 94.261C466.038 94.632 461.734 94.632 457.454 94.261C461.734 93.89 466.038 93.89 470.318 94.261Z" fill="#E0E0E0"/>
<path d="M493.485 122.444C506.184 122.444 516.479 112.149 516.479 99.4494C516.479 86.75 506.184 76.455 493.485 76.455C480.785 76.455 470.49 86.75 470.49 99.4494C470.49 112.149 480.785 122.444 493.485 122.444Z" fill="#E0E0E0"/>
<path d="M495.649 90.7233H493.505V107.79H495.649V90.7233Z" fill="white"/>
<path d="M503.109 98.1844H486.043V100.328H503.109V98.1844Z" fill="white"/>
<path d="M63.9894 292.731C75.6845 287.781 81.1527 274.287 76.2028 262.592C71.253 250.897 57.7596 245.429 46.0645 250.379C34.3694 255.329 28.9013 268.822 33.8511 280.517C38.801 292.212 52.2943 297.681 63.9894 292.731Z" fill="#E0E0E0"/>
<path d="M57.1899 262.833H55.0459V279.899H57.1899V262.833Z" fill="white"/>
<path d="M64.6522 270.294H47.5859V272.438H64.6522V270.294Z" fill="white"/>
<path d="M333.842 373.624H177.673V445.641H333.842V373.624Z" fill="#F5F5F5"/>
<path d="M330.174 442.254H181.241V377.408H330.174V442.254ZM182.238 441.278H329.102V378.416H182.238V441.278Z" fill="#E0E0E0"/>
<path d="M371.993 373.624H333.841V445.641H371.993V373.624Z" fill="#E0E0E0"/>
<path d="M181.735 397.476H329.671C329.722 397.476 329.771 397.456 329.807 397.42C329.844 397.384 329.864 397.334 329.864 397.283C329.864 397.232 329.844 397.183 329.807 397.147C329.771 397.111 329.722 397.09 329.671 397.09H181.735C181.684 397.09 181.635 397.111 181.599 397.147C181.562 397.183 181.542 397.232 181.542 397.283C181.542 397.334 181.562 397.384 181.599 397.42C181.635 397.456 181.684 397.476 181.735 397.476Z" fill="#E0E0E0"/>
<path d="M256.209 397.283C256.605 390.768 256.605 384.234 256.209 377.719C256.198 377.674 256.173 377.635 256.137 377.606C256.101 377.577 256.056 377.562 256.01 377.562C255.964 377.562 255.92 377.577 255.884 377.606C255.848 377.635 255.822 377.674 255.812 377.719C255.421 384.235 255.421 390.768 255.812 397.283C255.812 397.323 255.828 397.361 255.856 397.389C255.884 397.417 255.922 397.433 255.962 397.433C256.002 397.433 256.04 397.417 256.068 397.389C256.096 397.361 256.112 397.323 256.112 397.283H256.209Z" fill="#E0E0E0"/>
<path d="M295.979 387.496C295.979 387.894 295.861 388.284 295.639 388.616C295.418 388.947 295.103 389.205 294.735 389.358C294.367 389.51 293.961 389.55 293.57 389.472C293.179 389.395 292.82 389.203 292.539 388.921C292.257 388.639 292.065 388.28 291.987 387.889C291.909 387.498 291.949 387.093 292.102 386.725C292.254 386.356 292.513 386.042 292.844 385.82C293.175 385.599 293.565 385.48 293.964 385.48C294.498 385.48 295.011 385.693 295.389 386.071C295.767 386.449 295.979 386.961 295.979 387.496Z" fill="#E0E0E0"/>
<path d="M218.355 387.496C218.355 387.894 218.237 388.284 218.015 388.616C217.794 388.947 217.479 389.205 217.111 389.358C216.743 389.51 216.337 389.55 215.946 389.472C215.555 389.395 215.196 389.203 214.915 388.921C214.633 388.639 214.441 388.28 214.363 387.889C214.285 387.498 214.325 387.093 214.478 386.725C214.63 386.356 214.888 386.042 215.22 385.82C215.551 385.599 215.941 385.48 216.34 385.48C216.874 385.48 217.387 385.693 217.765 386.071C218.143 386.449 218.355 386.961 218.355 387.496Z" fill="#E0E0E0"/>
<path d="M257.699 409.836C257.699 410.235 257.58 410.625 257.359 410.956C257.138 411.287 256.823 411.546 256.455 411.698C256.086 411.851 255.681 411.891 255.29 411.813C254.899 411.735 254.54 411.543 254.258 411.261C253.976 410.98 253.784 410.62 253.707 410.229C253.629 409.839 253.669 409.433 253.821 409.065C253.974 408.697 254.232 408.382 254.564 408.161C254.895 407.939 255.285 407.821 255.683 407.821C256.218 407.821 256.73 408.033 257.108 408.411C257.486 408.789 257.699 409.302 257.699 409.836Z" fill="#E0E0E0"/>
<path d="M196.347 445.641L188.307 490.858H192.83L207.646 445.641H196.347Z" fill="#E0E0E0"/>
<path d="M322.787 445.641L329.509 490.933H324.985L311.478 445.641H322.787Z" fill="#E0E0E0"/>
<path d="M352.977 445.641L360.599 490.933H356.075L341.667 445.641H352.977Z" fill="#E0E0E0"/>
<path d="M257.558 430.215C257.558 430.614 257.44 431.004 257.218 431.336C256.996 431.667 256.68 431.926 256.311 432.078C255.943 432.23 255.537 432.269 255.146 432.191C254.754 432.112 254.395 431.919 254.114 431.636C253.832 431.353 253.641 430.993 253.565 430.602C253.488 430.21 253.53 429.804 253.684 429.436C253.838 429.068 254.098 428.754 254.431 428.534C254.764 428.314 255.154 428.198 255.553 428.2C256.086 428.203 256.596 428.416 256.972 428.794C257.347 429.171 257.558 429.682 257.558 430.215Z" fill="#E0E0E0"/>
<path d="M181.737 419.784H329.673C329.718 419.774 329.758 419.749 329.786 419.713C329.815 419.677 329.831 419.632 329.831 419.586C329.831 419.54 329.815 419.496 329.786 419.46C329.758 419.424 329.718 419.398 329.673 419.388H181.737C181.693 419.398 181.653 419.424 181.624 419.46C181.596 419.496 181.58 419.54 181.58 419.586C181.58 419.632 181.596 419.677 181.624 419.713C181.653 419.749 181.693 419.774 181.737 419.784Z" fill="#E0E0E0"/>
<path d="M494.654 491.062C494.654 491.212 389.812 491.34 260.508 491.34C131.203 491.34 26.3398 491.212 26.3398 491.062C26.3398 490.912 131.16 490.783 260.508 490.783C389.855 490.783 494.654 490.901 494.654 491.062Z" fill="#263238"/>
<path d="M414.168 73.6677H92.6855V356.912H414.168V73.6677Z" fill="white"/>
<path d="M414.168 246.12H92.6855V293.974H414.168V246.12Z" fill="white"/>
<path d="M414.168 191.373H92.6855V246.131H414.168V191.373Z" fill="#F5F5F5"/>
<path d="M414.168 301.8H92.6855V356.558H414.168V301.8Z" fill="#F5F5F5"/>
<path d="M286.792 208.418C286.792 208.579 248.875 208.708 202.104 208.708C155.333 208.708 117.416 208.579 117.416 208.418C117.416 208.257 155.322 208.14 202.104 208.14C248.886 208.14 286.792 208.268 286.792 208.418Z" fill="#263238"/>
<path d="M188.928 223.662C188.928 223.812 172.848 223.941 152.941 223.941C133.034 223.941 116.954 223.812 116.954 223.662C116.954 223.512 133.034 223.383 152.941 223.383C172.848 223.383 188.928 223.512 188.928 223.662Z" fill="#263238"/>
<path d="M286.792 262.436C286.792 262.586 248.875 262.715 202.104 262.715C155.333 262.715 117.416 262.586 117.416 262.436C117.416 262.286 155.322 262.157 202.104 262.157C248.886 262.157 286.792 262.275 286.792 262.436Z" fill="#263238"/>
<path d="M188.928 277.648C188.928 277.809 172.848 277.927 152.941 277.927C133.034 277.927 116.954 277.809 116.954 277.648C116.954 277.487 133.034 277.369 152.941 277.369C172.848 277.369 188.928 277.519 188.928 277.648Z" fill="#263238"/>
<path d="M286.792 316.444C286.792 316.594 248.875 316.722 202.104 316.722C155.333 316.722 117.416 316.594 117.416 316.444C117.416 316.294 155.322 316.165 202.104 316.165C248.886 316.165 286.792 316.24 286.792 316.444Z" fill="#263238"/>
<path d="M188.928 331.677C188.928 331.838 172.848 331.955 152.941 331.955C133.034 331.955 116.954 331.838 116.954 331.677C116.954 331.516 133.034 331.398 152.941 331.398C172.848 331.398 188.928 331.527 188.928 331.677Z" fill="#263238"/>
<path d="M414.168 73.314H92.6855V100.339H414.168V73.314Z" fill="#E0E0E0"/>
<path d="M414.168 97.777H92.6855V124.802H414.168V97.777Z" fill="#F5F5F5"/>
<path d="M112.034 85.9742C112.027 86.6454 111.822 87.2996 111.445 87.8545C111.067 88.4093 110.533 88.8398 109.911 89.0918C109.289 89.3437 108.606 89.4058 107.949 89.2702C107.292 89.1346 106.689 88.8074 106.218 88.3298C105.746 87.8522 105.426 87.2457 105.299 86.5867C105.172 85.9277 105.242 85.2458 105.502 84.6269C105.762 84.008 106.199 83.4799 106.759 83.1092C107.318 82.7385 107.975 82.5418 108.646 82.5438C109.095 82.5438 109.539 82.6328 109.952 82.8057C110.366 82.9787 110.742 83.232 111.057 83.5511C111.372 83.8702 111.62 84.2488 111.788 84.6647C111.956 85.0807 112.039 85.5258 112.034 85.9742Z" fill="#263238"/>
<path d="M124.491 85.9743C124.484 86.6468 124.278 87.3023 123.899 87.8578C123.52 88.4132 122.985 88.8437 122.361 89.0947C121.737 89.3456 121.052 89.4058 120.394 89.2676C119.736 89.1293 119.134 88.7989 118.663 88.3181C118.193 87.8373 117.876 87.2278 117.752 86.5667C117.629 85.9056 117.704 85.2227 117.969 84.6044C118.233 83.9862 118.675 83.4603 119.239 83.0935C119.803 82.7267 120.463 82.5355 121.135 82.5439C122.035 82.5552 122.893 82.9227 123.522 83.5657C124.151 84.2087 124.499 85.0749 124.491 85.9743Z" fill="#263238"/>
<path d="M136.937 85.9742C136.931 86.6449 136.726 87.2988 136.349 87.8533C135.971 88.4079 135.439 88.8385 134.817 89.0908C134.196 89.343 133.513 89.4058 132.856 89.271C132.199 89.1363 131.597 88.8101 131.125 88.3336C130.653 87.8571 130.332 87.2516 130.204 86.5933C130.075 85.935 130.144 85.2534 130.402 84.6343C130.66 84.0152 131.096 83.4864 131.654 83.1144C132.212 82.7424 132.868 82.5439 133.539 82.5438C133.988 82.5438 134.432 82.6328 134.847 82.8055C135.261 82.9783 135.637 83.2315 135.953 83.5505C136.269 83.8695 136.519 84.2479 136.688 84.6639C136.856 85.0799 136.941 85.5253 136.937 85.9742Z" fill="#263238"/>
<path d="M414.232 356.976C414.232 355.175 414.168 246.56 414.071 73.3676L414.232 73.582L92.9108 73.6463L93.1037 73.3676C93.1037 174.039 93.1037 269.919 93.1037 356.976L92.9215 356.719L414.264 356.976L92.9215 357.233H92.7285V356.976C92.7285 269.919 92.7285 174.039 92.7285 73.3676V73.0889H92.9536L414.275 73.1425H414.436V73.3676C414.286 246.56 414.232 355.121 414.232 356.976Z" fill="#263238"/>
<path d="M372.564 140.732H296.474C293.057 140.732 290.288 143.501 290.288 146.918V164.466C290.288 167.882 293.057 170.652 296.474 170.652H372.564C375.98 170.652 378.75 167.882 378.75 164.466V146.918C378.75 143.501 375.98 140.732 372.564 140.732Z" fill="#3A89FD"/>
<path d="M310.881 155.526H308.962V157.423H308.072V155.526H306.143V154.69H308.072V152.781H308.962V154.69H310.881V155.526Z" fill="white"/>
<path d="M320.325 156.951H316.38L315.565 158.806H314.493L317.849 151.398H318.921L322.287 158.806H321.215L320.325 156.951ZM319.95 156.104L318.385 152.47L316.787 156.104H319.95Z" fill="white"/>
<path d="M328.439 150.948V158.806H327.464V157.916C327.234 158.226 326.933 158.475 326.585 158.641C326.238 158.808 325.855 158.886 325.47 158.87C324.711 158.87 323.983 158.569 323.446 158.032C322.909 157.495 322.607 156.767 322.607 156.008C322.607 155.249 322.909 154.521 323.446 153.984C323.983 153.447 324.711 153.146 325.47 153.146C325.843 153.13 326.215 153.203 326.554 153.36C326.894 153.516 327.191 153.752 327.421 154.046V150.948H328.439ZM327.431 155.997C327.413 155.628 327.286 155.273 327.067 154.976C326.848 154.678 326.546 154.451 326.2 154.324C325.853 154.196 325.477 154.173 325.117 154.257C324.757 154.341 324.43 154.529 324.177 154.797C323.923 155.066 323.753 155.403 323.689 155.766C323.625 156.13 323.669 156.505 323.816 156.844C323.963 157.183 324.206 157.471 324.515 157.673C324.824 157.875 325.186 157.982 325.555 157.981C325.812 157.986 326.068 157.937 326.305 157.838C326.542 157.739 326.756 157.591 326.932 157.404C327.109 157.217 327.245 156.996 327.331 156.754C327.417 156.511 327.451 156.254 327.431 155.997Z" fill="white"/>
<path d="M335.665 150.948V158.806H334.689V157.916C334.457 158.226 334.153 158.474 333.804 158.64C333.455 158.806 333.071 158.885 332.684 158.87C331.925 158.87 331.197 158.569 330.661 158.032C330.124 157.495 329.822 156.767 329.822 156.008C329.822 155.249 330.124 154.521 330.661 153.984C331.197 153.447 331.925 153.146 332.684 153.146C333.059 153.131 333.432 153.204 333.773 153.361C334.114 153.517 334.413 153.752 334.646 154.046V150.948H335.665ZM334.657 155.997C334.677 155.737 334.642 155.475 334.556 155.229C334.47 154.982 334.334 154.756 334.156 154.565C333.978 154.373 333.763 154.22 333.524 154.116C333.284 154.011 333.026 153.957 332.765 153.957C332.504 153.957 332.245 154.011 332.006 154.116C331.767 154.22 331.551 154.373 331.374 154.565C331.196 154.756 331.06 154.982 330.974 155.229C330.888 155.475 330.853 155.737 330.873 155.997C330.853 156.258 330.888 156.52 330.974 156.766C331.06 157.013 331.196 157.239 331.374 157.43C331.551 157.622 331.767 157.774 332.006 157.879C332.245 157.983 332.504 158.037 332.765 158.037C333.026 158.037 333.284 157.983 333.524 157.879C333.763 157.774 333.978 157.622 334.156 157.43C334.334 157.239 334.47 157.013 334.556 156.766C334.642 156.52 334.677 156.258 334.657 155.997Z" fill="white"/>
<path d="M342.064 152.32H339.523V151.398H345.645V152.32H343.104V158.752H342.032L342.064 152.32Z" fill="white"/>
<path d="M350.801 155.44V158.827H349.847V158.088C349.629 158.362 349.347 158.579 349.026 158.719C348.704 158.859 348.353 158.919 348.004 158.892C346.728 158.892 345.924 158.216 345.924 157.241C345.924 156.265 346.503 155.601 348.186 155.601H349.794V155.397C349.794 154.539 349.29 154.046 348.282 154.046C347.638 154.038 347.01 154.25 346.503 154.647L346.085 153.885C346.753 153.392 347.569 153.139 348.4 153.167C349.933 153.146 350.801 153.885 350.801 155.44ZM349.794 157.112V156.33H348.218C347.221 156.33 346.932 156.716 346.932 157.198C346.932 157.68 347.403 158.109 348.175 158.109C348.518 158.132 348.859 158.045 349.15 157.862C349.44 157.679 349.666 157.409 349.794 157.091V157.112Z" fill="white"/>
<path d="M351.98 158.216L352.409 157.412C352.994 157.79 353.675 157.991 354.371 157.991C355.314 157.991 355.711 157.702 355.711 157.23C355.711 155.965 352.163 157.059 352.163 154.829C352.163 153.821 353.063 153.146 354.5 153.146C355.215 153.131 355.921 153.305 356.547 153.65L356.108 154.454C355.624 154.15 355.06 153.997 354.489 154.014C353.599 154.014 353.17 154.336 353.17 154.786C353.17 156.104 356.729 155.022 356.729 157.209C356.729 158.227 355.797 158.87 354.296 158.87C353.476 158.887 352.67 158.659 351.98 158.216Z" fill="white"/>
<path d="M360.193 156.19L359.024 157.262V158.795H358.049V150.937H359.067V155.976L362.122 153.189H363.355L360.997 155.504L363.591 158.795H362.337L360.193 156.19Z" fill="white"/>
<path d="M128.169 153.156H124.953V151.27H133.679V153.156H130.463V161.282H128.148L128.169 153.156Z" fill="#263238"/>
<path d="M141.023 159.138H136.37L135.491 161.282H133.111L137.571 151.27H139.865L144.335 161.282H141.912L141.023 159.138ZM140.294 157.38L138.707 153.542L137.121 157.38H140.294Z" fill="#263238"/>
<path d="M144.592 160.296L145.385 158.549C146.353 159.229 147.504 159.603 148.687 159.621C150.059 159.621 150.616 159.16 150.616 158.549C150.616 156.683 144.795 157.97 144.795 154.261C144.795 152.556 146.168 151.141 149.008 151.141C150.226 151.114 151.427 151.422 152.482 152.031L151.774 153.789C150.931 153.294 149.975 153.025 148.998 153.007C147.626 153.007 147.1 153.521 147.1 154.143C147.1 155.987 152.911 154.722 152.911 158.431C152.911 160.103 151.528 161.54 148.623 161.54C147.184 161.541 145.779 161.107 144.592 160.296Z" fill="#263238"/>
<path d="M158.142 157.348L156.802 158.752V161.282H154.497V151.27H156.802V155.944L161.24 151.27H163.813L159.664 155.729L164.049 161.282H161.347L158.142 157.348Z" fill="#263238"/>
<path d="M164.08 160.296L164.863 158.549C165.832 159.227 166.981 159.601 168.164 159.621C169.537 159.621 170.094 159.16 170.094 158.549C170.094 156.683 164.284 157.97 164.284 154.261C164.284 152.556 165.656 151.141 168.497 151.141C169.714 151.117 170.915 151.424 171.97 152.031L171.252 153.789C170.413 153.295 169.46 153.025 168.486 153.006C167.114 153.006 166.578 153.521 166.578 154.143C166.578 155.987 172.399 154.722 172.399 158.431C172.399 160.103 171.016 161.54 168.111 161.54C166.672 161.542 165.267 161.108 164.08 160.296Z" fill="#263238"/>
<path d="M385.932 212.352H338.968C333.728 212.352 329.48 216.6 329.48 221.84V221.85C329.48 227.09 333.728 231.337 338.968 231.337H385.932C391.172 231.337 395.419 227.09 395.419 221.85V221.84C395.419 216.6 391.172 212.352 385.932 212.352Z" fill="#E0E0E0"/>
<path d="M385.921 286.149H338.968C337.722 286.149 336.488 285.903 335.337 285.427C334.186 284.95 333.14 284.251 332.259 283.37C331.378 282.489 330.679 281.443 330.203 280.292C329.726 279.141 329.48 277.908 329.48 276.662C329.48 274.145 330.48 271.732 332.259 269.953C334.038 268.174 336.452 267.174 338.968 267.174H385.921C387.167 267.174 388.401 267.42 389.552 267.897C390.703 268.373 391.749 269.072 392.63 269.953C393.511 270.834 394.21 271.88 394.686 273.031C395.163 274.182 395.408 275.416 395.408 276.662C395.408 277.908 395.163 279.141 394.686 280.292C394.21 281.443 393.511 282.489 392.63 283.37C391.749 284.251 390.703 284.95 389.552 285.427C388.401 285.903 387.167 286.149 385.921 286.149Z" fill="#EBEBEB"/>
<path d="M385.932 320.871H338.968C333.728 320.871 329.48 325.118 329.48 330.358V330.369C329.48 335.608 333.728 339.856 338.968 339.856H385.932C391.172 339.856 395.419 335.608 395.419 330.369V330.358C395.419 325.118 391.172 320.871 385.932 320.871Z" fill="#E0E0E0"/>
<path d="M84.6858 412.892C76.1098 415.904 64.8109 413.213 57.4355 407.821C50.0602 402.429 44.7538 394.721 40.0584 386.896C38.043 383.551 36.092 380.078 35.4488 376.176C34.8056 372.273 35.749 368.007 38.7291 365.456C43.3709 361.553 50.5211 363.526 55.731 366.528C63.9437 371.317 70.8693 378.03 75.9114 386.09C80.9535 394.15 83.961 403.315 84.675 412.795" fill="#3A89FD"/>
<path d="M75.4142 433.527C70.2364 440.356 61.3388 443.401 52.7842 443.797C44.2297 444.194 35.7609 441.825 27.753 438.748C24.8479 437.676 21.6748 436.111 20.6778 433.163C20.3636 432.024 20.3383 430.825 20.6041 429.674C20.8699 428.523 21.4184 427.456 22.2001 426.57C23.7844 424.816 25.7657 423.467 27.9782 422.636C35.8466 419.281 44.8729 419.12 53.1594 421.275C61.446 423.429 68.6927 428.221 75.4142 433.527Z" fill="#3A89FD"/>
<path d="M84.7955 375.95C77.6667 376.1 72.2638 369.851 69.0264 363.483C64.5307 354.587 63.0268 344.477 64.7384 334.657C65.3923 331.001 66.7645 327.078 70.0341 325.32C73.3037 323.562 77.6667 324.709 80.4432 327.249C83.2197 329.79 84.7312 333.413 85.8032 337.005C89.6409 349.408 88.8155 363.655 84.7312 375.95" fill="#3A89FD"/>
<path d="M108.271 415.432C96.1038 394.721 94.0777 369.336 101.26 346.46C102.429 342.75 104.626 338.495 108.518 338.248C112.806 337.969 115.528 342.772 116.718 346.921C120.888 361.478 119.999 376.937 119.077 392.041C118.509 401.357 115.314 409.311 108.271 415.432Z" fill="#3A89FD"/>
<path d="M120.9 423.944C123.163 416.847 126.991 410.35 132.101 404.93C137.211 399.51 143.472 395.307 150.423 392.631C153.639 391.419 157.766 390.723 160.168 393.199C162.569 395.675 161.808 399.631 160.296 402.708C157.842 407.596 153.864 411.519 149.898 415.293C146.296 418.723 142.555 422.164 137.999 424.158C133.443 426.152 125.06 426.667 120.9 423.944Z" fill="#3A89FD"/>
<path d="M45.4521 370.74C45.5146 370.814 45.5867 370.879 45.6665 370.933L46.3205 371.437L48.8718 373.345L50.7264 374.718C51.391 375.232 52.0878 375.79 52.8704 376.443C54.3712 377.698 56.1507 379.059 57.9409 380.731L60.8139 383.347C61.8001 384.258 62.7649 385.287 63.7941 386.306C65.8845 388.321 67.9105 390.669 70.0974 393.092C74.6865 398.499 78.8782 404.231 82.6398 410.244C86.3215 416.296 89.5637 422.605 92.3414 429.121C93.5313 432.155 94.732 435.018 95.5574 437.794C96.0077 439.177 96.5008 440.485 96.876 441.782L97.948 445.512C98.6662 447.882 99.0843 450.079 99.5345 451.944C99.7489 452.898 99.9741 453.788 100.135 454.614C100.296 455.439 100.414 456.2 100.532 456.876C100.767 458.205 100.96 459.255 101.1 460.017L101.26 460.831C101.267 460.925 101.293 461.016 101.336 461.099C101.348 461.007 101.348 460.913 101.336 460.821C101.336 460.606 101.271 460.327 101.228 459.995C101.121 459.234 100.971 458.173 100.767 456.843C100.671 456.157 100.553 455.396 100.424 454.56C100.296 453.724 100.071 452.845 99.8776 451.88C99.4488 449.961 99.0629 447.742 98.3661 445.373C98.0337 444.172 97.7014 442.918 97.2941 441.61C96.8867 440.302 96.4472 438.984 95.997 437.601C95.1501 434.814 93.9709 431.93 92.781 428.875C90.0418 422.319 86.8168 415.976 83.1329 409.901C79.3554 403.875 75.1306 398.141 70.4941 392.749C68.3501 390.326 66.2061 387.978 64.1264 385.974C63.0544 384.955 62.1217 383.926 61.1141 383.026L58.2089 380.431C56.3973 378.748 54.5963 377.408 53.0633 376.143C52.2915 375.543 51.584 374.953 50.9193 374.45L49.0326 373.12L46.4169 371.298L45.7309 370.837C45.5379 370.783 45.4629 370.73 45.4521 370.74Z" fill="#263238"/>
<path d="M29.3398 428.146C29.623 428.132 29.9035 428.085 30.176 428.007C30.7227 427.91 31.5053 427.706 32.5451 427.535C35.4554 426.983 38.3992 426.625 41.357 426.463C51.1339 425.912 60.9102 427.556 69.9686 431.276C78.9949 435.078 87.0539 440.854 93.5526 448.182C95.5197 450.397 97.3389 452.739 98.9984 455.193C99.5987 456.05 100.006 456.758 100.328 457.208C100.475 457.449 100.636 457.682 100.81 457.905C100.706 457.643 100.577 457.391 100.424 457.154C100.135 456.672 99.7595 455.943 99.1806 455.064C97.5716 452.552 95.7801 450.162 93.8206 447.914C87.378 440.424 79.2719 434.546 70.1507 430.751C61.0295 426.955 51.1466 425.347 41.2926 426.056C38.3245 426.258 35.3755 426.681 32.4701 427.321C31.3981 427.524 30.6584 427.771 30.1117 427.91C29.565 428.05 29.3398 428.135 29.3398 428.146Z" fill="#263238"/>
<path d="M74.2788 333.585C74.2665 333.692 74.2665 333.8 74.2788 333.906L74.4717 334.839C74.654 335.697 74.922 336.887 75.265 338.409C75.9725 341.496 77.0338 345.966 78.3845 351.477C81.0645 362.497 84.9559 377.676 89.0188 394.496C91.0341 402.922 92.8565 410.962 94.3788 418.284C95.901 425.605 97.241 432.22 98.2165 437.837C98.7418 440.613 99.1384 443.197 99.5136 445.341C99.8888 447.485 100.189 449.479 100.414 451.044C100.639 452.609 100.843 453.788 100.982 454.657C101.047 455.042 101.1 455.353 101.143 455.589C101.15 455.7 101.176 455.808 101.218 455.911C101.23 455.804 101.23 455.696 101.218 455.589C101.218 455.343 101.154 455.032 101.111 454.635L100.768 451.044C100.575 449.468 100.307 447.549 99.9532 445.319C99.5994 443.09 99.2456 440.56 98.7418 437.762C97.8199 432.166 96.5978 425.53 95.022 418.176C93.4461 410.822 91.6666 402.793 89.662 394.367C85.5991 377.537 81.6434 362.379 78.8562 351.38C77.4733 345.913 76.3584 341.464 75.5652 338.355C75.19 336.844 74.8791 335.665 74.6647 334.818C74.5682 334.432 74.4824 334.132 74.4181 333.896C74.3818 333.788 74.3351 333.684 74.2788 333.585Z" fill="#263238"/>
<path d="M102.225 454.271C102.258 454.191 102.283 454.108 102.3 454.024C102.3 453.82 102.397 453.574 102.472 453.274C102.611 452.577 102.815 451.612 103.072 450.39C103.587 447.892 104.262 444.258 105.045 439.745C106.61 430.74 108.454 418.219 109.59 404.305C110.147 397.347 110.447 390.701 110.587 384.655C110.726 378.609 110.587 373.152 110.447 368.575C110.447 366.292 110.233 364.223 110.137 362.411C110.04 360.599 109.922 359.034 109.804 357.758C109.686 356.483 109.601 355.55 109.526 354.832C109.526 354.521 109.526 354.274 109.44 354.071C109.451 353.985 109.451 353.899 109.44 353.813C109.428 353.899 109.428 353.985 109.44 354.071C109.44 354.285 109.44 354.532 109.44 354.843C109.44 355.561 109.526 356.536 109.601 357.78C109.676 359.023 109.772 360.61 109.836 362.432C109.901 364.255 110.029 366.302 110.062 368.586C110.201 373.152 110.212 378.598 110.062 384.666C109.911 390.733 109.568 397.337 108.99 404.283C107.853 418.219 106.074 430.687 104.616 439.659C103.887 444.172 103.265 447.817 102.815 450.379C102.611 451.601 102.44 452.523 102.322 453.274C102.322 453.584 102.236 453.831 102.204 454.035C102.197 454.114 102.204 454.194 102.225 454.271Z" fill="#263238"/>
<path d="M101.326 456.908C101.448 456.676 101.551 456.436 101.637 456.19L102.441 454.11L103.009 452.598C103.256 452.062 103.513 451.473 103.792 450.851C104.07 450.229 104.371 449.554 104.682 448.836C104.992 448.117 105.41 447.41 105.754 446.638L106.997 444.215L108.476 441.675C109.452 439.895 110.717 438.116 111.928 436.186C114.776 432.125 117.85 428.227 121.137 424.512C124.46 420.826 127.97 417.312 131.653 413.985C133.411 412.506 135.008 411.037 136.627 409.793L138.932 407.96L141.076 406.352C142.448 405.28 143.756 404.423 144.892 403.662C146.029 402.9 147.036 402.225 147.84 401.732L149.727 400.531C149.956 400.404 150.172 400.253 150.37 400.081C150.127 400.175 149.893 400.294 149.673 400.435L147.733 401.507C146.875 401.978 145.868 402.579 144.721 403.361C143.574 404.144 142.234 404.959 140.84 405.988L138.621 407.574L136.284 409.397C134.655 410.619 133.068 412.087 131.267 413.556C127.545 416.874 124.006 420.392 120.665 424.094C117.375 427.836 114.314 431.774 111.499 435.886C110.277 437.837 109.023 439.627 108.058 441.439L106.6 444.012L105.389 446.456C105.014 447.238 104.617 447.967 104.317 448.686C104.017 449.404 103.727 450.09 103.459 450.722C103.191 451.355 102.945 451.955 102.72 452.502C102.495 453.049 102.345 453.574 102.184 454.035C101.894 454.903 101.669 455.611 101.487 456.179C101.409 456.416 101.355 456.66 101.326 456.908Z" fill="#263238"/>
<path d="M49.9668 394.764C49.9668 394.85 51.4462 394.85 53.8153 394.989C56.8973 395.15 59.9659 395.509 63.0023 396.061C66.0328 396.649 69.0226 397.429 71.9535 398.398C73.151 398.86 74.3711 399.26 75.609 399.599C75.3314 399.39 75.0243 399.224 74.6978 399.106C74.0975 398.816 73.2078 398.441 72.0822 398.034C69.1658 396.961 66.1643 396.136 63.1095 395.568C60.0479 394.985 56.9421 394.666 53.826 394.614C52.6361 394.614 51.682 394.614 50.9959 394.668C50.65 394.647 50.3029 394.679 49.9668 394.764Z" fill="#263238"/>
<path d="M40.79 439.595C42.1223 436.862 43.8052 434.314 45.7963 432.016C49.2052 428.296 53.0644 426.656 52.9572 426.463C52.0867 426.696 51.2557 427.057 50.4916 427.535C48.5948 428.632 46.8715 430.005 45.3782 431.609C43.8899 433.2 42.6502 435.007 41.7012 436.969C41.2508 437.786 40.9427 438.674 40.79 439.595Z" fill="#263238"/>
<path d="M72.0904 350.405C71.9724 350.523 74.2344 352.742 76.6571 355.765C79.0798 358.788 80.8379 361.403 80.9451 361.318C79.9428 359.169 78.6358 357.176 77.0644 355.4C75.6556 353.504 73.9803 351.822 72.0904 350.405Z" fill="#263238"/>
<path d="M79.4458 337.68C78.5117 340.837 77.9575 344.094 77.7949 347.382C78.3298 345.826 78.6894 344.215 78.8669 342.579C79.2467 340.973 79.4409 339.33 79.4458 337.68Z" fill="#263238"/>
<path d="M102.202 377.548C103.219 380.126 104.408 382.633 105.761 385.052C106.953 387.55 108.314 389.964 109.835 392.277C108.821 389.697 107.632 387.19 106.276 384.773C105.084 382.274 103.723 379.86 102.202 377.548Z" fill="#263238"/>
<path d="M115.775 364.019C114.605 365.732 113.593 367.548 112.752 369.443C111.744 371.252 110.908 373.15 110.254 375.114C111.424 373.407 112.432 371.595 113.266 369.701C114.278 367.889 115.118 365.987 115.775 364.019Z" fill="#263238"/>
<path d="M135.66 410.276C135.66 410.437 138.115 409.976 141.127 409.761C144.14 409.547 146.605 409.665 146.616 409.504C144.809 409.071 142.939 408.966 141.095 409.193C139.235 409.237 137.396 409.603 135.66 410.276Z" fill="#263238"/>
<path d="M122.07 451.173L115.295 486.795C115.078 487.938 114.469 488.969 113.572 489.711C112.676 490.453 111.549 490.859 110.385 490.858H90.3819C89.1994 490.859 88.0548 490.441 87.1519 489.677C86.2489 488.913 85.6461 487.854 85.4507 486.688L79.5654 451.173H122.07Z" fill="#263238"/>
<path d="M119.873 462.75H81.5915L79.5654 451.173H122.07L119.873 462.75Z" fill="#455A64"/>
<path d="M119.87 462.75L119.066 466.974H82.1785L81.5889 462.75H119.87Z" fill="#FAFAFA"/>
<path d="M415.044 458.623L415.891 479.377C415.891 479.377 395.073 487.213 394.858 491.062L435.166 490.869V458.473L415.044 458.623Z" fill="#263238"/>
<path d="M428.349 477.576C428.737 477.693 429.069 477.949 429.28 478.295C429.492 478.641 429.569 479.053 429.496 479.452C429.39 479.843 429.139 480.178 428.795 480.391C428.451 480.604 428.038 480.678 427.642 480.599C427.231 480.476 426.881 480.206 426.659 479.839C426.437 479.472 426.359 479.036 426.441 478.616C426.586 478.215 426.884 477.887 427.269 477.702C427.653 477.518 428.095 477.492 428.499 477.63" fill="#E0E0E0"/>
<path d="M435.166 490.869L435.037 487.653L396.445 489.057C396.445 489.057 394.655 489.85 394.859 491.115L435.166 490.869Z" fill="#455A64"/>
<path d="M415.239 479.184C415.239 479.377 416.226 479.463 417.201 480.084C418.177 480.706 418.691 481.542 418.873 481.467C419.056 481.392 418.756 480.245 417.566 479.505C416.376 478.766 415.197 479.002 415.239 479.184Z" fill="white"/>
<path d="M411.014 480.942C411.014 481.135 411.828 481.467 412.504 482.293C413.179 483.118 413.372 484.008 413.576 483.997C413.779 483.986 413.887 482.872 413.04 481.853C412.193 480.835 411.024 480.76 411.014 480.942Z" fill="white"/>
<path d="M408.643 486.013C408.814 486.013 409.082 485.069 408.579 483.997C408.075 482.925 407.142 482.496 407.056 482.668C406.971 482.839 407.55 483.397 407.957 484.287C408.364 485.176 408.429 486.002 408.643 486.013Z" fill="white"/>
<path d="M415.569 474.424C415.655 474.607 416.555 474.328 417.713 474.424C418.871 474.521 419.686 474.842 419.793 474.671C419.9 474.499 419.053 473.803 417.745 473.738C416.437 473.674 415.473 474.274 415.569 474.424Z" fill="white"/>
<path d="M477.038 463.458L482.269 488.039L480.801 508.675C480.776 509.027 480.823 509.38 480.941 509.713C481.058 510.045 481.243 510.351 481.483 510.609C481.723 510.867 482.014 511.074 482.338 511.215C482.661 511.356 483.01 511.429 483.363 511.43C483.771 511.43 484.174 511.333 484.538 511.146C484.901 510.96 485.215 510.689 485.453 510.358C488.541 506.07 499.818 490.065 499.389 488.285C498.821 486.227 495.594 461.989 495.594 461.989L477.038 463.458Z" fill="#263238"/>
<path d="M483.353 511.43L499.004 486.613L499.207 487.685C499.382 488.588 499.226 489.524 498.768 490.322C497.546 492.466 494.051 498.298 485.518 510.368C485.274 510.708 484.952 510.983 484.578 511.169C484.205 511.356 483.792 511.449 483.374 511.44L483.353 511.43Z" fill="#455A64"/>
<g opacity="0.6">
<path d="M492.432 479.602C492.178 479.888 492.037 480.258 492.037 480.642C492.037 481.025 492.178 481.395 492.432 481.682C492.703 481.956 493.069 482.116 493.454 482.128C493.839 482.14 494.214 482.003 494.501 481.746C494.774 481.443 494.925 481.05 494.925 480.642C494.925 480.234 494.774 479.841 494.501 479.538C494.189 479.288 493.792 479.168 493.393 479.202C492.994 479.236 492.624 479.421 492.357 479.72" fill="white"/>
</g>
<path d="M486.954 499.552C486.212 498.895 485.354 498.383 484.425 498.04C483.45 497.861 482.451 497.861 481.477 498.04C481.477 497.987 481.723 497.74 482.291 497.547C483.037 497.328 483.829 497.328 484.575 497.547C485.326 497.754 486.003 498.17 486.526 498.748C486.901 499.187 487.008 499.552 486.954 499.552Z" fill="white"/>
<path d="M485.819 503.208C485.035 502.949 484.237 502.735 483.428 502.564C482.605 502.568 481.782 502.615 480.963 502.704C481.69 502.17 482.591 501.926 483.488 502.019C484.386 502.112 485.217 502.536 485.819 503.208Z" fill="white"/>
<path d="M489.43 494.717C487.142 493.529 484.555 493.037 481.99 493.302C483.237 492.806 484.598 492.676 485.916 492.927C487.234 493.177 488.453 493.798 489.43 494.717Z" fill="white"/>
<path d="M488.466 487.106C488.466 487.267 486.954 486.956 485.164 487.235C483.374 487.513 482.055 488.189 481.948 488.049C482.847 487.323 483.924 486.853 485.067 486.687C486.21 486.521 487.377 486.665 488.445 487.106H488.466Z" fill="white"/>
<path d="M487.116 479.859C485.975 479.698 484.817 479.698 483.675 479.859C482.575 480.194 481.526 480.678 480.556 481.296C480.556 481.296 480.716 480.888 481.22 480.46C481.897 479.899 482.698 479.509 483.557 479.323C484.41 479.122 485.299 479.122 486.152 479.323C486.795 479.559 487.138 479.795 487.116 479.859Z" fill="white"/>
<path d="M483.472 478.498C483.333 478.21 483.259 477.895 483.257 477.576C483.18 476.701 483.274 475.82 483.536 474.982C483.68 474.358 484.022 473.797 484.512 473.384C484.688 473.267 484.895 473.204 485.107 473.204C485.318 473.204 485.525 473.267 485.702 473.384C486.032 473.651 486.247 474.035 486.302 474.456C486.401 475.295 486.205 476.143 485.748 476.853C485.29 477.563 484.599 478.092 483.793 478.348C482.993 478.587 482.139 478.583 481.34 478.335C480.542 478.086 479.836 477.606 479.312 476.954C479.18 476.789 479.085 476.597 479.033 476.392C478.981 476.186 478.974 475.972 479.012 475.764C479.081 475.565 479.208 475.391 479.376 475.263C479.544 475.135 479.745 475.06 479.956 475.046C480.59 475.061 481.208 475.246 481.746 475.582C482.516 475.991 483.209 476.532 483.793 477.179C484.027 477.4 484.213 477.667 484.34 477.962C483.519 477.155 482.588 476.469 481.574 475.925C481.09 475.661 480.55 475.514 479.999 475.496C479.882 475.499 479.769 475.538 479.676 475.61C479.583 475.681 479.516 475.78 479.484 475.893C479.47 476.03 479.484 476.168 479.527 476.299C479.569 476.431 479.639 476.551 479.731 476.654C480.199 477.204 480.817 477.607 481.509 477.814C482.201 478.021 482.939 478.024 483.633 477.822C484.302 477.588 484.874 477.14 485.262 476.547C485.65 475.953 485.831 475.249 485.777 474.542C485.739 474.256 485.598 473.993 485.38 473.802C485.286 473.732 485.171 473.694 485.053 473.694C484.935 473.694 484.821 473.732 484.726 473.802C484.313 474.151 484.017 474.619 483.879 475.142C483.552 476.229 483.414 477.364 483.472 478.498Z" fill="white"/>
<path d="M400.209 289.837C400.209 289.837 400.037 300.771 400.766 314.889C401.045 320.356 412.558 472.323 412.558 472.323L437.407 472.945L433.988 330.916L438.276 331.988C438.276 331.988 451.365 379.349 454.216 390.187C457.604 403.051 475.839 476.182 475.839 476.182L498.554 477.019L483.611 391.355L470.714 309.808L468.131 286.095L400.209 289.837Z" fill="#455A64"/>
<path d="M438.276 316.551C437.942 316.778 437.582 316.965 437.204 317.108C436.22 317.576 435.178 317.911 434.106 318.105C433.348 318.243 432.57 318.243 431.812 318.105C430.922 317.938 430.1 317.517 429.443 316.894C428.767 316.17 428.291 315.284 428.06 314.321C427.792 313.346 427.653 312.338 427.47 311.319C426.774 307.203 426.334 303.451 426.087 300.728C425.97 299.367 425.894 298.263 425.852 297.512C425.81 297.117 425.81 296.718 425.852 296.322C425.968 296.702 426.036 297.094 426.055 297.491C426.162 298.359 426.302 299.431 426.463 300.707C426.795 303.419 427.299 307.139 427.985 311.244C428.339 313.281 428.564 315.339 429.786 316.604C430.364 317.115 431.049 317.491 431.791 317.704C432.533 317.917 433.312 317.963 434.074 317.837C435.127 317.676 436.159 317.4 437.15 317.012C437.506 316.813 437.884 316.659 438.276 316.551Z" fill="#263238"/>
<path d="M431.274 297.115C431.274 297.115 431.434 296.998 431.788 296.976C432.286 296.983 432.768 297.152 433.16 297.458C433.466 297.685 433.715 297.979 433.89 298.317C434.065 298.655 434.16 299.029 434.168 299.41C434.127 299.888 433.948 300.345 433.652 300.723C433.357 301.102 432.957 301.387 432.503 301.542C432.048 301.698 431.558 301.718 431.093 301.6C430.627 301.482 430.206 301.231 429.88 300.878C429.653 300.575 429.498 300.225 429.425 299.854C429.353 299.483 429.365 299.1 429.462 298.734C429.573 298.243 429.854 297.806 430.255 297.501C430.534 297.287 430.727 297.266 430.738 297.287C430.278 297.683 429.958 298.217 429.826 298.809C429.765 299.116 429.772 299.432 429.846 299.736C429.92 300.039 430.06 300.323 430.255 300.567C430.513 300.837 430.846 301.023 431.211 301.101C431.576 301.18 431.957 301.147 432.303 301.007C432.661 300.904 432.979 300.696 433.217 300.409C433.454 300.122 433.599 299.77 433.632 299.399C433.635 299.086 433.57 298.775 433.44 298.49C433.31 298.205 433.12 297.952 432.882 297.748C432.424 297.376 431.862 297.155 431.274 297.115Z" fill="#263238"/>
<path d="M470.402 308.339C470.129 308.426 469.842 308.466 469.555 308.457C468.777 308.509 467.996 308.509 467.218 308.457C462.05 308.004 457.192 305.795 453.454 302.197C452.89 301.657 452.367 301.077 451.889 300.46C451.695 300.248 451.533 300.01 451.406 299.753C451.481 299.699 452.253 300.632 453.711 301.897C455.607 303.567 457.738 304.951 460.036 306.002C462.344 307.035 464.794 307.718 467.304 308.028C469.191 308.286 470.402 308.243 470.402 308.339Z" fill="#263238"/>
<path d="M410.231 297.051C409.987 297.911 409.657 298.745 409.245 299.538C408.368 301.395 407.289 303.149 406.029 304.769C404.876 306.276 403.536 307.631 402.041 308.8C401.486 309.287 400.856 309.682 400.176 309.969C400.722 309.443 401.298 308.949 401.902 308.489C403.323 307.251 404.623 305.88 405.782 304.394C406.995 302.801 408.071 301.109 408.998 299.334C409.77 297.93 410.178 297.008 410.231 297.051Z" fill="#263238"/>
<path d="M424.51 139.992C424.887 135.158 427.071 130.642 430.627 127.345C434.183 124.047 438.85 122.209 443.699 122.197H444.696C455.47 122.797 460.98 132.285 460.079 143.037L457.742 176.472L438.543 196.433L433.633 184.502V176.558C433.633 176.558 423.278 174.972 423.117 164.627C423.095 159.621 423.781 149.308 424.51 139.992Z" fill="#FFBE9D"/>
<path d="M433.602 176.548C438.407 176.55 443.112 175.178 447.162 172.592C447.162 172.592 443.946 180.096 433.655 179.142L433.602 176.548Z" fill="#EB996E"/>
<path d="M427.277 148.622C427.277 149.005 427.426 149.374 427.692 149.65C427.957 149.926 428.32 150.088 428.703 150.101C428.891 150.116 429.079 150.093 429.258 150.034C429.437 149.975 429.602 149.88 429.743 149.756C429.885 149.633 430.001 149.482 430.084 149.313C430.166 149.144 430.215 148.96 430.225 148.772C430.231 148.386 430.085 148.014 429.818 147.735C429.551 147.456 429.185 147.293 428.8 147.282C428.611 147.267 428.422 147.291 428.242 147.351C428.063 147.411 427.898 147.506 427.756 147.631C427.614 147.756 427.498 147.908 427.416 148.078C427.334 148.248 427.287 148.433 427.277 148.622Z" fill="#263238"/>
<path d="M426.739 145.052C426.932 145.245 428.047 144.409 429.633 144.409C431.22 144.409 432.399 145.202 432.57 145.009C432.742 144.816 432.463 144.57 431.959 144.205C431.272 143.725 430.45 143.474 429.612 143.487C428.783 143.485 427.976 143.748 427.307 144.237C426.814 144.613 426.653 144.966 426.739 145.052Z" fill="#263238"/>
<path d="M441.662 149.008C441.662 149.394 441.811 149.765 442.079 150.043C442.347 150.321 442.713 150.484 443.099 150.498C443.287 150.511 443.476 150.487 443.654 150.426C443.833 150.366 443.998 150.271 444.14 150.146C444.281 150.021 444.397 149.87 444.479 149.7C444.562 149.531 444.61 149.346 444.621 149.158C444.621 148.772 444.471 148.401 444.204 148.123C443.936 147.845 443.57 147.682 443.184 147.668C442.996 147.653 442.806 147.677 442.627 147.737C442.448 147.797 442.282 147.892 442.14 148.017C441.999 148.142 441.883 148.294 441.801 148.464C441.719 148.634 441.672 148.819 441.662 149.008Z" fill="#263238"/>
<path d="M442.383 145.299C442.575 145.492 443.69 144.666 445.277 144.666C446.863 144.666 448.043 145.449 448.214 145.256C448.386 145.063 448.107 144.827 447.603 144.452C446.912 143.981 446.092 143.733 445.255 143.744C444.426 143.74 443.618 144.003 442.951 144.495C442.468 144.87 442.297 145.213 442.383 145.299Z" fill="#263238"/>
<path d="M436.646 157.123C435.81 156.855 434.941 156.7 434.063 156.662C433.655 156.662 433.27 156.533 433.195 156.265C433.163 155.844 433.256 155.423 433.463 155.054L434.663 151.956C436.314 147.55 437.515 143.927 437.332 143.862C437.15 143.798 435.671 147.314 434.009 151.72C433.613 152.792 433.237 153.864 432.873 154.84C432.618 155.331 432.546 155.897 432.669 156.437C432.728 156.579 432.818 156.707 432.933 156.809C433.048 156.911 433.185 156.986 433.334 157.026C433.558 157.086 433.788 157.118 434.02 157.123C434.892 157.232 435.774 157.232 436.646 157.123Z" fill="#263238"/>
<path d="M441.331 158.206C441.073 158.206 441.073 159.921 439.594 161.143C438.115 162.365 436.281 162.215 436.271 162.44C436.26 162.665 436.678 162.772 437.461 162.783C438.473 162.803 439.459 162.457 440.237 161.808C440.989 161.192 441.469 160.307 441.577 159.342C441.663 158.656 441.448 158.195 441.331 158.206Z" fill="#263238"/>
<path d="M441.962 139.07C442.112 139.499 443.699 139.285 445.575 139.51C447.451 139.735 448.952 140.239 449.198 139.842C449.306 139.66 449.038 139.253 448.437 138.835C447.622 138.323 446.702 138.004 445.745 137.902C444.788 137.799 443.821 137.917 442.916 138.245C442.23 138.524 441.887 138.867 441.962 139.07Z" fill="#263238"/>
<path d="M427.321 140.432C427.6 140.796 428.693 140.432 430.012 140.432C431.33 140.432 432.445 140.668 432.702 140.292C432.82 140.11 432.638 139.746 432.145 139.403C431.505 138.997 430.758 138.795 430.001 138.824C429.227 138.836 428.477 139.091 427.857 139.553C427.342 139.896 427.192 140.26 427.321 140.432Z" fill="#263238"/>
<path d="M420.672 130.934C420.75 130.459 420.999 130.029 421.373 129.725C421.746 129.421 422.217 129.264 422.698 129.283C422.195 129.156 421.719 128.938 421.294 128.64C421.08 128.474 420.917 128.252 420.822 127.998C420.727 127.744 420.705 127.469 420.758 127.204C421.005 126.4 422.023 126.207 422.827 125.949C423.885 125.618 424.812 124.962 425.475 124.073C426.429 122.808 426.761 121.179 427.565 119.785C428.093 118.9 428.813 118.145 429.672 117.575C430.531 117.006 431.507 116.636 432.527 116.494C433.548 116.352 434.588 116.442 435.569 116.755C436.551 117.069 437.45 117.599 438.199 118.306C438.97 117.466 439.931 116.823 441 116.429C442.07 116.036 443.218 115.903 444.35 116.042C445.481 116.182 446.563 116.589 447.505 117.231C448.447 117.873 449.222 118.73 449.766 119.732C451.13 119.116 452.635 118.878 454.123 119.044C455.61 119.209 457.026 119.772 458.221 120.674C459.416 121.575 460.347 122.781 460.915 124.166C461.483 125.55 461.668 127.063 461.451 128.544L455.126 132.671C455.058 132.188 454.889 131.725 454.631 131.311C454.372 130.898 454.03 130.543 453.626 130.27C453.222 129.997 452.765 129.812 452.284 129.727C451.804 129.642 451.312 129.659 450.838 129.776C448.909 130.398 447.729 132.681 445.714 132.896C444.138 133.057 442.766 131.877 441.233 131.513C439.316 131.242 437.369 131.722 435.798 132.853C434.249 133.978 432.559 134.893 430.77 135.576C428.565 136.076 426.257 135.866 424.178 134.976C423.261 134.681 422.42 134.191 421.712 133.539C421.34 133.222 421.05 132.819 420.869 132.365C420.688 131.911 420.62 131.42 420.672 130.934Z" fill="#263238"/>
<path d="M453.873 129.712L424.351 130.387C425.345 128.384 426.818 126.658 428.639 125.36C432.474 122.39 437.148 120.706 441.996 120.546C446.809 120.46 456.618 126.314 460.112 129.626C462.9 132.285 462.889 134.589 462.889 134.589C463.328 138.416 461.195 142.769 460.338 146.521C459.909 148.461 459.062 154.325 459.062 154.325C457.433 154.325 456.832 153.028 457.068 151.42L457.368 145.106C455.738 143.811 454.578 142.017 454.065 139.999C453.552 137.982 453.714 135.852 454.527 133.936C454.924 133.357 455.825 130.784 453.873 129.712Z" fill="#263238"/>
<path d="M457.871 144.623C459.232 139.349 460.444 133.711 458.707 128.543L459.576 128.479L459.951 128.736C460.775 128.43 461.676 128.395 462.521 128.636C463.367 128.878 464.113 129.383 464.652 130.078C465.19 130.773 465.492 131.622 465.515 132.501C465.537 133.38 465.277 134.243 464.775 134.965C465.652 134.931 466.51 135.219 467.188 135.777C467.866 136.334 468.316 137.121 468.452 137.988C468.487 139.202 468.191 140.403 467.594 141.461C466.999 142.517 466.651 143.693 466.576 144.902C466.555 145.508 466.747 146.102 467.119 146.58C467.492 147.058 468.02 147.39 468.613 147.518C468.342 148.138 467.866 148.647 467.265 148.959C466.664 149.272 465.974 149.368 465.311 149.233C465.776 150.251 466.519 151.116 467.455 151.731C465.568 153.092 462.92 152.728 460.798 151.731C459.491 151.248 458.408 150.302 457.753 149.072C457.317 147.615 457.359 146.056 457.871 144.623Z" fill="#263238"/>
<path d="M458.526 150.702C458.708 150.627 465.644 148.558 465.429 155.654C465.215 162.751 458.161 161.068 458.151 160.864C458.14 160.66 458.526 150.702 458.526 150.702Z" fill="#FFBE9D"/>
<path d="M459.769 158.249C459.769 158.249 459.898 158.334 460.101 158.442C460.397 158.56 460.727 158.56 461.023 158.442C461.487 158.162 461.868 157.765 462.13 157.29C462.392 156.816 462.524 156.282 462.513 155.74C462.545 155.136 462.443 154.532 462.213 153.971C462.155 153.749 462.044 153.543 461.889 153.373C461.734 153.203 461.54 153.074 461.323 152.996C461.183 152.954 461.033 152.962 460.898 153.019C460.763 153.076 460.652 153.177 460.584 153.307C460.477 153.51 460.519 153.65 460.487 153.66C460.455 153.671 460.337 153.532 460.402 153.242C460.444 153.07 460.547 152.918 460.691 152.814C460.788 152.741 460.899 152.689 461.017 152.661C461.135 152.634 461.258 152.631 461.377 152.653C461.666 152.719 461.933 152.858 462.153 153.057C462.373 153.256 462.537 153.508 462.631 153.789C462.919 154.409 463.048 155.09 463.007 155.772C463.021 156.402 462.85 157.023 462.514 157.557C462.179 158.09 461.694 158.514 461.12 158.774C460.936 158.816 460.746 158.819 460.561 158.782C460.376 158.745 460.201 158.669 460.048 158.56C459.78 158.42 459.748 158.259 459.769 158.249Z" fill="#EB996E"/>
<path d="M465.695 144.623C465.695 144.623 465.888 144.355 465.802 143.798C465.722 143.415 465.557 143.054 465.319 142.743C465.082 142.431 464.778 142.176 464.43 141.997C463.416 141.551 462.322 141.318 461.214 141.311C460.585 141.33 459.96 141.199 459.392 140.928C458.823 140.658 458.327 140.256 457.945 139.756C457.324 138.634 457.091 137.338 457.28 136.069C457.419 134.879 457.698 133.785 457.827 132.853C458.083 131.855 458.038 130.803 457.698 129.83C457.724 130.822 457.641 131.814 457.451 132.788C457.269 133.7 456.948 134.75 456.776 136.004C456.544 137.396 456.793 138.826 457.484 140.057C457.895 140.689 458.501 141.17 459.21 141.429C459.842 141.648 460.503 141.774 461.171 141.804C462.238 141.783 463.3 141.961 464.302 142.329C464.614 142.479 464.894 142.69 465.124 142.95C465.354 143.209 465.53 143.512 465.642 143.841C465.683 144.099 465.701 144.361 465.695 144.623Z" fill="#455A64"/>
<path d="M467.315 141.504C467.315 141.504 467.465 141.3 467.519 140.861C467.555 140.327 467.457 139.792 467.235 139.305C467.012 138.819 466.671 138.395 466.243 138.074C465.833 137.78 465.366 137.575 464.871 137.473C464.392 137.389 463.934 137.214 463.52 136.959C463.334 136.803 463.185 136.608 463.085 136.387C462.985 136.166 462.936 135.926 462.942 135.683C462.942 135.147 462.942 134.611 462.942 134.011C462.883 132.553 462.431 131.138 461.634 129.916C461.467 129.637 461.234 129.404 460.955 129.237C460.677 129.071 460.361 128.976 460.036 128.962C459.575 128.962 459.383 129.197 459.404 129.208C459.425 129.219 459.64 129.122 460.026 129.208C460.299 129.256 460.558 129.368 460.782 129.533C461.005 129.699 461.186 129.914 461.312 130.162C461.738 130.907 462.046 131.713 462.223 132.553C462.335 133.049 462.396 133.556 462.406 134.064C462.406 134.579 462.406 135.136 462.406 135.747C462.403 136.069 462.473 136.388 462.61 136.679C462.747 136.971 462.949 137.227 463.199 137.43C463.679 137.719 464.211 137.912 464.764 137.998C465.173 138.058 465.566 138.203 465.915 138.424C466.264 138.646 466.562 138.939 466.79 139.285C467.188 139.953 467.371 140.728 467.315 141.504Z" fill="#455A64"/>
<path d="M425.432 124.041C425.432 124.041 425.968 124.406 426.89 123.945C427.399 123.651 427.841 123.253 428.187 122.776C428.619 122.176 429.161 121.663 429.784 121.265C430.603 120.78 431.543 120.542 432.494 120.578C433.444 120.614 434.364 120.923 435.144 121.468C436.034 122.079 436.827 122.948 437.867 123.612C438.402 123.993 439.012 124.256 439.657 124.384C440.34 124.477 441.035 124.388 441.672 124.127C442.927 123.634 443.913 122.83 444.996 122.401C446.042 121.96 447.162 121.724 448.297 121.704C450.24 121.653 452.144 122.249 453.711 123.398C454.768 124.171 455.654 125.152 456.316 126.282C456.788 127.096 456.959 127.589 457.002 127.568C457.045 127.546 457.002 127.439 456.916 127.193C456.808 126.846 456.672 126.509 456.509 126.185C455.893 124.973 455.014 123.915 453.936 123.087C452.324 121.838 450.336 121.173 448.297 121.2C447.095 121.204 445.905 121.441 444.792 121.897C443.624 122.369 442.648 123.173 441.469 123.612C440.925 123.844 440.328 123.922 439.743 123.837C439.175 123.728 438.638 123.498 438.167 123.162C437.202 122.508 436.387 121.65 435.423 121.018C434.514 120.38 433.424 120.053 432.314 120.085C431.351 120.114 430.412 120.395 429.591 120.9C428.942 121.335 428.388 121.896 427.962 122.551C427.654 123.018 427.257 123.419 426.793 123.73C426.389 123.988 425.908 124.098 425.432 124.041Z" fill="#455A64"/>
<path d="M383.946 217.862L347.316 188.918L342.095 183.441C342.095 183.441 329.617 171.788 328.567 170.512C327.345 169.044 326.337 169.279 325.833 169.762C325.029 170.523 325.297 172.067 326.305 173.353C326.659 173.803 332.437 180.632 332.437 180.632C331.497 180.32 330.537 180.073 329.564 179.892C327.473 179.453 324.472 180.707 322.06 182.819C319.648 184.931 319.197 185.745 319.98 186.71C320.135 186.884 320.328 187.022 320.543 187.113C320.758 187.204 320.99 187.245 321.223 187.235C321.993 187.24 322.737 186.962 323.314 186.453C327.173 183.108 329.982 184.309 329.982 184.309L330.668 185.027C330.668 185.027 326.862 185.317 325.554 187.621C325.363 187.951 325.239 188.315 325.19 188.693C324.657 189.143 324.252 189.725 324.012 190.379C323.773 191.034 323.709 191.74 323.826 192.427C323.943 193.115 324.237 193.76 324.679 194.299C325.121 194.838 325.696 195.252 326.348 195.501C326.65 195.652 326.991 195.709 327.326 195.663C327.66 195.617 327.974 195.471 328.224 195.243C328.415 194.939 328.533 194.594 328.567 194.236C328.593 194.05 328.636 193.867 328.695 193.689L330.893 195.426C330.893 195.426 336.028 199.07 338.086 200.914L368.767 234.264C369.776 235.36 370.993 236.243 372.347 236.864C373.701 237.484 375.165 237.829 376.654 237.878C378.142 237.927 379.626 237.679 381.018 237.149C382.41 236.618 383.682 235.816 384.761 234.789C385.922 233.679 386.831 232.332 387.426 230.84C388.021 229.347 388.29 227.745 388.212 226.14C388.135 224.535 387.714 222.966 386.978 221.538C386.242 220.11 385.208 218.857 383.946 217.862Z" fill="#FFBE9D"/>
<path d="M345.794 189.39C345.464 189.749 345.031 189.996 344.555 190.098C344.079 190.2 343.582 190.151 343.135 189.958C342.213 189.647 341.431 189.026 340.53 188.65C337.861 187.514 334.591 188.65 331.954 187.364C331.579 187.193 331.193 186.86 331.279 186.464C331.364 186.067 331.815 185.96 332.179 185.895L341.645 184.084" fill="#FFBE9D"/>
<path d="M341.667 184.084C341.307 184.062 340.946 184.091 340.595 184.17C339.93 184.266 338.976 184.416 337.797 184.62L333.637 185.359L332.447 185.574C331.944 185.59 331.467 185.801 331.118 186.163C331.026 186.298 330.977 186.456 330.977 186.619C330.977 186.782 331.026 186.941 331.118 187.075C331.275 187.288 331.481 187.461 331.718 187.578C332.148 187.782 332.597 187.94 333.058 188.05C334.775 188.282 336.504 188.397 338.236 188.393C338.97 188.436 339.693 188.592 340.38 188.854C340.974 189.117 341.554 189.41 342.117 189.733C342.535 189.997 343.006 190.166 343.497 190.229C343.988 190.292 344.486 190.247 344.958 190.098C345.633 189.808 345.772 189.379 345.751 189.39C345.494 189.603 345.204 189.773 344.893 189.894C344.45 189.995 343.99 190.003 343.543 189.916C343.096 189.829 342.673 189.65 342.299 189.39C341.738 189.041 341.158 188.722 340.562 188.436C339.846 188.134 339.086 187.949 338.311 187.889C336.604 187.867 334.9 187.741 333.209 187.514C332.791 187.417 332.385 187.277 331.997 187.096C331.643 186.914 331.418 186.614 331.558 186.453C331.697 186.292 332.115 186.163 332.522 186.088L333.712 185.853L337.84 185.006C339.019 184.748 339.984 184.545 340.616 184.384C340.977 184.327 341.33 184.226 341.667 184.084Z" fill="#EB996E"/>
<path d="M330.806 184.995C330.365 184.569 329.834 184.247 329.252 184.052C328.615 183.89 327.943 183.935 327.333 184.18C326.579 184.498 325.878 184.928 325.253 185.456C324.611 186.008 323.914 186.493 323.174 186.903C322.547 187.245 321.839 187.412 321.126 187.385C320.882 187.374 320.643 187.306 320.429 187.187C320.215 187.068 320.032 186.901 319.893 186.699C319.785 186.557 319.721 186.385 319.711 186.206C319.711 186.206 319.807 186.367 320 186.614C320.142 186.779 320.319 186.911 320.516 187.002C320.714 187.092 320.93 187.139 321.147 187.139C321.807 187.126 322.453 186.945 323.023 186.614C323.737 186.197 324.412 185.716 325.039 185.177C325.68 184.631 326.404 184.19 327.183 183.869C327.87 183.607 328.627 183.588 329.327 183.816C329.779 183.965 330.187 184.223 330.517 184.566C330.753 184.823 330.828 184.984 330.806 184.995Z" fill="#EB996E"/>
<path d="M325.886 172.849C326.311 173.264 326.699 173.716 327.043 174.2L329.745 177.523L332.5 180.803C332.893 181.239 333.252 181.705 333.572 182.197C333.097 181.838 332.662 181.428 332.275 180.975C331.514 180.171 330.506 179.045 329.434 177.759C328.362 176.473 327.44 175.261 326.797 174.361C326.436 173.894 326.13 173.387 325.886 172.849Z" fill="#EB996E"/>
<path d="M330.549 187.846C330.38 187.923 330.204 187.98 330.023 188.018C329.796 188.075 329.583 188.178 329.399 188.322C329.214 188.466 329.062 188.648 328.951 188.854C328.896 188.997 328.877 189.152 328.898 189.304C328.918 189.456 328.977 189.6 329.069 189.722C329.306 190.026 329.576 190.303 329.873 190.548C330.259 190.853 330.522 191.287 330.613 191.77C330.629 192.036 330.583 192.303 330.479 192.548C330.375 192.794 330.215 193.012 330.013 193.185C329.812 193.353 329.579 193.477 329.328 193.551C329.078 193.625 328.814 193.646 328.555 193.614C328.075 193.571 327.619 193.384 327.247 193.078C326.684 192.558 326.2 191.958 325.811 191.298C325.536 190.858 325.333 190.377 325.21 189.873C325.146 189.508 325.21 189.304 325.21 189.304C325.21 189.304 325.21 189.508 325.339 189.84C325.499 190.31 325.726 190.755 326.014 191.159C326.412 191.778 326.892 192.341 327.44 192.831C327.764 193.1 328.168 193.254 328.589 193.27C329.009 193.286 329.423 193.161 329.766 192.917C329.923 192.787 330.048 192.623 330.131 192.437C330.215 192.251 330.255 192.049 330.249 191.845C330.176 191.445 329.958 191.087 329.638 190.837C329.324 190.567 329.046 190.257 328.812 189.915C328.698 189.753 328.629 189.563 328.612 189.366C328.596 189.168 328.631 188.969 328.716 188.79C328.847 188.555 329.032 188.355 329.255 188.206C329.479 188.057 329.735 187.963 330.002 187.932C330.177 187.869 330.363 187.84 330.549 187.846Z" fill="#EB996E"/>
<path d="M328.46 193.314C328.46 193.314 328.631 193.41 328.749 193.732C328.821 193.962 328.839 194.205 328.801 194.443C328.764 194.681 328.673 194.907 328.535 195.104C328.314 195.388 328.023 195.61 327.69 195.747C327.357 195.884 326.994 195.932 326.637 195.887C325.791 195.759 325.025 195.314 324.493 194.643C323.946 193.984 323.616 193.171 323.55 192.317C323.513 191.74 323.604 191.162 323.818 190.624C324.031 190.087 324.36 189.603 324.783 189.208C325.029 188.994 325.19 188.908 325.201 188.929C324.792 189.371 324.449 189.869 324.182 190.409C323.9 191.064 323.805 191.784 323.907 192.49C324.009 193.196 324.305 193.859 324.761 194.407C325.245 195.022 325.941 195.435 326.712 195.565C327.017 195.609 327.327 195.576 327.615 195.469C327.904 195.362 328.161 195.185 328.363 194.954C328.492 194.787 328.583 194.594 328.631 194.389C328.679 194.184 328.683 193.971 328.642 193.764C328.546 193.475 328.438 193.324 328.46 193.314Z" fill="#EB996E"/>
<path d="M337.024 193.968C337.024 193.968 337.207 193.689 337.689 193.421C338.35 193.085 339.102 192.972 339.833 193.099L339.651 193.356C339.428 193.01 339.224 192.652 339.04 192.284C338.342 191.052 338.008 189.647 338.075 188.232C338.364 189.571 338.796 190.876 339.361 192.124C339.544 192.488 339.747 192.831 339.94 193.142L340.155 193.485L339.769 193.399C339.097 193.266 338.401 193.329 337.764 193.582C337.303 193.807 337.057 194.032 337.024 193.968Z" fill="#EB996E"/>
<path d="M327.14 182.369C327.237 182.369 327.387 183.055 326.99 183.816C326.593 184.577 325.918 184.888 325.918 184.802C325.918 184.716 326.347 184.33 326.679 183.655C327.011 182.98 327.044 182.369 327.14 182.369Z" fill="#EB996E"/>
<path d="M382.284 237.116L403.435 222.472C403.435 222.472 401.58 279.181 401.58 279.706C401.58 279.706 397.71 281.239 398.364 285.291L399.436 291.005C422.731 296.365 445.811 299.828 469.298 291.177L471.968 246.003L480.254 190.816L461.355 182.776L458.139 175.272L438.564 196.358L433.558 182.744L433.697 177.609L428.959 182.755L406.018 186.528L377.439 209.694L368.069 202.115L353.93 221.754L370.01 237.984C374.082 239.083 378.407 238.777 382.284 237.116Z" fill="#3A89FD"/>
<path d="M435.69 193.861C435.077 194.207 434.595 194.746 434.318 195.393C434.025 196.137 433.883 196.931 433.9 197.73C433.953 198.821 433.8 199.912 433.45 200.946L433.214 201.504L432.978 200.946C432.343 199.354 431.841 197.712 431.477 196.037C430.673 192.563 430.159 189.38 429.805 187.075C429.569 185.837 429.437 184.582 429.408 183.323C429.751 184.534 430.016 185.766 430.201 187.01C430.641 189.294 431.22 192.456 432.024 195.908C432.378 197.553 432.854 199.169 433.45 200.743H432.978C433.309 199.781 433.476 198.769 433.471 197.752C433.483 196.906 433.677 196.072 434.039 195.308C434.26 194.798 434.635 194.371 435.111 194.086C435.476 193.85 435.679 193.839 435.69 193.861Z" fill="#263238"/>
<path d="M460.294 185.381C460.122 185.719 459.906 186.033 459.651 186.314C459.201 186.892 458.579 187.718 457.721 188.726C456.071 190.741 453.776 193.496 451.204 196.519L447.109 201.3L446.798 201.665L446.68 201.193C446.09 198.867 445.608 196.905 445.308 195.511C445.179 194.825 444.793 194.439 444.418 194.439C444.234 194.43 444.053 194.483 443.903 194.589C443.903 194.589 443.978 194.311 444.418 194.279C444.549 194.277 444.679 194.302 444.801 194.352C444.922 194.402 445.033 194.475 445.125 194.568C445.351 194.823 445.513 195.128 445.597 195.458C445.994 196.83 446.54 198.77 447.162 201.096L446.733 200.989L450.775 196.176C453.348 193.153 455.695 190.441 457.421 188.49C458.279 187.514 458.986 186.732 459.479 186.196C459.717 185.892 459.991 185.618 460.294 185.381Z" fill="#263238"/>
<path d="M432.014 274.153C431.967 273.913 431.949 273.668 431.96 273.424C431.96 272.899 431.96 272.213 431.96 271.366C431.96 269.576 431.96 266.981 431.96 263.776C432.035 257.344 432.336 248.522 433.032 238.777C433.729 229.033 434.78 220.221 435.659 213.875C436.098 210.659 436.484 208.139 436.784 206.371L437.127 204.344C437.169 204.106 437.223 203.87 437.288 203.637C437.319 203.875 437.319 204.117 437.288 204.355C437.224 204.88 437.138 205.567 437.042 206.403C436.806 208.247 436.484 210.798 436.088 213.907C435.316 220.264 434.362 229.054 433.633 238.799C432.904 248.543 432.561 257.366 432.357 263.765C432.282 266.917 432.228 269.49 432.186 271.344C432.186 272.195 432.164 272.881 432.121 273.403C432.102 273.655 432.066 273.906 432.014 274.153Z" fill="#263238"/>
<path d="M426.654 287.167C426.184 285.627 426.016 284.011 426.161 282.408C426.104 280.806 426.27 279.204 426.654 277.648C426.806 279.234 426.806 280.832 426.654 282.418C426.589 285.034 426.761 287.146 426.654 287.167Z" fill="#263238"/>
<path d="M453.841 271.57C453.293 271.834 452.723 272.049 452.137 272.213C451.065 272.599 449.392 273.113 447.377 273.703C442.107 275.222 436.761 276.464 431.361 277.423C425.965 278.376 420.522 279.053 415.056 279.449C412.912 279.588 411.251 279.674 410.071 279.695C409.465 279.746 408.855 279.746 408.249 279.695C408.846 279.578 409.452 279.51 410.061 279.492L415.024 279.074C419.194 278.688 424.962 278.002 431.265 276.93C437.568 275.858 443.218 274.432 447.27 273.36L452.072 272.052C452.65 271.851 453.241 271.69 453.841 271.57Z" fill="#263238"/>
<path d="M403.371 235.465C403.221 235.465 403.124 227.575 403.157 217.852C403.189 208.129 403.35 200.239 403.5 200.239C403.65 200.239 403.746 208.129 403.714 217.852C403.682 227.575 403.532 235.465 403.371 235.465Z" fill="#263238"/>
<g opacity="0.3">
<path d="M440.387 198.256C440.965 198.235 441.534 198.41 442.001 198.752C442.468 199.094 442.805 199.584 442.959 200.142C443.174 201.289 443.013 202.501 443.313 203.637C443.613 204.773 444.653 205.878 445.8 205.642C446.483 205.417 447.064 204.957 447.44 204.345C449.692 201.297 451.496 197.943 452.8 194.386C452.8 194.471 446.862 201.204 446.862 201.204C446.641 199.501 446.194 197.835 445.532 196.251C445.339 195.736 445.103 194.857 444.61 194.632C443.806 194.257 442.734 195.436 442.198 196.154C441.65 196.881 441.028 197.549 440.344 198.148" fill="black"/>
</g>
<g opacity="0.3">
<path d="M430.706 192.135C430.813 195.904 431.537 199.63 432.85 203.165C432.964 203.525 433.162 203.852 433.429 204.12C433.565 204.261 433.744 204.353 433.938 204.382C434.131 204.411 434.329 204.375 434.501 204.28C434.933 203.557 435.292 202.792 435.573 201.997C436.12 200.464 438.349 200.325 438.349 200.325C437.977 198.593 437.49 196.889 436.891 195.222C436.784 194.947 436.592 194.713 436.344 194.553C436.096 194.394 435.803 194.316 435.509 194.332C435.122 194.461 434.777 194.691 434.509 194.998C434.242 195.306 434.061 195.679 433.986 196.08C433.654 198.824 433.697 200.089 433.29 201.054C432.218 198.116 431.403 194.622 430.717 192.038" fill="black"/>
</g>
<g opacity="0.3">
<path d="M447.148 273.36C447.402 273.178 447.617 272.948 447.781 272.682C447.944 272.416 448.053 272.12 448.101 271.812C448.149 271.503 448.135 271.188 448.06 270.885C447.985 270.583 447.85 270.298 447.663 270.047C447.264 269.56 446.744 269.187 446.155 268.965C445.566 268.743 444.929 268.68 444.308 268.783C443.069 268.998 441.904 269.522 440.92 270.305C439.902 271.044 438.969 271.881 437.897 272.535C435.271 274.153 432.076 274.518 428.989 274.571C425.906 274.444 422.818 274.58 419.759 274.979C416.736 275.568 413.713 277.123 412.255 279.846C412.244 279.792 438.605 277.916 447.148 273.36Z" fill="black"/>
</g>
<path d="M480.254 190.816C480.254 190.816 488.23 196.498 490.16 201.643C492.089 206.789 499.218 242.133 500.376 248.168C501.844 255.758 501.887 265.148 490.964 268.718C486.901 270.037 462.02 268.011 462.02 268.011L462.834 250.333L476.266 250.837C476.266 250.837 475.462 249.647 477.392 248.211L473.104 225.216C473.104 225.216 474.68 200.796 474.873 200.217C475.066 199.638 480.254 190.816 480.254 190.816Z" fill="#3A89FD"/>
<path d="M480.683 191.427C478.323 192.398 476.193 193.854 474.431 195.701C472.669 197.547 471.315 199.744 470.456 202.147C470.514 201.402 470.711 200.675 471.035 200.003C472.457 196.537 475.138 193.738 478.539 192.167C479.203 191.793 479.93 191.543 480.683 191.427Z" fill="#263238"/>
<path d="M485.037 254.418C484.951 254.418 484.769 253.828 484.233 253.003C483.519 251.931 482.588 251.021 481.499 250.333C480.431 249.616 479.221 249.137 477.951 248.929C476.975 248.79 476.353 248.929 476.332 248.811C476.844 248.551 477.425 248.457 477.994 248.543C479.358 248.645 480.674 249.099 481.81 249.862C482.966 250.591 483.917 251.602 484.576 252.799C484.885 253.282 485.045 253.845 485.037 254.418Z" fill="#263238"/>
<path d="M470.605 211.248C470.769 211.708 470.891 212.182 470.97 212.663C471.195 213.735 471.463 215.011 471.795 216.576C472.46 219.889 473.339 224.466 474.272 229.526C475.204 234.586 476.03 239.174 476.598 242.508C476.855 244.094 477.07 245.413 477.23 246.453C477.335 246.932 477.389 247.42 477.391 247.911C477.227 247.45 477.101 246.977 477.016 246.496C476.802 245.424 476.534 244.148 476.201 242.583C475.537 239.27 474.658 234.693 473.725 229.633C472.792 224.573 471.967 219.985 471.399 216.651C471.141 215.065 470.927 213.746 470.766 212.706C470.662 212.227 470.608 211.739 470.605 211.248Z" fill="#263238"/>
<path d="M462.03 268C461.989 267.544 461.989 267.084 462.03 266.628C462.03 265.652 462.03 264.398 462.116 262.887C462.213 259.671 462.373 255.286 462.599 250.301V250.033H462.877L465.086 250.119L476.299 250.601H476.374L476.427 250.655C478.096 252.015 479.367 253.8 480.104 255.822C480.302 256.381 480.456 256.954 480.565 257.537C480.616 257.74 480.635 257.95 480.619 258.159C480.555 258.159 480.426 257.312 479.858 255.919C479.059 253.99 477.778 252.3 476.138 251.009L476.277 251.062L465.064 250.676L462.856 250.58L463.135 250.323C462.909 255.297 462.674 259.724 462.481 262.887C462.374 264.398 462.288 265.652 462.223 266.628C462.21 267.091 462.146 267.551 462.03 268Z" fill="#263238"/>
<path d="M442.403 246.624L432.015 225.42C431.669 224.715 431.131 224.122 430.464 223.707C429.797 223.292 429.028 223.072 428.242 223.072H402.074C401.853 223.071 401.634 223.128 401.441 223.237C401.248 223.346 401.087 223.504 400.973 223.694C400.859 223.885 400.797 224.102 400.793 224.324C400.789 224.545 400.843 224.764 400.949 224.959L418.637 257.998C418.883 258.451 419.247 258.83 419.691 259.094C420.134 259.358 420.64 259.498 421.156 259.499H448.267L442.403 246.624Z" fill="#455A64"/>
<path d="M401.12 225.12H401.645H403.135H408.646L426.795 224.97C427.634 224.963 428.462 225.161 429.207 225.549C429.893 225.986 430.448 226.601 430.815 227.328C431.576 228.775 432.208 230.287 432.873 231.616L436.346 239.013L438.715 243.976C438.983 244.523 439.208 244.963 439.391 245.316C439.457 245.477 439.543 245.628 439.648 245.767C439.614 245.595 439.556 245.429 439.476 245.273C439.326 244.909 439.123 244.459 438.887 243.901C438.34 242.647 437.579 240.943 436.657 238.863C435.735 236.783 434.513 234.21 433.28 231.434C432.626 230.03 432.015 228.561 431.233 227.049C430.829 226.246 430.213 225.568 429.453 225.088C428.642 224.655 427.736 224.43 426.816 224.434C419.698 224.434 413.298 224.637 408.592 224.734L403.093 224.884L401.592 224.948C401.427 224.982 401.268 225.04 401.12 225.12Z" fill="#263238"/>
<path d="M417.231 229.762C417.107 229.808 416.995 229.882 416.904 229.978C416.813 230.074 416.746 230.19 416.708 230.317C416.669 230.444 416.661 230.578 416.683 230.708C416.705 230.839 416.757 230.962 416.834 231.07C416.978 231.294 417.19 231.466 417.439 231.56C417.688 231.655 417.961 231.667 418.217 231.595C418.39 231.557 418.548 231.471 418.675 231.348C418.802 231.225 418.892 231.069 418.935 230.898C418.952 230.639 418.884 230.381 418.741 230.164C418.598 229.947 418.387 229.783 418.142 229.697C417.838 229.644 417.525 229.666 417.231 229.762Z" fill="white"/>
<path d="M462.556 251.052L456.06 250.419C456.06 250.419 453.112 247.074 451.954 246.067C450.796 245.059 444.171 241.779 444.171 241.779C444.171 241.779 440.73 238.123 440.28 238.177C439.83 238.23 438.415 238.67 439.026 240.482C439.606 242.283 440.368 244.022 441.298 245.67L428.209 247.535C427.8 247.586 427.407 247.727 427.059 247.948C426.71 248.168 426.415 248.463 426.194 248.811C425.904 249.294 425.819 249.797 426.472 250.022C428.841 250.568 431.239 250.976 433.655 251.245L431.082 250.902C431.082 250.902 430.836 253.346 432.551 254.289C433.21 254.584 433.826 254.966 434.384 255.425C434.536 256.518 434.924 257.564 435.52 258.491C436.313 259.317 444.16 262.233 444.16 262.233C444.16 262.233 449.06 263.069 451.429 262.661L462.041 264.28L462.556 251.052Z" fill="#FFBE9D"/>
<path d="M440.032 245.906C441.278 245.992 442.528 245.992 443.773 245.906C445.023 245.983 446.278 245.893 447.504 245.638C446.269 245.425 445.014 245.356 443.763 245.434C442.501 245.366 441.237 245.526 440.032 245.906Z" fill="#EB996E"/>
<path d="M442.487 251.513C440.686 251.094 438.835 250.928 436.988 251.019C435.465 251.019 434.093 251.019 433.096 251.019C432.56 250.982 432.02 251.004 431.488 251.084C432 251.27 432.542 251.357 433.086 251.341C434.093 251.416 435.465 251.448 436.988 251.459C440.021 251.47 442.466 251.63 442.487 251.513Z" fill="#EB996E"/>
<path d="M443.002 255.811C443.002 255.672 441.072 255.811 438.714 255.715C436.355 255.618 434.426 255.243 434.426 255.382C435.793 255.913 437.247 256.186 438.714 256.186C440.154 256.332 441.609 256.205 443.002 255.811Z" fill="#EB996E"/>
<path d="M442.788 260.71C442.916 260.71 443.045 260.185 443.077 259.51C443.109 258.834 443.023 258.298 442.895 258.288C442.766 258.277 442.638 258.824 442.605 259.488C442.573 260.153 442.659 260.71 442.788 260.71Z" fill="#EB996E"/>
<path d="M443.27 254.814C443.399 254.814 443.42 254.353 443.592 253.871C443.763 253.389 444.01 253.045 443.924 252.938C443.838 252.831 443.356 253.11 443.152 253.721C442.948 254.332 443.152 254.846 443.27 254.814Z" fill="#EB996E"/>
<path d="M444.075 248.865C444.214 248.865 444.311 248.575 444.429 248.243C444.547 247.911 444.654 247.621 444.557 247.536C444.461 247.45 444.139 247.664 443.989 248.082C443.839 248.5 443.946 248.876 444.075 248.865Z" fill="#EB996E"/>
</svg>
