<svg width="653" height="631" viewBox="0 0 653 631" fill="none" xmlns="http://www.w3.org/2000/svg">
<rect x="464" y="91" width="90" height="90" fill="#3A89FD"/>
<rect x="96" y="91" width="276" height="90" fill="#1F43CF"/>
<rect x="372" y="181" width="92" height="90" fill="#1F43CF"/>
<rect x="280" y="271" width="92" height="90" fill="#1F43CF"/>
<rect x="188" y="361" width="92" height="90" fill="#1F43CF"/>
<rect x="464" y="271" width="92" height="275" fill="#1F43CF"/>
<rect x="96" y="451" width="92" height="90" fill="#1F43CF"/>
<rect x="98" y="277" width="44" height="11" fill="#B9D5FF"/>
<rect x="144" y="325" width="44" height="11" fill="#B9D5FF"/>
<rect x="120" y="420" width="44" height="11" fill="#B9D5FF"/>
<rect x="98" y="349" width="35" height="11" fill="#B9D5FF"/>
<rect x="144" y="349" width="32" height="11" fill="#B9D5FF"/>
<rect x="323" y="383" width="43" height="11" fill="#B9D5FF"/>
<rect x="301" y="407" width="43" height="11" fill="#B9D5FF"/>
<rect x="301" y="432" width="43" height="11" fill="#B9D5FF"/>
<rect x="376" y="432" width="30" height="11" fill="#B9D5FF"/>
<rect x="421" y="407" width="30" height="11" fill="#B9D5FF"/>
<rect x="577" y="222" width="30" height="11" fill="#B9D5FF"/>
<rect x="577" y="246" width="45" height="11" fill="#B9D5FF"/>
<rect x="601" y="199" width="52" height="11" fill="#B9D5FF"/>
<rect x="346" y="529" width="30" height="11" fill="#B9D5FF"/>
<rect x="346" y="504" width="43" height="11" fill="#B9D5FF"/>
<rect x="301" y="529" width="33" height="11" fill="#B9D5FF"/>
<rect x="42" y="561" width="34" height="11" fill="#B9D5FF"/>
<rect x="301" y="457" width="43" height="11" fill="#B9D5FF"/>
<circle cx="92" cy="566" r="6" fill="#B9D5FF"/>
<circle cx="26" cy="566" r="6" fill="#B9D5FF"/>
<circle cx="26" cy="589" r="6" fill="#B9D5FF"/>
<circle cx="50" cy="589" r="6" fill="#B9D5FF"/>
<circle cx="104" cy="307" r="6" fill="#B9D5FF"/>
<circle cx="104" cy="330" r="6" fill="#B9D5FF"/>
<circle cx="104" cy="379" r="6" fill="#B9D5FF"/>
<circle cx="104" cy="402" r="6" fill="#B9D5FF"/>
<circle cx="127" cy="402" r="6" fill="#B9D5FF"/>
<circle cx="104" cy="425" r="6" fill="#B9D5FF"/>
<circle cx="127" cy="379" r="6" fill="#B9D5FF"/>
<circle cx="150" cy="379" r="6" fill="#B9D5FF"/>
<circle cx="127" cy="330" r="6" fill="#B9D5FF"/>
<circle cx="203" cy="330" r="6" fill="#B9D5FF"/>
<circle cx="307" cy="388" r="6" fill="#B9D5FF"/>
<circle cx="307" cy="486" r="6" fill="#B9D5FF"/>
<circle cx="307" cy="509" r="6" fill="#B9D5FF"/>
<circle cx="330" cy="509" r="6" fill="#B9D5FF"/>
<circle cx="405" cy="509" r="6" fill="#B9D5FF"/>
<circle cx="361" cy="462" r="6" fill="#B9D5FF"/>
<circle cx="360" cy="437" r="6" fill="#B9D5FF"/>
<circle cx="360" cy="412" r="6" fill="#B9D5FF"/>
<circle cx="383" cy="412" r="6" fill="#B9D5FF"/>
<circle cx="405" cy="412" r="6" fill="#B9D5FF"/>
<circle cx="584" cy="204" r="6" fill="#B9D5FF"/>
<circle cx="561" cy="204" r="6" fill="#B9D5FF"/>
<circle cx="561" cy="227" r="6" fill="#B9D5FF"/>
<circle cx="561" cy="251" r="6" fill="#B9D5FF"/>
<circle cx="422" cy="437" r="6" fill="#B9D5FF"/>
<circle cx="158" cy="282" r="6" fill="#B9D5FF"/>
<circle cx="41.5" cy="227.5" r="41.5" fill="url(#paint0_linear_72_161)"/>
<circle cx="41.5" cy="227.5" r="18" stroke="#3A89FD"/>
<circle cx="41.5" cy="227.5" r="9.5" fill="#3A89FD"/>
<circle cx="417.5" cy="41.5" r="41.5" fill="url(#paint1_linear_72_161)"/>
<circle cx="417.5" cy="41.5" r="18" stroke="#3A89FD"/>
<circle cx="417.5" cy="41.5" r="9.5" fill="#3A89FD"/>
<circle cx="238.5" cy="589.5" r="41.5" fill="url(#paint2_linear_72_161)"/>
<circle cx="238.5" cy="589.5" r="18" stroke="#3A89FD"/>
<circle cx="238.5" cy="589.5" r="9.5" fill="#3A89FD"/>
<defs>
<linearGradient id="paint0_linear_72_161" x1="15" y1="191.5" x2="75" y2="274" gradientUnits="userSpaceOnUse">
<stop stop-color="#3A89FD" stop-opacity="0.19"/>
<stop offset="1" stop-color="#3A89FD" stop-opacity="0"/>
</linearGradient>
<linearGradient id="paint1_linear_72_161" x1="391" y1="5.5" x2="451" y2="88" gradientUnits="userSpaceOnUse">
<stop stop-color="#3A89FD" stop-opacity="0.19"/>
<stop offset="1" stop-color="#3A89FD" stop-opacity="0"/>
</linearGradient>
<linearGradient id="paint2_linear_72_161" x1="212" y1="553.5" x2="272" y2="636" gradientUnits="userSpaceOnUse">
<stop stop-color="#3A89FD" stop-opacity="0.19"/>
<stop offset="1" stop-color="#3A89FD" stop-opacity="0"/>
</linearGradient>
</defs>
</svg>
