<svg width="588" height="596" viewBox="0 0 588 596" fill="none" xmlns="http://www.w3.org/2000/svg">
<rect y="267.671" width="267.671" height="80.3013" transform="rotate(-90 0 267.671)" fill="#1F43CF"/>
<rect x="80" y="350.086" width="82.0858" height="80.3013" transform="rotate(-90 80 350.086)" fill="#1F43CF"/>
<rect x="160" y="432.086" width="82.0858" height="80.3013" transform="rotate(-90 160 432.086)" fill="#1F43CF"/>
<rect x="259" y="164.086" width="82.0858" height="80.3013" transform="rotate(-90 259 164.086)" fill="#3A89FD"/>
<rect x="241" y="514.086" width="82.0858" height="80.3013" transform="rotate(-90 241 514.086)" fill="#1F43CF"/>
<rect y="596" width="82" height="241" transform="rotate(-90 0 596)" fill="#1F43CF"/>
<rect x="339" y="82" width="82" height="165" transform="rotate(-90 339 82)" fill="#1F43CF"/>
<rect x="424" y="298.945" width="82.0858" height="80.3013" transform="rotate(-90 424 298.945)" fill="#1F43CF"/>
<rect x="504" y="217" width="135" height="80" transform="rotate(-90 504 217)" fill="#1F43CF"/>
<circle cx="550.028" cy="262.028" r="37.0278" transform="rotate(-90 550.028 262.028)" fill="url(#paint0_linear_113_22)"/>
<circle cx="550.028" cy="262.028" r="16.0603" transform="rotate(-90 550.028 262.028)" stroke="#3A89FD" stroke-width="0.892236"/>
<circle cx="550.028" cy="262.028" r="8.47625" transform="rotate(-90 550.028 262.028)" fill="#3A89FD"/>
<circle cx="209.028" cy="299.028" r="37.0278" transform="rotate(-90 209.028 299.028)" fill="url(#paint1_linear_113_22)"/>
<circle cx="209.028" cy="299.028" r="16.0603" transform="rotate(-90 209.028 299.028)" stroke="#3A89FD" stroke-width="0.892236"/>
<circle cx="209.028" cy="299.028" r="8.47625" transform="rotate(-90 209.028 299.028)" fill="#3A89FD"/>
<rect x="424" y="407" width="80" height="189" fill="#1F43CF"/>
<rect x="104" y="55" width="44" height="11" fill="#B9D5FF"/>
<rect x="150" y="103" width="44" height="11" fill="#B9D5FF"/>
<rect x="126" y="198" width="44" height="11" fill="#B9D5FF"/>
<rect x="104" y="127" width="35" height="11" fill="#B9D5FF"/>
<rect x="150" y="127" width="32" height="11" fill="#B9D5FF"/>
<circle cx="110" cy="85" r="6" fill="#B9D5FF"/>
<circle cx="110" cy="108" r="6" fill="#B9D5FF"/>
<circle cx="110" cy="157" r="6" fill="#B9D5FF"/>
<circle cx="110" cy="180" r="6" fill="#B9D5FF"/>
<circle cx="133" cy="180" r="6" fill="#B9D5FF"/>
<circle cx="110" cy="203" r="6" fill="#B9D5FF"/>
<circle cx="133" cy="157" r="6" fill="#B9D5FF"/>
<circle cx="156" cy="157" r="6" fill="#B9D5FF"/>
<circle cx="133" cy="108" r="6" fill="#B9D5FF"/>
<circle cx="209" cy="108" r="6" fill="#B9D5FF"/>
<circle cx="164" cy="60" r="6" fill="#B9D5FF"/>
<rect x="534.177" y="575.96" width="30.336" height="9.8146" transform="rotate(-90 534.177 575.96)" fill="#B9D5FF"/>
<circle cx="538.353" cy="531.353" r="5.35342" transform="rotate(-90 538.353 531.353)" fill="#B9D5FF"/>
<circle cx="538.924" cy="590.239" r="5.35342" transform="rotate(-90 538.924 590.239)" fill="#B9D5FF"/>
<circle cx="559.444" cy="590.04" r="5.35342" transform="rotate(-90 559.444 590.04)" fill="#B9D5FF"/>
<circle cx="559.237" cy="568.627" r="5.35342" transform="rotate(-90 559.237 568.627)" fill="#B9D5FF"/>
<rect x="276" y="384" width="30" height="11" fill="#B9D5FF"/>
<rect x="276" y="408" width="45" height="11" fill="#B9D5FF"/>
<rect x="300" y="361" width="52" height="11" fill="#B9D5FF"/>
<circle cx="283" cy="366" r="6" fill="#B9D5FF"/>
<circle cx="260" cy="366" r="6" fill="#B9D5FF"/>
<circle cx="260" cy="389" r="6" fill="#B9D5FF"/>
<circle cx="260" cy="413" r="6" fill="#B9D5FF"/>
<defs>
<linearGradient id="paint0_linear_113_22" x1="526.384" y1="229.907" x2="579.918" y2="303.517" gradientUnits="userSpaceOnUse">
<stop stop-color="#3A89FD" stop-opacity="0.19"/>
<stop offset="1" stop-color="#3A89FD" stop-opacity="0"/>
</linearGradient>
<linearGradient id="paint1_linear_113_22" x1="185.384" y1="266.907" x2="238.918" y2="340.517" gradientUnits="userSpaceOnUse">
<stop stop-color="#3A89FD" stop-opacity="0.19"/>
<stop offset="1" stop-color="#3A89FD" stop-opacity="0"/>
</linearGradient>
</defs>
</svg>
