<svg width="150" height="35" viewBox="0 0 150 35" fill="none" xmlns="http://www.w3.org/2000/svg">
<path d="M58.9785 7.49849C62.148 7.49849 64.5814 8.06082 66.2786 9.18549C67.9758 10.2897 68.8244 12.1096 68.8244 14.6452C68.8244 17.2013 67.9656 19.0518 66.2479 20.197C64.5302 21.3216 62.0764 21.884 58.8865 21.884H57.3835V29H52.5986V8.0506C53.6415 7.84612 54.7457 7.70298 55.9112 7.62118C57.0768 7.53939 58.0992 7.49849 58.9785 7.49849ZM59.2852 11.578C58.9376 11.578 58.59 11.5882 58.2423 11.6086C57.9152 11.6291 57.6289 11.6495 57.3835 11.67V17.8045H58.8865C60.5428 17.8045 61.7901 17.5796 62.6285 17.1297C63.4669 16.6798 63.8861 15.8414 63.8861 14.6145C63.8861 14.0215 63.7736 13.5308 63.5487 13.1423C63.3442 12.7537 63.0375 12.447 62.6285 12.2221C62.24 11.9767 61.7595 11.8131 61.1869 11.7313C60.6144 11.6291 59.9805 11.578 59.2852 11.578ZM77.5975 25.81C78.0474 25.81 78.4768 25.7998 78.8857 25.7794C79.2947 25.7589 79.6219 25.7283 79.8673 25.6874V22.2214C79.6832 22.1805 79.4072 22.1396 79.0391 22.0987C78.671 22.0578 78.3336 22.0373 78.0269 22.0373C77.5975 22.0373 77.1885 22.068 76.8 22.1293C76.4319 22.1702 76.1048 22.2622 75.8185 22.4054C75.5322 22.5485 75.3073 22.7428 75.1437 22.9882C74.9801 23.2335 74.8983 23.5403 74.8983 23.9083C74.8983 24.624 75.1335 25.125 75.6038 25.4113C76.0945 25.6771 76.7591 25.81 77.5975 25.81ZM77.2294 12.4368C78.579 12.4368 79.7037 12.5901 80.6034 12.8969C81.5031 13.2036 82.2188 13.6432 82.7505 14.2158C83.3026 14.7884 83.6911 15.4836 83.9161 16.3015C84.141 17.1195 84.2534 18.0294 84.2534 19.0314V28.5399C83.5991 28.683 82.6891 28.8466 81.5236 29.0307C80.358 29.2352 78.9471 29.3374 77.2908 29.3374C76.2479 29.3374 75.297 29.2454 74.4382 29.0613C73.5998 28.8773 72.8739 28.5808 72.2605 28.1718C71.647 27.7424 71.1767 27.1903 70.8495 26.5155C70.5223 25.8407 70.3588 25.0126 70.3588 24.031C70.3588 23.0904 70.5428 22.2929 70.9109 21.6386C71.2994 20.9842 71.8106 20.4628 72.4445 20.0743C73.0784 19.6857 73.8043 19.4097 74.6222 19.2461C75.4402 19.0621 76.2888 18.9701 77.1681 18.9701C77.7611 18.9701 78.2825 19.0007 78.7324 19.0621C79.2027 19.103 79.581 19.1643 79.8673 19.2461V18.8167C79.8673 18.0396 79.6321 17.416 79.1618 16.9457C78.6915 16.4753 77.8735 16.2402 76.708 16.2402C75.9309 16.2402 75.1641 16.3015 74.4075 16.4242C73.6509 16.5265 72.9966 16.6798 72.4445 16.8843L71.8617 13.2036C72.1275 13.1218 72.4547 13.04 72.8432 12.9582C73.2522 12.856 73.6918 12.7742 74.1622 12.7128C74.6325 12.631 75.1232 12.5697 75.6344 12.5288C76.1661 12.4675 76.6978 12.4368 77.2294 12.4368ZM87.6193 20.9331C87.6193 19.7675 87.8033 18.6736 88.1714 17.6511C88.5599 16.6083 89.112 15.7085 89.8277 14.9519C90.5434 14.1749 91.4125 13.5614 92.4349 13.1116C93.4573 12.6617 94.6229 12.4368 95.9316 12.4368C96.7904 12.4368 97.5777 12.5186 98.2934 12.6822C99.0091 12.8253 99.7043 13.04 100.379 13.3263L99.4282 16.9763C98.9988 16.8127 98.5285 16.6696 98.0173 16.5469C97.5061 16.4242 96.9335 16.3629 96.2996 16.3629C94.95 16.3629 93.9378 16.7821 93.2631 17.6205C92.6087 18.4588 92.2815 19.5631 92.2815 20.9331C92.2815 22.3849 92.5883 23.5096 93.2017 24.3071C93.8356 25.1046 94.9296 25.5033 96.4837 25.5033C97.0358 25.5033 97.6288 25.4522 98.2627 25.35C98.8966 25.2477 99.4794 25.0841 100.011 24.8592L100.655 28.6013C100.123 28.8262 99.4589 29.0204 98.6614 29.184C97.8639 29.3476 96.9847 29.4294 96.0236 29.4294C94.5513 29.4294 93.2835 29.2147 92.2202 28.7853C91.1569 28.3354 90.2776 27.7322 89.5823 26.9756C88.9075 26.219 88.4066 25.3295 88.0794 24.3071C87.7727 23.2642 87.6193 22.1396 87.6193 20.9331Z" fill="#08207D"/>
<path d="M108.293 18.694C108.743 18.2032 109.203 17.692 109.673 17.1604C110.164 16.6287 110.634 16.1073 111.084 15.5961C111.534 15.0644 111.953 14.5634 112.341 14.0931C112.75 13.6228 113.098 13.2138 113.384 12.8662H118.813C117.73 14.1136 116.666 15.3098 115.623 16.4549C114.601 17.5796 113.476 18.7451 112.249 19.9516C112.863 20.5037 113.497 21.1683 114.151 21.9453C114.805 22.7019 115.439 23.4892 116.053 24.3071C116.666 25.125 117.229 25.943 117.74 26.7609C118.251 27.5788 118.68 28.3252 119.028 29H113.783C113.456 28.4683 113.078 27.8856 112.648 27.2517C112.239 26.5973 111.8 25.9532 111.329 25.3193C110.859 24.6649 110.358 24.0413 109.826 23.4483C109.315 22.8553 108.804 22.3543 108.293 21.9453V29H103.722V5.93419L108.293 5.19805V18.694ZM119.61 21.0558C119.61 19.6244 119.825 18.377 120.254 17.3137C120.704 16.23 121.287 15.3302 122.002 14.6145C122.718 13.8988 123.536 13.357 124.456 12.9889C125.397 12.6208 126.358 12.4368 127.339 12.4368C129.63 12.4368 131.439 13.1423 132.768 14.5532C134.098 15.9437 134.762 17.9988 134.762 20.7184C134.762 20.9842 134.752 21.2807 134.731 21.6079C134.711 21.9146 134.691 22.1907 134.67 22.4361H124.303C124.405 23.3767 124.845 24.1231 125.622 24.6752C126.399 25.2273 127.442 25.5033 128.75 25.5033C129.589 25.5033 130.407 25.4318 131.204 25.2886C132.022 25.125 132.687 24.9308 133.198 24.7058L133.811 28.4172C133.566 28.5399 133.239 28.6626 132.83 28.7853C132.421 28.908 131.961 29.0102 131.45 29.092C130.959 29.1943 130.427 29.2761 129.855 29.3374C129.282 29.3987 128.709 29.4294 128.137 29.4294C126.685 29.4294 125.417 29.2147 124.333 28.7853C123.27 28.3559 122.381 27.7731 121.665 27.037C120.97 26.2804 120.448 25.3909 120.101 24.3684C119.773 23.346 119.61 22.2418 119.61 21.0558ZM130.345 19.3075C130.325 18.9189 130.253 18.5406 130.131 18.1726C130.028 17.8045 129.855 17.4773 129.609 17.191C129.384 16.9048 129.088 16.6696 128.72 16.4856C128.372 16.3015 127.932 16.2095 127.401 16.2095C126.89 16.2095 126.45 16.3015 126.082 16.4856C125.714 16.6492 125.407 16.8741 125.162 17.1604C124.916 17.4466 124.722 17.784 124.579 18.1726C124.456 18.5406 124.364 18.9189 124.303 19.3075H130.345ZM148.012 16.915C147.603 16.8127 147.123 16.7105 146.571 16.6083C146.019 16.4856 145.426 16.4242 144.792 16.4242C144.505 16.4242 144.158 16.4549 143.749 16.5162C143.36 16.5571 143.064 16.6083 142.859 16.6696V29H138.289V13.725C139.107 13.4388 140.068 13.1729 141.172 12.9275C142.297 12.6617 143.544 12.5288 144.914 12.5288C145.16 12.5288 145.456 12.5493 145.804 12.5901C146.151 12.6106 146.499 12.6515 146.847 12.7128C147.194 12.7537 147.542 12.8151 147.89 12.8969C148.237 12.9582 148.534 13.04 148.779 13.1423L148.012 16.915Z" fill="#0047AF"/>
<path d="M14.6327 3.65191L1.48052 16.8041C0.66285 17.6218 0.662851 18.9475 1.48052 19.7651L4.1857 22.4703C5.00336 23.288 6.32906 23.288 7.14673 22.4703L20.2989 9.31813C21.1166 8.50046 21.1166 7.17476 20.2989 6.35709L17.5937 3.65191C16.7761 2.83425 15.4504 2.83425 14.6327 3.65191Z" fill="#3A89FB"/>
<path d="M12.7253 12.3717L4.86279 20.2343C4.05783 21.0392 4.05783 22.3443 4.86279 23.1493L9.29572 27.5822C10.1007 28.3872 11.4058 28.3872 12.2108 27.5822L20.0733 19.7197C20.8783 18.9147 20.8783 17.6096 20.0733 16.8046L15.6404 12.3717C14.8354 11.5667 13.5303 11.5667 12.7253 12.3717Z" fill="#3A89FB"/>
<path d="M9.89173 8.39422L1.27597 17.01C0.572622 17.7133 0.572621 18.8537 1.27597 19.557L4.39512 22.6762C5.09848 23.3795 6.23884 23.3795 6.94219 22.6762L15.5579 14.0604C16.2613 13.3571 16.2613 12.2167 15.5579 11.5134L12.4388 8.39422C11.7354 7.69087 10.5951 7.69087 9.89173 8.39422Z" fill="#1F43CF"/>
<path d="M7.48197 17.6146L4.55256 20.5441C3.91907 21.1776 3.91907 22.2046 4.55256 22.8381L9.60644 27.892C10.2399 28.5255 11.267 28.5255 11.9005 27.892L14.8299 24.9626C15.4634 24.3291 15.4634 23.302 14.8299 22.6685L9.77606 17.6146C9.14256 16.9812 8.11547 16.9812 7.48197 17.6146Z" fill="#1F43CF"/>
<path d="M28.0673 32.7928L41.2194 19.6407C42.0371 18.823 42.0371 17.4973 41.2194 16.6796L38.5143 13.9745C37.6966 13.1568 36.3709 13.1568 35.5532 13.9745L22.401 27.1266C21.5834 27.9443 21.5834 29.27 22.401 30.0877L25.1062 32.7928C25.9239 33.6105 27.2496 33.6105 28.0673 32.7928Z" fill="#1F43CF"/>
<path d="M29.9734 24.0725L37.8359 16.21C38.6409 15.405 38.6409 14.0999 37.8359 13.2949L33.403 8.86199C32.598 8.05703 31.2929 8.05703 30.488 8.86199L22.6254 16.7245C21.8204 17.5295 21.8204 18.8346 22.6254 19.6396L27.0583 24.0725C27.8633 24.8775 29.1684 24.8775 29.9734 24.0725Z" fill="#1F43CF"/>
<path d="M32.8072 28.0498L41.423 19.4341C42.1264 18.7307 42.1264 17.5903 41.423 16.887L38.3039 13.7678C37.6005 13.0645 36.4601 13.0645 35.7568 13.7678L27.141 22.3836C26.4377 23.0869 26.4377 24.2273 27.141 24.9307L30.2602 28.0498C30.9635 28.7532 32.1039 28.7532 32.8072 28.0498Z" fill="#3A89FD"/>
<path d="M35.2197 18.8259L38.1491 15.8965C38.7826 15.263 38.7826 14.2359 38.1491 13.6024L33.0952 8.54852C32.4617 7.91503 31.4346 7.91503 30.8011 8.54852L27.8717 11.4779C27.2382 12.1114 27.2382 13.1385 27.8717 13.772L32.9256 18.8259C33.5591 19.4594 34.5862 19.4594 35.2197 18.8259Z" fill="#3A89FD"/>
</svg>
