<svg width="150" height="35" viewBox="0 0 150 35" fill="none" xmlns="http://www.w3.org/2000/svg">
<path d="M58.9782 7.49849C62.1478 7.49849 64.5811 8.06082 66.2783 9.18549C67.9755 10.2897 68.8242 12.1096 68.8242 14.6452C68.8242 17.2013 67.9653 19.0518 66.2477 20.197C64.53 21.3216 62.0762 21.884 58.8862 21.884H57.3833V29H52.5983V8.0506C53.6412 7.84612 54.7454 7.70298 55.911 7.62118C57.0765 7.53939 58.099 7.49849 58.9782 7.49849ZM59.285 11.578C58.9373 11.578 58.5897 11.5882 58.2421 11.6086C57.9149 11.6291 57.6287 11.6495 57.3833 11.67V17.8045H58.8862C60.5426 17.8045 61.7899 17.5796 62.6283 17.1297C63.4667 16.6798 63.8859 15.8414 63.8859 14.6145C63.8859 14.0215 63.7734 13.5308 63.5485 13.1423C63.344 12.7537 63.0373 12.447 62.6283 12.2221C62.2398 11.9767 61.7592 11.8131 61.1867 11.7313C60.6141 11.6291 59.9802 11.578 59.285 11.578ZM77.5972 25.81C78.0471 25.81 78.4765 25.7998 78.8855 25.7794C79.2945 25.7589 79.6216 25.7283 79.867 25.6874V22.2214C79.683 22.1805 79.4069 22.1396 79.0389 22.0987C78.6708 22.0578 78.3334 22.0373 78.0267 22.0373C77.5972 22.0373 77.1883 22.068 76.7998 22.1293C76.4317 22.1702 76.1045 22.2622 75.8182 22.4054C75.532 22.5485 75.307 22.7428 75.1434 22.9882C74.9798 23.2335 74.8981 23.5403 74.8981 23.9083C74.8981 24.624 75.1332 25.125 75.6035 25.4113C76.0943 25.6771 76.7589 25.81 77.5972 25.81ZM77.2292 12.4368C78.5788 12.4368 79.7034 12.5901 80.6032 12.8969C81.5029 13.2036 82.2186 13.6432 82.7502 14.2158C83.3024 14.7884 83.6909 15.4836 83.9158 16.3015C84.1407 17.1195 84.2532 18.0294 84.2532 19.0314V28.5399C83.5989 28.683 82.6889 28.8466 81.5233 29.0307C80.3578 29.2352 78.9468 29.3374 77.2905 29.3374C76.2477 29.3374 75.2968 29.2454 74.438 29.0613C73.5996 28.8773 72.8737 28.5808 72.2602 28.1718C71.6468 27.7424 71.1764 27.1903 70.8493 26.5155C70.5221 25.8407 70.3585 25.0126 70.3585 24.031C70.3585 23.0904 70.5425 22.2929 70.9106 21.6386C71.2991 20.9842 71.8103 20.4628 72.4442 20.0743C73.0781 19.6857 73.8041 19.4097 74.622 19.2461C75.4399 19.0621 76.2885 18.9701 77.1678 18.9701C77.7608 18.9701 78.2823 19.0007 78.7321 19.0621C79.2024 19.103 79.5807 19.1643 79.867 19.2461V18.8167C79.867 18.0396 79.6319 17.416 79.1616 16.9457C78.6912 16.4753 77.8733 16.2402 76.7077 16.2402C75.9307 16.2402 75.1639 16.3015 74.4073 16.4242C73.6507 16.5265 72.9964 16.6798 72.4442 16.8843L71.8615 13.2036C72.1273 13.1218 72.4545 13.04 72.843 12.9582C73.252 12.856 73.6916 12.7742 74.1619 12.7128C74.6322 12.631 75.123 12.5697 75.6342 12.5288C76.1659 12.4675 76.6975 12.4368 77.2292 12.4368ZM87.619 20.9331C87.619 19.7675 87.8031 18.6736 88.1712 17.6511C88.5597 16.6083 89.1118 15.7085 89.8275 14.9519C90.5432 14.1749 91.4122 13.5614 92.4346 13.1116C93.4571 12.6617 94.6226 12.4368 95.9313 12.4368C96.7902 12.4368 97.5774 12.5186 98.2931 12.6822C99.0088 12.8253 99.7041 13.04 100.379 13.3263L99.428 16.9763C98.9986 16.8127 98.5283 16.6696 98.0171 16.5469C97.5059 16.4242 96.9333 16.3629 96.2994 16.3629C94.9498 16.3629 93.9376 16.7821 93.2628 17.6205C92.6085 18.4588 92.2813 19.5631 92.2813 20.9331C92.2813 22.3849 92.588 23.5096 93.2015 24.3071C93.8354 25.1046 94.9294 25.5033 96.4834 25.5033C97.0355 25.5033 97.6285 25.4522 98.2624 25.35C98.8963 25.2477 99.4791 25.0841 100.011 24.8592L100.655 28.6013C100.123 28.8262 99.4587 29.0204 98.6612 29.184C97.8637 29.3476 96.9844 29.4294 96.0233 29.4294C94.5511 29.4294 93.2833 29.2147 92.2199 28.7853C91.1566 28.3354 90.2773 27.7322 89.5821 26.9756C88.9073 26.219 88.4063 25.3295 88.0791 24.3071C87.7724 23.2642 87.619 22.1396 87.619 20.9331ZM108.292 18.694C108.742 18.2032 109.202 17.692 109.673 17.1604C110.163 16.6287 110.634 16.1073 111.084 15.5961C111.533 15.0644 111.953 14.5634 112.341 14.0931C112.75 13.6228 113.098 13.2138 113.384 12.8662H118.813C117.729 14.1136 116.666 15.3098 115.623 16.4549C114.601 17.5796 113.476 18.7451 112.249 19.9516C112.863 20.5037 113.497 21.1683 114.151 21.9453C114.805 22.7019 115.439 23.4892 116.053 24.3071C116.666 25.125 117.228 25.943 117.74 26.7609C118.251 27.5788 118.68 28.3252 119.028 29H113.783C113.456 28.4683 113.077 27.8856 112.648 27.2517C112.239 26.5973 111.799 25.9532 111.329 25.3193C110.859 24.6649 110.358 24.0413 109.826 23.4483C109.315 22.8553 108.804 22.3543 108.292 21.9453V29H103.722V5.93419L108.292 5.19805V18.694ZM119.61 21.0558C119.61 19.6244 119.824 18.377 120.254 17.3137C120.704 16.23 121.286 15.3302 122.002 14.6145C122.718 13.8988 123.536 13.357 124.456 12.9889C125.397 12.6208 126.358 12.4368 127.339 12.4368C129.629 12.4368 131.439 13.1423 132.768 14.5532C134.097 15.9437 134.762 17.9988 134.762 20.7184C134.762 20.9842 134.752 21.2807 134.731 21.6079C134.711 21.9146 134.69 22.1907 134.67 22.4361H124.303C124.405 23.3767 124.844 24.1231 125.621 24.6752C126.399 25.2273 127.441 25.5033 128.75 25.5033C129.588 25.5033 130.406 25.4318 131.204 25.2886C132.022 25.125 132.686 24.9308 133.198 24.7058L133.811 28.4172C133.566 28.5399 133.238 28.6626 132.83 28.7853C132.421 28.908 131.96 29.0102 131.449 29.092C130.959 29.1943 130.427 29.2761 129.854 29.3374C129.282 29.3987 128.709 29.4294 128.137 29.4294C126.685 29.4294 125.417 29.2147 124.333 28.7853C123.27 28.3559 122.38 27.7731 121.665 27.037C120.969 26.2804 120.448 25.3909 120.1 24.3684C119.773 23.346 119.61 22.2418 119.61 21.0558ZM130.345 19.3075C130.325 18.9189 130.253 18.5406 130.13 18.1726C130.028 17.8045 129.854 17.4773 129.609 17.191C129.384 16.9048 129.087 16.6696 128.719 16.4856C128.372 16.3015 127.932 16.2095 127.4 16.2095C126.889 16.2095 126.45 16.3015 126.082 16.4856C125.713 16.6492 125.407 16.8741 125.161 17.1604C124.916 17.4466 124.722 17.784 124.579 18.1726C124.456 18.5406 124.364 18.9189 124.303 19.3075H130.345ZM148.012 16.915C147.603 16.8127 147.122 16.7105 146.57 16.6083C146.018 16.4856 145.425 16.4242 144.791 16.4242C144.505 16.4242 144.157 16.4549 143.749 16.5162C143.36 16.5571 143.063 16.6083 142.859 16.6696V29H138.289V13.725C139.107 13.4388 140.068 13.1729 141.172 12.9275C142.297 12.6617 143.544 12.5288 144.914 12.5288C145.159 12.5288 145.456 12.5493 145.804 12.5901C146.151 12.6106 146.499 12.6515 146.846 12.7128C147.194 12.7537 147.542 12.8151 147.889 12.8969C148.237 12.9582 148.533 13.04 148.779 13.1423L148.012 16.915Z" fill="white"/>
<path d="M14.6322 3.65185L1.48003 16.804C0.662362 17.6217 0.662362 18.9474 1.48003 19.7651L4.18521 22.4702C5.00288 23.2879 6.32858 23.2879 7.14624 22.4702L20.2984 9.31807C21.1161 8.5004 21.1161 7.1747 20.2984 6.35703L17.5932 3.65185C16.7756 2.83419 15.4499 2.83419 14.6322 3.65185Z" fill="#C1DBFF"/>
<path d="M12.7249 12.3717L4.8623 20.2343C4.05734 21.0392 4.05734 22.3443 4.8623 23.1493L9.29523 27.5822C10.1002 28.3872 11.4053 28.3872 12.2103 27.5822L20.0728 19.7197C20.8778 18.9147 20.8778 17.6096 20.0728 16.8046L15.6399 12.3717C14.8349 11.5667 13.5298 11.5667 12.7249 12.3717Z" fill="#C1DBFF"/>
<path d="M9.89124 8.39416L1.27549 17.0099C0.572133 17.7133 0.572133 18.8536 1.27549 19.557L4.39463 22.6761C5.09799 23.3795 6.23835 23.3795 6.9417 22.6761L15.5575 14.0604C16.2608 13.357 16.2608 12.2167 15.5575 11.5133L12.4383 8.39416C11.7349 7.69081 10.5946 7.69081 9.89124 8.39416Z" fill="white"/>
<path d="M7.48124 17.6146L4.55183 20.544C3.91833 21.1775 3.91833 22.2046 4.55183 22.8381L9.60571 27.892C10.2392 28.5255 11.2663 28.5255 11.8998 27.892L14.8292 24.9626C15.4627 24.3291 15.4627 23.302 14.8292 22.6685L9.77532 17.6146C9.14183 16.9811 8.11473 16.9811 7.48124 17.6146Z" fill="white"/>
<path d="M28.067 32.7927L41.2192 19.6406C42.0369 18.8229 42.0369 17.4972 41.2192 16.6795L38.514 13.9743C37.6963 13.1567 36.3706 13.1567 35.553 13.9743L22.4008 27.1265C21.5831 27.9442 21.5831 29.2699 22.4008 30.0875L25.106 32.7927C25.9236 33.6104 27.2493 33.6104 28.067 32.7927Z" fill="white"/>
<path d="M29.9734 24.0725L37.8359 16.21C38.6409 15.405 38.6409 14.0999 37.8359 13.2949L33.403 8.86199C32.598 8.05703 31.2929 8.05703 30.488 8.86199L22.6254 16.7245C21.8204 17.5295 21.8204 18.8346 22.6254 19.6396L27.0583 24.0725C27.8633 24.8775 29.1684 24.8775 29.9734 24.0725Z" fill="white"/>
<path d="M32.8075 28.0498L41.4232 19.4341C42.1266 18.7307 42.1266 17.5903 41.4232 16.887L38.3041 13.7678C37.6007 13.0645 36.4604 13.0645 35.757 13.7678L27.1413 22.3836C26.4379 23.0869 26.4379 24.2273 27.1413 24.9307L30.2604 28.0498C30.9638 28.7532 32.1041 28.7532 32.8075 28.0498Z" fill="#C1DBFF"/>
<path d="M35.2194 18.826L38.1489 15.8966C38.7824 15.2631 38.7824 14.236 38.1489 13.6025L33.095 8.54859C32.4615 7.91509 31.4344 7.91509 30.8009 8.54859L27.8715 11.478C27.238 12.1115 27.238 13.1386 27.8715 13.7721L32.9254 18.826C33.5589 19.4595 34.5859 19.4595 35.2194 18.826Z" fill="#C1DBFF"/>
</svg>
