<svg width="580" height="616" viewBox="0 0 580 616" fill="none" xmlns="http://www.w3.org/2000/svg">
<rect x="12.4121" y="615.461" width="246.257" height="80.3013" transform="rotate(-90 12.4121 615.461)" fill="#1F43CF"/>
<rect x="283.819" y="365.671" width="267.671" height="80.3013" transform="rotate(-90 283.819 365.671)" fill="#1F43CF"/>
<rect x="334.418" y="614.224" width="82.0858" height="245.365" transform="rotate(-90 334.418 614.224)" fill="#1F43CF"/>
<rect x="253.305" y="531.042" width="82.0858" height="80.3013" transform="rotate(-90 253.305 531.042)" fill="#1F43CF"/>
<rect x="173.802" y="613.902" width="82.0858" height="80.3013" transform="rotate(-90 173.802 613.902)" fill="#3A89FD"/>
<rect x="172.204" y="448.846" width="82.0858" height="80.3013" transform="rotate(-90 172.204 448.846)" fill="#1F43CF"/>
<rect x="91.1118" y="367.541" width="82.0858" height="80.3013" transform="rotate(-90 91.1118 367.541)" fill="#1F43CF"/>
<rect x="401.676" y="280.66" width="82.0858" height="80.3013" transform="rotate(-90 401.676 280.66)" fill="#1F43CF"/>
<rect x="481.179" y="197.801" width="82.0858" height="80.3013" transform="rotate(-90 481.179 197.801)" fill="#1F43CF"/>
<rect x="420.713" y="504.166" width="39.2584" height="9.8146" transform="rotate(-90 420.713 504.166)" fill="#B9D5FF"/>
<rect x="463.541" y="463.123" width="39.2584" height="9.8146" transform="rotate(-90 463.541 463.123)" fill="#B9D5FF"/>
<rect x="548.303" y="484.537" width="39.2584" height="9.8146" transform="rotate(-90 548.303 484.537)" fill="#B9D5FF"/>
<rect x="484.954" y="504.166" width="31.2283" height="9.8146" transform="rotate(-90 484.954 504.166)" fill="#B9D5FF"/>
<rect x="484.954" y="463.123" width="28.5516" height="9.8146" transform="rotate(-90 484.954 463.123)" fill="#B9D5FF"/>
<circle cx="447.48" cy="498.812" r="5.35342" transform="rotate(-90 447.48 498.812)" fill="#B9D5FF"/>
<circle cx="468.001" cy="498.812" r="5.35342" transform="rotate(-90 468.001 498.812)" fill="#B9D5FF"/>
<circle cx="511.721" cy="498.812" r="5.35342" transform="rotate(-90 511.721 498.812)" fill="#B9D5FF"/>
<circle cx="532.242" cy="498.812" r="5.35342" transform="rotate(-90 532.242 498.812)" fill="#B9D5FF"/>
<circle cx="532.242" cy="478.291" r="5.35342" transform="rotate(-90 532.242 478.291)" fill="#B9D5FF"/>
<circle cx="552.764" cy="498.812" r="5.35342" transform="rotate(-90 552.764 498.812)" fill="#B9D5FF"/>
<circle cx="511.721" cy="478.291" r="5.35342" transform="rotate(-90 511.721 478.291)" fill="#B9D5FF"/>
<circle cx="511.721" cy="457.77" r="5.35342" transform="rotate(-90 511.721 457.77)" fill="#B9D5FF"/>
<circle cx="468.001" cy="478.291" r="5.35342" transform="rotate(-90 468.001 478.291)" fill="#B9D5FF"/>
<circle cx="468.001" cy="410.481" r="5.35342" transform="rotate(-90 468.001 410.481)" fill="#B9D5FF"/>
<circle cx="425.174" cy="450.632" r="5.35342" transform="rotate(-90 425.174 450.632)" fill="#B9D5FF"/>
<rect x="220.369" y="327.372" width="26.7671" height="9.8146" transform="rotate(-90 220.369 327.372)" fill="#B9D5FF"/>
<rect x="241.717" y="327.165" width="40.1506" height="9.8146" transform="rotate(-90 241.717 327.165)" fill="#B9D5FF"/>
<rect x="199.546" y="306.159" width="46.3963" height="9.8146" transform="rotate(-90 199.546 306.159)" fill="#B9D5FF"/>
<circle cx="204.379" cy="321.329" r="5.35342" transform="rotate(-90 204.379 321.329)" fill="#B9D5FF"/>
<circle cx="204.578" cy="341.85" r="5.35342" transform="rotate(-90 204.578 341.85)" fill="#B9D5FF"/>
<circle cx="225.099" cy="341.651" r="5.35342" transform="rotate(-90 225.099 341.651)" fill="#B9D5FF"/>
<circle cx="246.511" cy="341.444" r="5.35342" transform="rotate(-90 246.511 341.444)" fill="#B9D5FF"/>
<circle cx="37.0278" cy="316.257" r="37.0278" transform="rotate(-90 37.0278 316.257)" fill="url(#paint0_linear_113_21)"/>
<circle cx="37.0279" cy="316.257" r="16.0603" transform="rotate(-90 37.0279 316.257)" stroke="#3A89FD" stroke-width="0.892236"/>
<circle cx="37.028" cy="316.257" r="8.47625" transform="rotate(-90 37.028 316.257)" fill="#3A89FD"/>
<circle cx="433.366" cy="149.133" r="37.0278" transform="rotate(-90 433.366 149.133)" fill="url(#paint1_linear_113_21)"/>
<circle cx="433.366" cy="149.133" r="16.0603" transform="rotate(-90 433.366 149.133)" stroke="#3A89FD" stroke-width="0.892236"/>
<circle cx="433.366" cy="149.133" r="8.47625" transform="rotate(-90 433.366 149.133)" fill="#3A89FD"/>
<rect x="119.44" y="595.14" width="30.336" height="9.8146" transform="rotate(-90 119.44 595.14)" fill="#B9D5FF"/>
<circle cx="123.617" cy="550.534" r="5.35342" transform="rotate(-90 123.617 550.534)" fill="#B9D5FF"/>
<circle cx="124.187" cy="609.419" r="5.35342" transform="rotate(-90 124.187 609.419)" fill="#B9D5FF"/>
<circle cx="144.707" cy="609.221" r="5.35342" transform="rotate(-90 144.707 609.221)" fill="#B9D5FF"/>
<circle cx="144.5" cy="587.808" r="5.35342" transform="rotate(-90 144.5 587.808)" fill="#B9D5FF"/>
<rect x="99" width="92" height="90" fill="#1F43CF"/>
<rect x="7" y="90" width="92" height="90" fill="#1F43CF"/>
<defs>
<linearGradient id="paint0_linear_113_21" x1="13.3835" y1="284.137" x2="66.9177" y2="357.746" gradientUnits="userSpaceOnUse">
<stop stop-color="#3A89FD" stop-opacity="0.19"/>
<stop offset="1" stop-color="#3A89FD" stop-opacity="0"/>
</linearGradient>
<linearGradient id="paint1_linear_113_21" x1="409.722" y1="117.013" x2="463.256" y2="190.622" gradientUnits="userSpaceOnUse">
<stop stop-color="#3A89FD" stop-opacity="0.19"/>
<stop offset="1" stop-color="#3A89FD" stop-opacity="0"/>
</linearGradient>
</defs>
</svg>
