<svg width="342" height="342" viewBox="0 0 342 342" fill="none" xmlns="http://www.w3.org/2000/svg">
<path d="M88.8857 23.3107H23.1875V82.0868H88.8857V23.3107Z" fill="#FAFAFA"/>
<path d="M88.92 82.08C88.92 82.08 88.92 81.7038 88.92 80.9856C88.92 80.2674 88.92 79.214 88.92 77.8392C88.92 75.1032 88.92 71.0471 88.879 65.9102C88.879 55.6502 88.8379 40.9648 88.8037 23.297L88.9542 23.4475H23.2902L23.4612 23.2697C23.4612 44.6584 23.4612 64.7816 23.4612 82.0526L23.3107 81.8953L70.8282 81.9774L84.132 82.08H87.682H88.5985H87.6888H84.173L70.8008 82.121L23.1876 82.1963H23.0303V82.08C23.0303 64.809 23.0303 44.6857 23.0303 23.297V23.126H23.215H88.879H89.0294V23.2697C89.0294 40.9716 88.9679 55.6844 88.9542 65.9718C88.9542 71.095 88.92 75.1169 88.9132 77.8734C88.9132 79.2414 88.9132 80.2811 88.9132 80.9924C88.9132 81.7038 88.92 82.08 88.92 82.08Z" fill="#E0E0E0"/>
<path d="M48.3783 33.7554C48.3783 33.858 44.9173 33.9333 40.656 33.9333C36.3946 33.9333 32.9268 33.858 32.9268 33.7554C32.9268 33.6528 36.3878 33.5844 40.656 33.5844C44.9241 33.5844 48.3783 33.6597 48.3783 33.7554Z" fill="#E0E0E0"/>
<path d="M76.2176 38.1741C76.2176 38.2698 66.7168 38.3451 55.0136 38.3451C43.3103 38.3451 33.8096 38.2698 33.8096 38.1741C33.8096 38.0783 43.3035 37.9962 55.0136 37.9962C66.7236 37.9962 76.2176 38.0715 76.2176 38.1741Z" fill="#E0E0E0"/>
<path d="M35.8132 45.6501H33.043V48.4203H35.8132V45.6501Z" fill="#E0E0E0"/>
<path d="M42.6266 45.6501H39.8564V48.4203H42.6266V45.6501Z" fill="#E0E0E0"/>
<path d="M49.569 45.5201H46.7988V48.2903H49.569V45.5201Z" fill="#E0E0E0"/>
<path d="M56.2516 45.6501H53.4814V48.4203H56.2516V45.6501Z" fill="#E0E0E0"/>
<path d="M63.0641 45.6501H60.2939V48.4203H63.0641V45.6501Z" fill="#E0E0E0"/>
<path d="M69.8825 45.6501H67.1123V48.4203H69.8825V45.6501Z" fill="#E0E0E0"/>
<path d="M76.696 45.6501H73.9258V48.4203H76.696V45.6501Z" fill="#EBEBEB"/>
<path d="M35.8132 51.5325H33.043V54.3027H35.8132V51.5325Z" fill="#EBEBEB"/>
<path d="M42.6266 51.5325H39.8564V54.3027H42.6266V51.5325Z" fill="#E0E0E0"/>
<path d="M49.4382 51.5325H46.668V54.3027H49.4382V51.5325Z" fill="#EBEBEB"/>
<path d="M56.2516 51.5325H53.4814V54.3027H56.2516V51.5325Z" fill="#E0E0E0"/>
<path d="M63.0641 51.5325H60.2939V54.3027H63.0641V51.5325Z" fill="#E0E0E0"/>
<path d="M70.0055 51.4026H67.2354V54.1728H70.0055V51.4026Z" fill="#E0E0E0"/>
<path d="M76.696 51.5325H73.9258V54.3027H76.696V51.5325Z" fill="#E0E0E0"/>
<path d="M35.8132 57.4149H33.043V60.1851H35.8132V57.4149Z" fill="#E0E0E0"/>
<path d="M42.7565 57.2919H39.9863V60.0621H42.7565V57.2919Z" fill="#E0E0E0"/>
<path d="M49.4382 57.4149H46.668V60.1851H49.4382V57.4149Z" fill="#E0E0E0"/>
<path d="M56.2516 57.4149H53.4814V60.1851H56.2516V57.4149Z" fill="#EBEBEB"/>
<path d="M63.0641 57.4149H60.2939V60.1851H63.0641V57.4149Z" fill="#E0E0E0"/>
<path d="M69.8825 57.4149H67.1123V60.1851H69.8825V57.4149Z" fill="#E0E0E0"/>
<path d="M76.696 57.4149H73.9258V60.1851H76.696V57.4149Z" fill="#E0E0E0"/>
<path d="M35.8132 63.2974H33.043V66.0676H35.8132V63.2974Z" fill="#E0E0E0"/>
<path d="M42.6266 63.2974H39.8564V66.0676H42.6266V63.2974Z" fill="#E0E0E0"/>
<path d="M49.4382 63.2974H46.668V66.0676H49.4382V63.2974Z" fill="#E0E0E0"/>
<path d="M56.3825 63.1743H53.6123V65.9445H56.3825V63.1743Z" fill="#E0E0E0"/>
<path d="M63.0641 63.2974H60.2939V66.0676H63.0641V63.2974Z" fill="#E0E0E0"/>
<path d="M69.8825 63.2974H67.1123V66.0676H69.8825V63.2974Z" fill="#EBEBEB"/>
<path d="M76.696 63.2974H73.9258V66.0676H76.696V63.2974Z" fill="#E0E0E0"/>
<path d="M35.8132 69.1866H33.043V71.9568H35.8132V69.1866Z" fill="#E0E0E0"/>
<path d="M42.6266 69.1866H39.8564V71.9568H42.6266V69.1866Z" fill="#EBEBEB"/>
<path d="M49.4382 69.1866H46.668V71.9568H49.4382V69.1866Z" fill="#E0E0E0"/>
<path d="M56.2516 69.1866H53.4814V71.9568H56.2516V69.1866Z" fill="#E0E0E0"/>
<path d="M63.0641 69.1866H60.2939V71.9568H63.0641V69.1866Z" fill="#E0E0E0"/>
<path d="M70.0055 69.0567H67.2354V71.8269H70.0055V69.0567Z" fill="#E0E0E0"/>
<path d="M76.696 69.1866H73.9258V71.9568H76.696V69.1866Z" fill="#E0E0E0"/>
<path d="M321.822 24.5078H275.282V71.0471H321.822V24.5078Z" fill="white"/>
<path d="M321.823 71.0539C321.823 71.0539 321.823 70.9718 321.823 70.8282C321.823 70.6846 321.823 70.4588 321.823 70.1442C321.823 69.5696 321.823 68.7283 321.823 67.6408C321.823 65.4383 321.823 62.2372 321.782 58.1674C321.782 50.0209 321.734 38.4066 321.7 24.4735L321.857 24.6308H275.345L275.523 24.453C275.523 41.4983 275.523 57.4697 275.523 70.9992L275.372 70.8419L309.059 70.924L318.533 70.965H321.043H321.686H321.912H321.077H318.594L309.162 71.006L275.372 71.0813H275.215V70.9308C275.215 57.4013 275.215 41.4299 275.215 24.4188V24.241H275.393H321.905H322.062V24.3914C322.028 38.3656 322 50.0141 321.98 58.181C321.98 62.2372 321.98 65.4314 321.939 67.6202C321.939 68.701 321.939 69.5286 321.939 70.0963C321.939 70.3699 321.939 70.5751 321.939 70.7256C321.939 70.8761 321.823 71.0539 321.823 71.0539Z" fill="#E0E0E0"/>
<path d="M321.623 36.423C321.623 36.5187 311.247 36.6008 298.449 36.6008C285.652 36.6008 275.282 36.5187 275.282 36.423C275.282 36.3272 285.652 36.252 298.449 36.252C311.247 36.252 321.623 36.3272 321.623 36.423Z" fill="#E0E0E0"/>
<path d="M279.81 31.5461C280.539 31.5461 281.13 30.9551 281.13 30.226C281.13 29.4969 280.539 28.9059 279.81 28.9059C279.081 28.9059 278.49 29.4969 278.49 30.226C278.49 30.9551 279.081 31.5461 279.81 31.5461Z" fill="#E0E0E0"/>
<path d="M283.831 31.5461C284.56 31.5461 285.151 30.9551 285.151 30.226C285.151 29.4969 284.56 28.9059 283.831 28.9059C283.102 28.9059 282.511 29.4969 282.511 30.226C282.511 30.9551 283.102 31.5461 283.831 31.5461Z" fill="#E0E0E0"/>
<path d="M289.174 30.2259C289.174 30.487 289.097 30.7422 288.952 30.9593C288.807 31.1764 288.601 31.3456 288.359 31.4455C288.118 31.5454 287.853 31.5716 287.597 31.5207C287.341 31.4697 287.105 31.344 286.921 31.1594C286.736 30.9747 286.61 30.7395 286.56 30.4834C286.509 30.2274 286.535 29.9619 286.635 29.7207C286.735 29.4795 286.904 29.2733 287.121 29.1283C287.338 28.9832 287.593 28.9058 287.854 28.9058C288.028 28.9049 288.2 28.9384 288.361 29.0044C288.521 29.0704 288.667 29.1676 288.79 29.2904C288.913 29.4132 289.01 29.5591 289.076 29.7196C289.142 29.8802 289.175 30.0523 289.174 30.2259Z" fill="#E0E0E0"/>
<path d="M284.707 50.1098C286.796 50.1098 288.49 48.4163 288.49 46.3273C288.49 44.2382 286.796 42.5447 284.707 42.5447C282.618 42.5447 280.925 44.2382 280.925 46.3273C280.925 48.4163 282.618 50.1098 284.707 50.1098Z" fill="#EBEBEB"/>
<path d="M288.49 60.1919C288.49 60.9401 288.268 61.6714 287.852 62.2934C287.437 62.9154 286.846 63.4002 286.155 63.6865C285.464 63.9728 284.703 64.0477 283.969 63.9018C283.236 63.7558 282.562 63.3956 282.033 62.8666C281.504 62.3376 281.143 61.6636 280.997 60.9299C280.852 60.1961 280.926 59.4356 281.213 58.7444C281.499 58.0533 281.984 57.4625 282.606 57.0469C283.228 56.6313 283.959 56.4094 284.707 56.4094C285.711 56.4094 286.673 56.8079 287.382 57.5173C288.091 58.2267 288.49 59.1888 288.49 60.1919Z" fill="#EBEBEB"/>
<path d="M314.872 46.0195C314.872 46.1153 309.701 46.1974 303.319 46.1974C296.938 46.1974 291.767 46.1153 291.767 46.0195C291.767 45.9238 296.938 45.8417 303.319 45.8417C309.701 45.8417 314.872 45.9169 314.872 46.0195Z" fill="#E0E0E0"/>
<path d="M300.091 60.1441C297.36 60.3809 294.614 60.3809 291.883 60.1441C294.614 59.9074 297.36 59.9074 300.091 60.1441Z" fill="#E0E0E0"/>
<path d="M314.872 78.1264C322.975 78.1264 329.544 71.5576 329.544 63.4546C329.544 55.3516 322.975 48.7828 314.872 48.7828C306.769 48.7828 300.2 55.3516 300.2 63.4546C300.2 71.5576 306.769 78.1264 314.872 78.1264Z" fill="#E0E0E0"/>
<path d="M316.253 57.8869H314.885V68.7762H316.253V57.8869Z" fill="white"/>
<path d="M321.013 62.6475H310.124V64.0155H321.013V62.6475Z" fill="white"/>
<path d="M40.8285 186.78C48.2907 183.621 51.7797 175.012 48.6214 167.55C45.4631 160.087 36.8535 156.598 29.3913 159.757C21.9292 162.915 18.4402 171.525 21.5985 178.987C24.7568 186.449 33.3663 189.938 40.8285 186.78Z" fill="#E0E0E0"/>
<path d="M36.4901 167.703H35.1221V178.592H36.4901V167.703Z" fill="white"/>
<path d="M41.2516 172.464H30.3623V173.832H41.2516V172.464Z" fill="white"/>
<path d="M213.01 238.395H113.365V284.346H213.01V238.395Z" fill="#F5F5F5"/>
<path d="M210.671 282.184H115.643V240.809H210.671V282.184ZM116.279 281.562H209.987V241.452H116.279V281.562Z" fill="#E0E0E0"/>
<path d="M237.353 238.395H213.01V284.346H237.353V238.395Z" fill="#E0E0E0"/>
<path d="M115.957 253.614H210.349C210.382 253.614 210.413 253.601 210.436 253.577C210.459 253.554 210.472 253.523 210.472 253.49C210.472 253.458 210.459 253.426 210.436 253.403C210.413 253.38 210.382 253.367 210.349 253.367H115.957C115.924 253.367 115.893 253.38 115.87 253.403C115.847 253.426 115.834 253.458 115.834 253.49C115.834 253.523 115.847 253.554 115.87 253.577C115.893 253.601 115.924 253.614 115.957 253.614Z" fill="#E0E0E0"/>
<path d="M163.475 253.49C163.729 249.333 163.729 245.165 163.475 241.007C163.469 240.979 163.453 240.953 163.43 240.935C163.407 240.917 163.378 240.907 163.349 240.907C163.32 240.907 163.291 240.917 163.268 240.935C163.245 240.953 163.229 240.979 163.222 241.007C162.973 245.165 162.973 249.333 163.222 253.49C163.222 253.516 163.232 253.54 163.25 253.558C163.268 253.576 163.293 253.586 163.318 253.586C163.344 253.586 163.368 253.576 163.386 253.558C163.404 253.54 163.414 253.516 163.414 253.49H163.475Z" fill="#E0E0E0"/>
<path d="M188.851 247.246C188.851 247.5 188.776 247.748 188.634 247.96C188.493 248.171 188.292 248.336 188.057 248.434C187.822 248.531 187.564 248.556 187.314 248.507C187.065 248.457 186.836 248.335 186.656 248.155C186.476 247.975 186.354 247.746 186.304 247.496C186.254 247.247 186.28 246.988 186.377 246.753C186.475 246.518 186.639 246.318 186.851 246.176C187.062 246.035 187.311 245.96 187.565 245.96C187.906 245.96 188.233 246.095 188.474 246.336C188.716 246.577 188.851 246.904 188.851 247.246Z" fill="#E0E0E0"/>
<path d="M139.323 247.246C139.323 247.5 139.247 247.748 139.106 247.96C138.965 248.171 138.764 248.336 138.529 248.434C138.294 248.531 138.035 248.556 137.786 248.507C137.537 248.457 137.307 248.335 137.128 248.155C136.948 247.975 136.825 247.746 136.776 247.496C136.726 247.247 136.752 246.988 136.849 246.753C136.946 246.518 137.111 246.318 137.322 246.176C137.534 246.035 137.783 245.96 138.037 245.96C138.378 245.96 138.705 246.095 138.946 246.336C139.187 246.577 139.323 246.904 139.323 247.246Z" fill="#E0E0E0"/>
<path d="M164.426 261.5C164.426 261.754 164.351 262.003 164.21 262.214C164.068 262.426 163.867 262.591 163.633 262.688C163.398 262.785 163.139 262.811 162.89 262.761C162.64 262.712 162.411 262.589 162.231 262.409C162.051 262.229 161.929 262 161.879 261.751C161.83 261.501 161.855 261.243 161.952 261.008C162.05 260.773 162.215 260.572 162.426 260.431C162.637 260.29 162.886 260.214 163.14 260.214C163.481 260.214 163.809 260.35 164.05 260.591C164.291 260.832 164.426 261.159 164.426 261.5Z" fill="#E0E0E0"/>
<path d="M125.28 284.346L120.15 313.197H123.037L132.49 284.346H125.28Z" fill="#E0E0E0"/>
<path d="M205.956 284.346L210.245 313.245H207.359L198.74 284.346H205.956Z" fill="#E0E0E0"/>
<path d="M225.22 284.346L230.083 313.245H227.197L218.004 284.346H225.22Z" fill="#E0E0E0"/>
<path d="M164.337 274.503C164.337 274.757 164.262 275.006 164.12 275.218C163.979 275.43 163.777 275.594 163.542 275.692C163.307 275.789 163.048 275.814 162.798 275.764C162.549 275.713 162.319 275.59 162.14 275.41C161.96 275.229 161.838 274.999 161.79 274.75C161.741 274.5 161.767 274.241 161.865 274.006C161.964 273.771 162.13 273.571 162.342 273.43C162.554 273.29 162.804 273.216 163.058 273.217C163.398 273.219 163.724 273.355 163.963 273.596C164.203 273.837 164.337 274.163 164.337 274.503Z" fill="#E0E0E0"/>
<path d="M115.959 267.848H210.351C210.379 267.841 210.405 267.825 210.423 267.802C210.441 267.779 210.451 267.75 210.451 267.721C210.451 267.692 210.441 267.663 210.423 267.64C210.405 267.617 210.379 267.601 210.351 267.594H115.959C115.93 267.601 115.905 267.617 115.887 267.64C115.868 267.663 115.858 267.692 115.858 267.721C115.858 267.75 115.868 267.779 115.887 267.802C115.905 267.825 115.93 267.841 115.959 267.848Z" fill="#E0E0E0"/>
<path d="M315.619 313.327C315.619 313.422 248.724 313.505 166.22 313.505C83.7155 313.505 16.8066 313.422 16.8066 313.327C16.8066 313.231 83.6881 313.149 166.22 313.149C248.751 313.149 315.619 313.224 315.619 313.327Z" fill="#263238"/>
<path d="M264.263 47.0044H59.1387V227.731H264.263V47.0044Z" fill="white"/>
<path d="M264.263 157.039H59.1387V187.573H264.263V157.039Z" fill="white"/>
<path d="M264.263 122.108H59.1387V157.046H264.263V122.108Z" fill="#F5F5F5"/>
<path d="M264.263 192.566H59.1387V227.505H264.263V192.566Z" fill="#F5F5F5"/>
<path d="M182.99 132.983C182.99 133.086 158.797 133.168 128.954 133.168C99.111 133.168 74.918 133.086 74.918 132.983C74.918 132.881 99.1042 132.805 128.954 132.805C158.804 132.805 182.99 132.887 182.99 132.983Z" fill="#263238"/>
<path d="M120.548 142.71C120.548 142.806 110.288 142.888 97.5859 142.888C84.884 142.888 74.624 142.806 74.624 142.71C74.624 142.614 84.884 142.532 97.5859 142.532C110.288 142.532 120.548 142.614 120.548 142.71Z" fill="#263238"/>
<path d="M182.99 167.45C182.99 167.546 158.797 167.628 128.954 167.628C99.111 167.628 74.918 167.546 74.918 167.45C74.918 167.354 99.1042 167.272 128.954 167.272C158.804 167.272 182.99 167.347 182.99 167.45Z" fill="#263238"/>
<path d="M120.548 177.156C120.548 177.259 110.288 177.334 97.5859 177.334C84.884 177.334 74.624 177.259 74.624 177.156C74.624 177.053 84.884 176.978 97.5859 176.978C110.288 176.978 120.548 177.074 120.548 177.156Z" fill="#263238"/>
<path d="M182.99 201.91C182.99 202.006 158.797 202.088 128.954 202.088C99.111 202.088 74.918 202.006 74.918 201.91C74.918 201.814 99.1042 201.732 128.954 201.732C158.804 201.732 182.99 201.78 182.99 201.91Z" fill="#263238"/>
<path d="M120.548 211.63C120.548 211.732 110.288 211.807 97.5859 211.807C84.884 211.807 74.624 211.732 74.624 211.63C74.624 211.527 84.884 211.452 97.5859 211.452C110.288 211.452 120.548 211.534 120.548 211.63Z" fill="#263238"/>
<path d="M264.263 46.7787H59.1387V64.0223H264.263V46.7787Z" fill="#E0E0E0"/>
<path d="M264.263 62.3876H59.1387V79.6312H264.263V62.3876Z" fill="#F5F5F5"/>
<path d="M71.4839 54.8567C71.4799 55.285 71.3491 55.7024 71.1081 56.0564C70.8671 56.4104 70.5266 56.6851 70.1297 56.8459C69.7328 57.0067 69.2971 57.0463 68.8777 56.9598C68.4583 56.8732 68.0738 56.6644 67.7729 56.3597C67.472 56.055 67.2681 55.668 67.1868 55.2475C67.1056 54.827 67.1507 54.3919 67.3164 53.997C67.4822 53.6021 67.7611 53.2652 68.1182 53.0286C68.4752 52.7921 68.8942 52.6666 69.3225 52.6679C69.6086 52.6679 69.892 52.7247 70.156 52.835C70.42 52.9454 70.6595 53.107 70.8606 53.3106C71.0617 53.5142 71.2203 53.7558 71.3273 54.0212C71.4343 54.2866 71.4876 54.5706 71.4839 54.8567Z" fill="#263238"/>
<path d="M79.4322 54.8568C79.4281 55.2859 79.2967 55.7041 79.0548 56.0585C78.8129 56.4129 78.4712 56.6876 78.0731 56.8477C77.6749 57.0079 77.2382 57.0463 76.8183 56.958C76.3983 56.8698 76.014 56.659 75.7139 56.3522C75.4139 56.0454 75.2116 55.6565 75.1327 55.2347C75.0538 54.8129 75.1018 54.3772 75.2707 53.9827C75.4396 53.5882 75.7217 53.2527 76.0814 53.0187C76.4411 52.7846 76.8622 52.6626 77.2912 52.668C77.8651 52.6752 78.4127 52.9096 78.814 53.3199C79.2154 53.7302 79.4376 54.2829 79.4322 54.8568Z" fill="#263238"/>
<path d="M87.3736 54.8567C87.3695 55.2847 87.2389 55.7018 86.9982 56.0557C86.7575 56.4096 86.4175 56.6843 86.0209 56.8452C85.6244 57.0062 85.1891 57.0462 84.7698 56.9603C84.3506 56.8743 83.9662 56.6662 83.665 56.3622C83.3638 56.0581 83.1593 55.6717 83.0773 55.2517C82.9953 54.8317 83.0394 54.3968 83.2041 54.0018C83.3688 53.6067 83.6467 53.2693 84.0028 53.032C84.3589 52.7946 84.7773 52.6679 85.2053 52.6679C85.4918 52.6679 85.7754 52.7247 86.0398 52.8349C86.3042 52.9451 86.5442 53.1067 86.7458 53.3102C86.9474 53.5137 87.1067 53.7552 87.2145 54.0206C87.3222 54.2861 87.3763 54.5702 87.3736 54.8567Z" fill="#263238"/>
<path d="M264.304 227.772C264.304 226.623 264.263 157.32 264.202 46.8129L264.304 46.9497L59.2823 46.9907L59.4054 46.8129C59.4054 111.047 59.4054 172.224 59.4054 227.772L59.2891 227.608L264.325 227.772L59.2891 227.936H59.166V227.772C59.166 172.224 59.166 111.047 59.166 46.8129V46.6351H59.3097L264.332 46.6693H264.434V46.8129C264.339 157.32 264.304 226.589 264.304 227.772Z" fill="#263238"/>
<path d="M237.718 89.7955H189.167C186.988 89.7955 185.221 91.5625 185.221 93.7422V104.939C185.221 107.119 186.988 108.886 189.167 108.886H237.718C239.897 108.886 241.664 107.119 241.664 104.939V93.7422C241.664 91.5625 239.897 89.7955 237.718 89.7955Z" fill="#3A89FD"/>
<path d="M198.36 99.2347H197.136V100.445H196.568V99.2347H195.337V98.7012H196.568V97.4836H197.136V98.7012H198.36V99.2347Z" fill="white"/>
<path d="M204.386 100.144H201.869L201.349 101.328H200.665L202.806 96.6012H203.49L205.638 101.328H204.954L204.386 100.144ZM204.147 99.604L203.148 97.2852L202.129 99.604H204.147Z" fill="white"/>
<path d="M209.564 96.314V101.328H208.941V100.76C208.795 100.958 208.603 101.117 208.381 101.223C208.159 101.329 207.915 101.379 207.669 101.369C207.185 101.369 206.72 101.176 206.378 100.834C206.035 100.491 205.843 100.027 205.843 99.5424C205.843 99.0581 206.035 98.5936 206.378 98.2511C206.72 97.9086 207.185 97.7162 207.669 97.7162C207.907 97.7059 208.145 97.7527 208.361 97.8527C208.578 97.9526 208.767 98.1028 208.914 98.2907V96.314H209.564ZM208.921 99.5356C208.909 99.3002 208.828 99.0735 208.688 98.8837C208.548 98.6939 208.356 98.5492 208.135 98.4677C207.914 98.3861 207.674 98.3713 207.444 98.425C207.215 98.4788 207.006 98.5987 206.844 98.7699C206.682 98.9411 206.574 99.1561 206.533 99.3883C206.492 99.6204 206.52 99.8594 206.614 100.076C206.708 100.292 206.863 100.476 207.06 100.605C207.257 100.734 207.488 100.802 207.724 100.801C207.888 100.804 208.051 100.773 208.202 100.71C208.353 100.647 208.49 100.552 208.602 100.433C208.715 100.314 208.802 100.173 208.856 100.018C208.911 99.8635 208.933 99.6992 208.921 99.5356Z" fill="white"/>
<path d="M214.174 96.314V101.328H213.552V100.76C213.404 100.957 213.21 101.116 212.987 101.222C212.764 101.328 212.519 101.378 212.273 101.369C211.788 101.369 211.324 101.176 210.981 100.834C210.639 100.491 210.446 100.027 210.446 99.5424C210.446 99.0581 210.639 98.5936 210.981 98.2511C211.324 97.9086 211.788 97.7162 212.273 97.7162C212.512 97.7065 212.75 97.7535 212.967 97.8534C213.185 97.9532 213.376 98.1031 213.524 98.2907V96.314H214.174ZM213.531 99.5356C213.544 99.3694 213.522 99.2024 213.467 99.0451C213.412 98.8878 213.325 98.7436 213.212 98.6214C213.098 98.4992 212.961 98.4017 212.808 98.3351C212.655 98.2684 212.491 98.234 212.324 98.234C212.157 98.234 211.992 98.2684 211.84 98.3351C211.687 98.4017 211.55 98.4992 211.436 98.6214C211.323 98.7436 211.236 98.8878 211.181 99.0451C211.126 99.2024 211.104 99.3694 211.117 99.5356C211.104 99.7018 211.126 99.8688 211.181 100.026C211.236 100.183 211.323 100.328 211.436 100.45C211.55 100.572 211.687 100.67 211.84 100.736C211.992 100.803 212.157 100.837 212.324 100.837C212.491 100.837 212.655 100.803 212.808 100.736C212.961 100.67 213.098 100.572 213.212 100.45C213.325 100.328 213.412 100.183 213.467 100.026C213.522 99.8688 213.544 99.7018 213.531 99.5356Z" fill="white"/>
<path d="M218.257 97.1894H216.636V96.6012H220.541V97.1894H218.92V101.293H218.236L218.257 97.1894Z" fill="white"/>
<path d="M223.832 99.1799V101.341H223.223V100.869C223.084 101.045 222.904 101.183 222.699 101.272C222.494 101.362 222.27 101.4 222.047 101.382C221.233 101.382 220.72 100.951 220.72 100.329C220.72 99.7066 221.089 99.2825 222.163 99.2825H223.189V99.1525C223.189 98.6053 222.867 98.2907 222.225 98.2907C221.813 98.2854 221.413 98.4205 221.089 98.6737L220.822 98.1881C221.249 97.8732 221.77 97.7117 222.3 97.7298C223.278 97.7161 223.832 98.1881 223.832 99.1799ZM223.189 100.247V99.7476H222.183C221.547 99.7476 221.363 99.9939 221.363 100.302C221.363 100.609 221.664 100.883 222.156 100.883C222.375 100.897 222.592 100.842 222.778 100.726C222.963 100.609 223.107 100.437 223.189 100.233V100.247Z" fill="white"/>
<path d="M224.585 100.952L224.859 100.439C225.232 100.679 225.666 100.808 226.11 100.808C226.712 100.808 226.965 100.623 226.965 100.322C226.965 99.5151 224.701 100.213 224.701 98.7901C224.701 98.1471 225.276 97.7162 226.192 97.7162C226.649 97.7068 227.099 97.8177 227.499 98.0377L227.218 98.5507C226.909 98.3569 226.55 98.2593 226.186 98.2702C225.618 98.2702 225.344 98.4754 225.344 98.7627C225.344 99.604 227.615 98.9132 227.615 100.309C227.615 100.958 227.02 101.369 226.062 101.369C225.539 101.379 225.025 101.234 224.585 100.952Z" fill="white"/>
<path d="M229.824 99.6587L229.078 100.343V101.321H228.456V96.3071H229.106V99.5219L231.055 97.7435H231.842L230.337 99.221L231.992 101.321H231.192L229.824 99.6587Z" fill="white"/>
<path d="M81.7795 97.723H79.7275V96.5192H85.2953V97.723H83.2433V102.908H81.7659L81.7795 97.723Z" fill="#263238"/>
<path d="M89.9805 101.54H87.012L86.4511 102.908H84.9326L87.7781 96.5192H89.2418L92.0941 102.908H90.5483L89.9805 101.54ZM89.5154 100.418L88.5031 97.9692L87.4908 100.418H89.5154Z" fill="#263238"/>
<path d="M92.2578 102.279L92.764 101.164C93.3817 101.598 94.1157 101.836 94.8707 101.848C95.7462 101.848 96.1019 101.553 96.1019 101.164C96.1019 99.9734 92.3878 100.794 92.3878 98.4276C92.3878 97.34 93.2633 96.4372 95.0759 96.4372C95.8527 96.4198 96.6193 96.6162 97.2921 97.0049L96.8406 98.1266C96.3028 97.8108 95.6927 97.6389 95.0691 97.6273C94.1935 97.6273 93.8584 97.9556 93.8584 98.3523C93.8584 99.5288 97.5656 98.7217 97.5656 101.088C97.5656 102.155 96.6833 103.072 94.8296 103.072C93.912 103.073 93.0156 102.796 92.2578 102.279Z" fill="#263238"/>
<path d="M100.904 100.397L100.049 101.293V102.908H98.5781V96.5192H100.049V99.5014L102.88 96.5192H104.522L101.875 99.3646L104.673 102.908H102.949L100.904 100.397Z" fill="#263238"/>
<path d="M104.693 102.278L105.193 101.164C105.811 101.597 106.545 101.835 107.299 101.848C108.175 101.848 108.531 101.553 108.531 101.164C108.531 99.9734 104.823 100.794 104.823 98.4275C104.823 97.34 105.699 96.4371 107.511 96.4371C108.288 96.4215 109.054 96.6177 109.728 97.0048L109.269 98.1266C108.734 97.811 108.126 97.6391 107.505 97.6272C106.629 97.6272 106.287 97.9556 106.287 98.3523C106.287 99.5288 110.001 98.7216 110.001 101.088C110.001 102.155 109.119 103.072 107.265 103.072C106.347 103.073 105.451 102.797 104.693 102.278Z" fill="#263238"/>
<path d="M246.247 135.493H216.281C212.938 135.493 210.228 138.204 210.228 141.547V141.554C210.228 144.897 212.938 147.607 216.281 147.607H246.247C249.59 147.607 252.3 144.897 252.3 141.554V141.547C252.3 138.204 249.59 135.493 246.247 135.493Z" fill="#E0E0E0"/>
<path d="M246.24 182.58H216.281C215.486 182.58 214.699 182.424 213.964 182.119C213.23 181.815 212.563 181.369 212.001 180.807C211.438 180.245 210.993 179.578 210.688 178.843C210.384 178.109 210.228 177.322 210.228 176.527C210.228 174.921 210.865 173.381 212.001 172.246C213.136 171.111 214.675 170.473 216.281 170.473H246.24C247.035 170.473 247.822 170.63 248.557 170.934C249.291 171.238 249.958 171.684 250.521 172.246C251.083 172.808 251.529 173.476 251.833 174.21C252.137 174.945 252.294 175.732 252.294 176.527C252.294 177.322 252.137 178.109 251.833 178.843C251.529 179.578 251.083 180.245 250.521 180.807C249.958 181.369 249.291 181.815 248.557 182.119C247.822 182.424 247.035 182.58 246.24 182.58Z" fill="#EBEBEB"/>
<path d="M246.247 204.735H216.281C212.938 204.735 210.228 207.445 210.228 210.788V210.795C210.228 214.138 212.938 216.848 216.281 216.848H246.247C249.59 216.848 252.3 214.138 252.3 210.795V210.788C252.3 207.445 249.59 204.735 246.247 204.735Z" fill="#E0E0E0"/>
<path d="M54.0347 263.449C48.5627 265.372 41.3533 263.655 36.6474 260.214C31.9415 256.774 28.5557 251.856 25.5598 246.862C24.2739 244.728 23.029 242.512 22.6186 240.022C22.2082 237.533 22.8101 234.81 24.7116 233.182C27.6733 230.693 32.2356 231.951 35.5599 233.866C40.8 236.922 45.219 241.206 48.4361 246.349C51.6533 251.491 53.5723 257.339 54.0279 263.388" fill="#3A89FD"/>
<path d="M48.1186 276.616C44.8149 280.974 39.1377 282.916 33.6794 283.169C28.2211 283.422 22.8175 281.911 17.708 279.948C15.8543 279.264 13.8297 278.265 13.1936 276.384C12.9931 275.657 12.9769 274.892 13.1465 274.158C13.3161 273.423 13.6661 272.743 14.1649 272.177C15.1758 271.058 16.4399 270.197 17.8516 269.667C22.8722 267.526 28.6315 267.423 33.9188 268.798C39.2061 270.173 43.83 273.231 48.1186 276.616Z" fill="#3A89FD"/>
<path d="M54.1045 239.879C49.5559 239.975 46.1086 235.987 44.0429 231.924C41.1743 226.247 40.2148 219.797 41.3069 213.531C41.7241 211.199 42.5997 208.695 44.6859 207.573C46.7721 206.452 49.5559 207.184 51.3275 208.805C53.0991 210.426 54.0635 212.738 54.7475 215.029C57.1962 222.943 56.6695 232.033 54.0635 239.879" fill="#3A89FD"/>
<path d="M69.0828 265.07C61.3194 251.856 60.0267 235.658 64.6095 221.062C65.355 218.695 66.7572 215.98 69.2401 215.822C71.9761 215.645 73.7135 218.709 74.4727 221.356C77.1335 230.645 76.5658 240.508 75.9775 250.146C75.615 256.09 73.5767 261.165 69.0828 265.07Z" fill="#3A89FD"/>
<path d="M77.1416 270.501C78.5856 265.973 81.0278 261.828 84.2882 258.369C87.5485 254.911 91.5437 252.23 95.979 250.522C98.031 249.749 100.664 249.304 102.197 250.884C103.729 252.464 103.243 254.988 102.279 256.951C100.712 260.071 98.1746 262.574 95.6438 264.982C93.3456 267.17 90.9584 269.366 88.0514 270.638C85.1444 271.911 79.7955 272.239 77.1416 270.501Z" fill="#3A89FD"/>
<path d="M29.001 236.555C29.0408 236.602 29.0868 236.643 29.1378 236.678L29.555 236.999L31.1829 238.217L32.3663 239.092C32.7903 239.42 33.2349 239.776 33.7343 240.193C34.6919 240.994 35.8273 241.862 36.9696 242.929L38.8027 244.598C39.432 245.18 40.0476 245.836 40.7042 246.486C42.038 247.772 43.3308 249.27 44.7261 250.816C47.6542 254.266 50.3288 257.924 52.7289 261.76C55.0781 265.622 57.1468 269.647 58.9191 273.805C59.6784 275.741 60.4445 277.567 60.9711 279.339C61.2584 280.221 61.5731 281.056 61.8125 281.883L62.4965 284.264C62.9547 285.775 63.2215 287.177 63.5088 288.368C63.6456 288.976 63.7892 289.544 63.8918 290.071C63.9944 290.597 64.0697 291.083 64.1449 291.514C64.2954 292.362 64.4185 293.032 64.5074 293.518L64.61 294.038C64.6143 294.098 64.6306 294.156 64.6579 294.209C64.6656 294.15 64.6656 294.09 64.6579 294.031C64.6579 293.894 64.6169 293.716 64.5895 293.504C64.5211 293.019 64.4253 292.342 64.2954 291.493C64.2338 291.056 64.1586 290.57 64.0765 290.036C63.9944 289.503 63.8508 288.942 63.7277 288.326C63.4541 287.102 63.2078 285.686 62.7632 284.175C62.5512 283.409 62.3391 282.608 62.0792 281.774C61.8193 280.939 61.5389 280.098 61.2516 279.216C60.7112 277.437 59.9588 275.597 59.1996 273.648C57.4518 269.465 55.3941 265.418 53.0436 261.541C50.6333 257.696 47.9376 254.038 44.9792 250.597C43.6112 249.051 42.2432 247.553 40.9163 246.274C40.2323 245.624 39.6372 244.968 38.9942 244.393L37.1406 242.738C35.9846 241.664 34.8355 240.809 33.8574 240.002C33.3649 239.619 32.9135 239.243 32.4894 238.921L31.2855 238.073L29.6166 236.91L29.1788 236.616C29.0557 236.582 29.0078 236.548 29.001 236.555Z" fill="#263238"/>
<path d="M18.7207 273.183C18.9014 273.174 19.0804 273.144 19.2542 273.094C19.6031 273.032 20.1024 272.902 20.7659 272.793C22.6228 272.44 24.5011 272.212 26.3883 272.109C32.6266 271.757 38.8645 272.806 44.6443 275.18C50.4036 277.606 55.5457 281.291 59.6923 285.967C60.9474 287.38 62.1081 288.874 63.167 290.44C63.5501 290.987 63.81 291.439 64.0152 291.726C64.1093 291.88 64.2121 292.028 64.323 292.171C64.2568 292.003 64.1744 291.843 64.0767 291.692C63.8921 291.384 63.6527 290.919 63.2833 290.358C62.2567 288.755 61.1136 287.231 59.8633 285.796C55.7525 281.017 50.5803 277.267 44.7605 274.845C38.9406 272.423 32.6347 271.397 26.3473 271.849C24.4535 271.978 22.5718 272.248 20.718 272.656C20.034 272.786 19.562 272.943 19.2132 273.032C18.8643 273.121 18.7207 273.176 18.7207 273.183Z" fill="#263238"/>
<path d="M47.3946 212.847C47.3867 212.915 47.3867 212.984 47.3946 213.052L47.5177 213.647C47.634 214.195 47.805 214.954 48.0238 215.925C48.4753 217.895 49.1524 220.747 50.0143 224.263C51.7243 231.295 54.2072 240.98 56.7996 251.712C58.0855 257.088 59.2483 262.218 60.2196 266.89C61.1908 271.562 62.0458 275.782 62.6683 279.366C63.0034 281.138 63.2565 282.786 63.4959 284.154C63.7353 285.522 63.9268 286.794 64.0705 287.793C64.2141 288.792 64.3441 289.544 64.433 290.098C64.474 290.344 64.5082 290.543 64.5356 290.693C64.5402 290.764 64.5563 290.833 64.5835 290.898C64.5911 290.83 64.5911 290.761 64.5835 290.693C64.5835 290.536 64.5424 290.337 64.5151 290.084L64.2962 287.793C64.1731 286.787 64.0021 285.563 63.7764 284.14C63.5506 282.718 63.3249 281.103 63.0034 279.318C62.4152 275.748 61.6354 271.514 60.63 266.821C59.6245 262.129 58.489 257.006 57.21 251.63C54.6176 240.891 52.0936 231.219 50.3152 224.201C49.4329 220.713 48.7215 217.874 48.2154 215.891C47.976 214.926 47.7776 214.174 47.6408 213.634C47.5792 213.387 47.5245 213.196 47.4835 213.045C47.4603 212.977 47.4305 212.91 47.3946 212.847Z" fill="#263238"/>
<path d="M65.2263 289.852C65.2474 289.801 65.2635 289.748 65.2742 289.694C65.2742 289.564 65.3357 289.407 65.3836 289.216C65.4725 288.771 65.6025 288.155 65.7666 287.376C66.095 285.782 66.5259 283.463 67.0252 280.584C68.0238 274.838 69.2003 266.849 69.9254 257.97C70.281 253.531 70.4726 249.291 70.5615 245.433C70.6504 241.575 70.5615 238.093 70.4726 235.173C70.4726 233.716 70.3358 232.396 70.2742 231.24C70.2126 230.084 70.1374 229.085 70.0622 228.271C69.9869 227.457 69.9322 226.862 69.8843 226.404C69.8843 226.206 69.8843 226.048 69.8296 225.918C69.8368 225.864 69.8368 225.809 69.8296 225.754C69.822 225.809 69.822 225.864 69.8296 225.918C69.8296 226.055 69.8296 226.212 69.8296 226.411C69.8296 226.869 69.8843 227.491 69.9322 228.285C69.9801 229.078 70.0416 230.091 70.0827 231.253C70.1237 232.416 70.2058 233.723 70.2263 235.18C70.3152 238.093 70.3221 241.568 70.2263 245.44C70.1306 249.311 69.9117 253.525 69.5423 257.957C68.8173 266.849 67.6818 274.804 66.7516 280.529C66.2865 283.408 65.8898 285.734 65.6025 287.369C65.4725 288.149 65.3631 288.737 65.2878 289.216C65.2878 289.414 65.2331 289.571 65.2126 289.701C65.2081 289.752 65.2127 289.803 65.2263 289.852Z" fill="#263238"/>
<path d="M64.6523 291.534C64.7298 291.387 64.7961 291.234 64.8507 291.076L65.3637 289.749L65.7262 288.785C65.8835 288.443 66.0477 288.067 66.2255 287.67C66.4034 287.273 66.5949 286.842 66.7933 286.384C66.9916 285.926 67.2584 285.474 67.4773 284.982L68.2707 283.436L69.2146 281.815C69.8371 280.679 70.6442 279.544 71.4171 278.313C73.2342 275.721 75.1958 273.235 77.2927 270.864C79.4132 268.512 81.6528 266.27 84.0027 264.147C85.1245 263.203 86.1436 262.266 87.1765 261.473L88.6471 260.303L90.0151 259.277C90.8906 258.593 91.7251 258.046 92.4501 257.56C93.1752 257.074 93.8181 256.644 94.3311 256.329L95.5349 255.563C95.6813 255.481 95.8188 255.385 95.9454 255.276C95.7899 255.336 95.641 255.411 95.5007 255.501L94.2627 256.185C93.7155 256.486 93.0725 256.869 92.3407 257.369C91.6088 257.868 90.7538 258.388 89.8646 259.044L88.4487 260.057L86.9576 261.22C85.9179 261.999 84.9056 262.936 83.7565 263.873C81.3815 265.991 79.1233 268.235 76.9917 270.597C74.8926 272.985 72.9396 275.498 71.1435 278.121C70.3637 279.366 69.5635 280.508 68.9479 281.664L68.0176 283.306L67.2447 284.865C67.0053 285.365 66.7522 285.83 66.5607 286.288C66.3692 286.746 66.1845 287.184 66.0135 287.588C65.8425 287.991 65.6852 288.374 65.5415 288.723C65.3979 289.072 65.3021 289.407 65.1995 289.701C65.0149 290.255 64.8712 290.707 64.7549 291.069C64.7051 291.22 64.6708 291.376 64.6523 291.534Z" fill="#263238"/>
<path d="M31.8818 251.883C31.8818 251.938 32.8258 251.938 34.3374 252.027C36.3039 252.13 38.2619 252.358 40.1993 252.711C42.1329 253.086 44.0406 253.584 45.9107 254.202C46.6748 254.496 47.4532 254.752 48.2431 254.968C48.066 254.835 47.87 254.729 47.6617 254.653C47.2787 254.469 46.711 254.229 45.9928 253.969C44.132 253.285 42.2168 252.759 40.2677 252.396C38.3142 252.024 36.3325 251.821 34.3442 251.787C33.585 251.787 32.9762 251.787 32.5385 251.821C32.3177 251.808 32.0963 251.829 31.8818 251.883Z" fill="#263238"/>
<path d="M26.0264 280.488C26.8764 278.744 27.9502 277.118 29.2206 275.652C31.3958 273.278 33.8582 272.232 33.7898 272.109C33.2343 272.257 32.7041 272.488 32.2166 272.793C31.0062 273.493 29.9067 274.369 28.9539 275.392C28.0042 276.407 27.2133 277.56 26.6078 278.812C26.3204 279.334 26.1238 279.9 26.0264 280.488Z" fill="#263238"/>
<path d="M45.9979 223.579C45.9227 223.654 47.3659 225.07 48.9118 226.999C50.4576 228.928 51.5794 230.597 51.6478 230.542C51.0083 229.171 50.1743 227.899 49.1717 226.767C48.2728 225.557 47.2038 224.483 45.9979 223.579Z" fill="#263238"/>
<path d="M50.6911 215.46C50.0951 217.474 49.7415 219.552 49.6377 221.65C49.979 220.657 50.2084 219.63 50.3217 218.586C50.564 217.561 50.688 216.513 50.6911 215.46Z" fill="#263238"/>
<path d="M65.2109 240.898C65.8596 242.543 66.6183 244.143 67.4818 245.686C68.242 247.28 69.1104 248.82 70.081 250.296C69.4343 248.65 68.6756 247.05 67.8101 245.508C67.05 243.914 66.1816 242.373 65.2109 240.898Z" fill="#263238"/>
<path d="M73.8712 232.266C73.125 233.359 72.4794 234.517 71.9424 235.727C71.2994 236.881 70.7658 238.092 70.3486 239.345C71.0951 238.256 71.7386 237.1 72.2707 235.891C72.9162 234.735 73.452 233.522 73.8712 232.266Z" fill="#263238"/>
<path d="M86.5596 261.78C86.5596 261.883 88.1259 261.589 90.048 261.452C91.97 261.315 93.5432 261.391 93.5501 261.288C92.3972 261.012 91.2041 260.944 90.0274 261.09C88.8402 261.117 87.6668 261.351 86.5596 261.78Z" fill="#263238"/>
<path d="M77.8882 287.875L73.5653 310.604C73.4267 311.334 73.0379 311.992 72.466 312.465C71.8941 312.938 71.1749 313.197 70.4326 313.197H57.6691C56.9146 313.197 56.1843 312.93 55.6082 312.443C55.032 311.956 54.6474 311.28 54.5227 310.536L50.7676 287.875H77.8882Z" fill="#263238"/>
<path d="M76.486 295.262H52.0603L50.7676 287.875H77.8882L76.486 295.262Z" fill="#455A64"/>
<path d="M76.4842 295.262L75.9712 297.957H52.4348L52.0586 295.262H76.4842Z" fill="#FAFAFA"/>
<path d="M264.824 292.629L265.364 305.871C265.364 305.871 252.081 310.871 251.944 313.327L277.663 313.204V292.533L264.824 292.629Z" fill="#263238"/>
<path d="M273.313 304.722C273.561 304.797 273.772 304.96 273.907 305.181C274.042 305.402 274.091 305.664 274.045 305.919C273.977 306.168 273.817 306.382 273.598 306.518C273.378 306.654 273.115 306.701 272.862 306.651C272.6 306.573 272.376 306.4 272.234 306.166C272.093 305.932 272.043 305.654 272.095 305.385C272.188 305.129 272.378 304.92 272.624 304.802C272.869 304.685 273.151 304.668 273.409 304.756" fill="#E0E0E0"/>
<path d="M277.662 313.204L277.58 311.152L252.956 312.048C252.956 312.048 251.814 312.554 251.944 313.361L277.662 313.204Z" fill="#455A64"/>
<path d="M264.948 305.748C264.948 305.871 265.577 305.926 266.2 306.322C266.822 306.719 267.15 307.253 267.267 307.205C267.383 307.157 267.191 306.425 266.432 305.953C265.673 305.481 264.921 305.632 264.948 305.748Z" fill="white"/>
<path d="M262.252 306.87C262.252 306.993 262.772 307.205 263.203 307.732C263.634 308.258 263.757 308.826 263.887 308.819C264.017 308.812 264.085 308.101 263.545 307.451C263.004 306.801 262.259 306.753 262.252 306.87Z" fill="white"/>
<path d="M260.739 310.105C260.849 310.105 261.02 309.503 260.698 308.819C260.377 308.135 259.782 307.862 259.727 307.971C259.672 308.08 260.042 308.436 260.302 309.004C260.562 309.572 260.603 310.098 260.739 310.105Z" fill="white"/>
<path d="M265.159 302.711C265.213 302.827 265.788 302.649 266.527 302.711C267.265 302.773 267.785 302.978 267.854 302.868C267.922 302.759 267.382 302.314 266.547 302.273C265.713 302.232 265.097 302.615 265.159 302.711Z" fill="white"/>
<path d="M304.38 295.714L307.718 311.398L306.781 324.565C306.765 324.789 306.795 325.015 306.87 325.227C306.945 325.439 307.063 325.634 307.216 325.799C307.369 325.964 307.555 326.095 307.761 326.186C307.968 326.276 308.19 326.322 308.415 326.323C308.676 326.323 308.933 326.261 309.165 326.142C309.397 326.023 309.597 325.85 309.749 325.639C311.719 322.903 318.915 312.691 318.641 311.555C318.279 310.242 316.22 294.777 316.22 294.777L304.38 295.714Z" fill="#263238"/>
<path d="M308.408 326.323L318.395 310.488L318.525 311.172C318.636 311.748 318.536 312.346 318.244 312.855C317.464 314.223 315.235 317.944 309.79 325.645C309.634 325.862 309.429 326.037 309.19 326.157C308.952 326.276 308.688 326.335 308.422 326.329L308.408 326.323Z" fill="#455A64"/>
<g opacity="0.6">
<path d="M314.202 306.015C314.04 306.198 313.95 306.434 313.95 306.678C313.95 306.923 314.04 307.159 314.202 307.342C314.375 307.517 314.609 307.619 314.854 307.626C315.1 307.634 315.339 307.547 315.523 307.383C315.697 307.189 315.793 306.938 315.793 306.678C315.793 306.418 315.697 306.167 315.523 305.974C315.323 305.814 315.07 305.738 314.815 305.759C314.561 305.781 314.325 305.899 314.155 306.09" fill="white"/>
</g>
<path d="M310.707 318.744C310.234 318.325 309.686 317.998 309.093 317.779C308.471 317.665 307.834 317.665 307.212 317.779C307.212 317.745 307.369 317.588 307.732 317.465C308.207 317.325 308.713 317.325 309.189 317.465C309.668 317.597 310.1 317.862 310.434 318.231C310.673 318.511 310.741 318.744 310.707 318.744Z" fill="white"/>
<path d="M309.982 321.076C309.482 320.912 308.973 320.775 308.457 320.666C307.931 320.669 307.406 320.698 306.884 320.755C307.348 320.414 307.922 320.258 308.495 320.318C309.068 320.377 309.598 320.648 309.982 321.076Z" fill="white"/>
<path d="M312.286 315.659C310.826 314.901 309.176 314.587 307.539 314.756C308.334 314.44 309.203 314.357 310.044 314.517C310.885 314.677 311.663 315.073 312.286 315.659Z" fill="white"/>
<path d="M311.671 310.803C311.671 310.905 310.707 310.707 309.565 310.885C308.422 311.063 307.581 311.494 307.513 311.405C308.086 310.941 308.773 310.641 309.503 310.535C310.232 310.429 310.976 310.522 311.658 310.803H311.671Z" fill="white"/>
<path d="M310.81 306.179C310.082 306.076 309.343 306.076 308.614 306.179C307.912 306.393 307.243 306.701 306.624 307.095C306.624 307.095 306.727 306.836 307.048 306.562C307.48 306.204 307.991 305.955 308.539 305.837C309.083 305.708 309.65 305.708 310.195 305.837C310.605 305.987 310.824 306.138 310.81 306.179Z" fill="white"/>
<path d="M308.484 305.31C308.395 305.127 308.348 304.926 308.347 304.722C308.297 304.164 308.358 303.601 308.525 303.067C308.617 302.668 308.835 302.311 309.147 302.047C309.26 301.972 309.392 301.932 309.527 301.932C309.662 301.932 309.794 301.972 309.907 302.047C310.117 302.218 310.255 302.463 310.29 302.731C310.353 303.267 310.228 303.808 309.936 304.261C309.644 304.714 309.203 305.051 308.689 305.214C308.178 305.367 307.633 305.364 307.124 305.206C306.614 305.048 306.164 304.741 305.83 304.325C305.746 304.22 305.685 304.097 305.652 303.966C305.619 303.835 305.614 303.699 305.638 303.566C305.683 303.439 305.763 303.328 305.87 303.246C305.977 303.164 306.106 303.116 306.24 303.108C306.645 303.117 307.039 303.235 307.383 303.45C307.874 303.711 308.316 304.056 308.689 304.469C308.838 304.61 308.957 304.78 309.038 304.968C308.514 304.453 307.92 304.016 307.273 303.669C306.964 303.5 306.62 303.406 306.268 303.395C306.193 303.396 306.121 303.422 306.062 303.467C306.003 303.513 305.96 303.576 305.939 303.648C305.93 303.735 305.939 303.824 305.967 303.907C305.994 303.991 306.038 304.068 306.097 304.134C306.396 304.484 306.79 304.741 307.232 304.874C307.673 305.006 308.144 305.008 308.586 304.879C309.013 304.73 309.379 304.444 309.626 304.065C309.873 303.687 309.989 303.237 309.954 302.786C309.93 302.603 309.84 302.436 309.701 302.314C309.641 302.269 309.568 302.245 309.493 302.245C309.418 302.245 309.344 302.269 309.284 302.314C309.02 302.537 308.832 302.835 308.744 303.169C308.535 303.863 308.447 304.587 308.484 305.31Z" fill="white"/>
<path d="M255.358 184.933C255.358 184.933 255.248 191.91 255.714 200.918C255.891 204.407 263.238 301.37 263.238 301.37L279.093 301.767L276.911 211.144L279.647 211.828C279.647 211.828 287.998 242.047 289.818 248.962C291.979 257.17 303.614 303.833 303.614 303.833L318.108 304.366L308.573 249.708L300.345 197.676L298.696 182.546L255.358 184.933Z" fill="#455A64"/>
<path d="M279.647 201.978C279.434 202.124 279.204 202.243 278.963 202.334C278.335 202.633 277.67 202.846 276.986 202.97C276.502 203.058 276.006 203.058 275.522 202.97C274.954 202.863 274.43 202.595 274.011 202.197C273.579 201.736 273.275 201.17 273.128 200.556C272.957 199.933 272.868 199.29 272.752 198.64C272.307 196.014 272.027 193.62 271.87 191.883C271.794 191.014 271.747 190.309 271.719 189.831C271.693 189.578 271.693 189.324 271.719 189.071C271.793 189.313 271.837 189.564 271.849 189.817C271.918 190.371 272.006 191.055 272.109 191.869C272.321 193.599 272.643 195.973 273.08 198.593C273.306 199.892 273.45 201.205 274.229 202.013C274.599 202.339 275.036 202.578 275.509 202.714C275.982 202.85 276.48 202.879 276.965 202.799C277.637 202.697 278.296 202.52 278.929 202.272C279.155 202.146 279.396 202.047 279.647 201.978Z" fill="#263238"/>
<path d="M275.18 189.577C275.18 189.577 275.282 189.502 275.508 189.488C275.826 189.493 276.133 189.601 276.383 189.796C276.578 189.941 276.738 190.129 276.849 190.344C276.96 190.56 277.021 190.798 277.026 191.041C277 191.347 276.886 191.638 276.697 191.88C276.509 192.121 276.254 192.303 275.964 192.402C275.674 192.501 275.361 192.514 275.064 192.439C274.767 192.364 274.498 192.204 274.29 191.978C274.146 191.785 274.046 191.562 274 191.325C273.954 191.088 273.962 190.844 274.024 190.61C274.095 190.297 274.274 190.018 274.53 189.824C274.708 189.687 274.831 189.673 274.838 189.687C274.544 189.94 274.34 190.28 274.256 190.658C274.217 190.854 274.222 191.055 274.269 191.249C274.316 191.443 274.405 191.624 274.53 191.78C274.694 191.952 274.907 192.071 275.14 192.121C275.373 192.171 275.615 192.15 275.836 192.06C276.065 191.995 276.268 191.862 276.419 191.679C276.571 191.496 276.663 191.271 276.684 191.034C276.686 190.834 276.645 190.637 276.562 190.455C276.479 190.273 276.358 190.111 276.206 189.981C275.914 189.744 275.555 189.603 275.18 189.577Z" fill="#263238"/>
<path d="M300.146 196.739C299.971 196.794 299.789 196.82 299.606 196.814C299.109 196.847 298.611 196.847 298.114 196.814C294.816 196.525 291.717 195.115 289.332 192.82C288.972 192.475 288.638 192.105 288.333 191.711C288.21 191.576 288.106 191.424 288.025 191.26C288.073 191.226 288.566 191.821 289.496 192.628C290.706 193.694 292.065 194.577 293.532 195.248C295.005 195.907 296.568 196.342 298.169 196.54C299.373 196.705 300.146 196.677 300.146 196.739Z" fill="#263238"/>
<path d="M261.753 189.536C261.597 190.085 261.387 190.617 261.124 191.123C260.564 192.308 259.876 193.427 259.072 194.461C258.336 195.423 257.481 196.287 256.527 197.033C256.173 197.344 255.771 197.596 255.337 197.779C255.686 197.443 256.053 197.128 256.438 196.835C257.345 196.045 258.174 195.17 258.914 194.222C259.688 193.205 260.375 192.125 260.966 190.993C261.459 190.097 261.719 189.509 261.753 189.536Z" fill="#263238"/>
<path d="M270.863 89.3235C271.104 86.2387 272.497 83.3575 274.766 81.2535C277.035 79.1495 280.013 77.9769 283.107 77.9691H283.743C290.617 78.3522 294.133 84.4056 293.558 91.2661L292.067 112.6L279.817 125.336L276.684 117.723V112.655C276.684 112.655 270.077 111.642 269.974 105.042C269.96 101.848 270.398 95.2675 270.863 89.3235Z" fill="#FFBE9D"/>
<path d="M276.664 112.648C279.73 112.65 282.733 111.774 285.317 110.124C285.317 110.124 283.265 114.912 276.698 114.303L276.664 112.648Z" fill="#EB996E"/>
<path d="M272.629 94.8297C272.629 95.0743 272.724 95.3093 272.893 95.4854C273.063 95.6614 273.294 95.7648 273.539 95.7737C273.658 95.7829 273.779 95.7683 273.893 95.7305C274.007 95.6927 274.112 95.6325 274.202 95.5536C274.293 95.4746 274.367 95.3783 274.419 95.2705C274.472 95.1627 274.503 95.0454 274.51 94.9255C274.514 94.6793 274.42 94.4415 274.25 94.2636C274.08 94.0857 273.846 93.9819 273.6 93.9747C273.48 93.9654 273.359 93.9803 273.245 94.0186C273.13 94.0568 273.025 94.1175 272.934 94.1972C272.844 94.2769 272.77 94.3739 272.717 94.4826C272.665 94.5912 272.635 94.7093 272.629 94.8297Z" fill="#263238"/>
<path d="M272.285 92.5519C272.409 92.6751 273.12 92.1415 274.132 92.1415C275.145 92.1415 275.897 92.6477 276.006 92.5246C276.116 92.4015 275.938 92.2441 275.617 92.0116C275.178 91.7051 274.654 91.5447 274.119 91.5533C273.59 91.5523 273.075 91.72 272.648 92.0321C272.333 92.2715 272.231 92.4972 272.285 92.5519Z" fill="#263238"/>
<path d="M281.808 95.076C281.807 95.3223 281.903 95.5591 282.074 95.7365C282.245 95.9138 282.478 96.0179 282.724 96.0268C282.844 96.0351 282.965 96.0195 283.079 95.981C283.193 95.9424 283.298 95.8816 283.388 95.8021C283.479 95.7226 283.552 95.6259 283.605 95.5177C283.658 95.4095 283.689 95.2919 283.695 95.1718C283.696 94.9254 283.6 94.6886 283.429 94.5113C283.258 94.3339 283.025 94.2299 282.779 94.221C282.659 94.2117 282.538 94.2266 282.423 94.2648C282.309 94.303 282.203 94.3638 282.113 94.4435C282.022 94.5232 281.949 94.6202 281.896 94.7289C281.844 94.8375 281.814 94.9555 281.808 95.076Z" fill="#263238"/>
<path d="M282.266 92.7093C282.39 92.8324 283.101 92.3057 284.113 92.3057C285.126 92.3057 285.878 92.8051 285.987 92.6819C286.097 92.5588 285.919 92.4083 285.598 92.1689C285.156 91.8682 284.633 91.7106 284.1 91.7175C283.571 91.7145 283.055 91.8825 282.629 92.1963C282.321 92.4357 282.212 92.6546 282.266 92.7093Z" fill="#263238"/>
<path d="M278.607 100.254C278.073 100.083 277.519 99.9839 276.959 99.9597C276.699 99.9597 276.453 99.8776 276.405 99.7066C276.385 99.4378 276.444 99.1688 276.576 98.9337L277.342 96.9569C278.395 94.1457 279.161 91.8338 279.045 91.7927C278.929 91.7517 277.985 93.9952 276.925 96.8065C276.672 97.4905 276.432 98.1745 276.2 98.7969C276.037 99.1105 275.991 99.4717 276.07 99.816C276.107 99.907 276.165 99.9882 276.238 100.053C276.312 100.119 276.399 100.166 276.494 100.192C276.637 100.23 276.784 100.251 276.932 100.254C277.488 100.323 278.051 100.323 278.607 100.254Z" fill="#263238"/>
<path d="M281.596 100.945C281.432 100.945 281.432 102.039 280.488 102.819C279.544 103.599 278.374 103.503 278.367 103.646C278.36 103.79 278.627 103.858 279.127 103.865C279.773 103.878 280.402 103.657 280.898 103.243C281.378 102.85 281.684 102.286 281.753 101.67C281.808 101.232 281.671 100.938 281.596 100.945Z" fill="#263238"/>
<path d="M281.999 88.7353C282.094 89.0089 283.107 88.8721 284.304 89.0157C285.501 89.1594 286.458 89.4808 286.616 89.2278C286.684 89.1115 286.513 88.8515 286.13 88.5848C285.61 88.2583 285.023 88.0547 284.412 87.9895C283.802 87.9243 283.185 87.9992 282.607 88.2086C282.17 88.3864 281.951 88.6053 281.999 88.7353Z" fill="#263238"/>
<path d="M272.657 89.6039C272.835 89.8364 273.532 89.6039 274.374 89.6039C275.215 89.6039 275.926 89.7543 276.09 89.5149C276.166 89.3987 276.049 89.1661 275.735 88.9472C275.327 88.6885 274.85 88.5597 274.367 88.5779C273.873 88.5856 273.395 88.7483 272.999 89.043C272.67 89.2619 272.575 89.4944 272.657 89.6039Z" fill="#263238"/>
<path d="M268.415 83.5438C268.465 83.2407 268.624 82.9663 268.862 82.7722C269.1 82.5782 269.401 82.478 269.708 82.4904C269.387 82.409 269.083 82.2699 268.812 82.08C268.675 81.9741 268.571 81.8322 268.511 81.6703C268.45 81.5084 268.436 81.3329 268.47 81.1634C268.627 80.6504 269.277 80.5273 269.79 80.3632C270.465 80.152 271.056 79.7331 271.479 79.1662C272.088 78.359 272.3 77.3194 272.813 76.4302C273.15 75.8654 273.609 75.3836 274.158 75.0202C274.706 74.6567 275.328 74.421 275.979 74.3304C276.631 74.2398 277.294 74.2966 277.92 74.4967C278.547 74.6967 279.12 75.0349 279.599 75.4862C280.09 74.9506 280.703 74.5401 281.386 74.2889C282.068 74.0377 282.801 73.953 283.523 74.042C284.245 74.131 284.935 74.391 285.536 74.8004C286.137 75.2098 286.632 75.7568 286.979 76.396C287.849 76.0028 288.809 75.8512 289.759 75.9569C290.708 76.0627 291.611 76.4219 292.373 76.997C293.136 77.572 293.73 78.3416 294.092 79.2252C294.455 80.1087 294.573 81.0735 294.434 82.0184L290.399 84.6518C290.355 84.3438 290.248 84.0482 290.083 83.7844C289.918 83.5206 289.699 83.2943 289.441 83.1202C289.184 82.9461 288.892 82.8281 288.586 82.7738C288.279 82.7195 287.965 82.7302 287.663 82.805C286.432 83.2018 285.679 84.6587 284.393 84.7955C283.388 84.8981 282.512 84.1457 281.534 83.9131C280.311 83.7402 279.069 84.0465 278.066 84.7681C277.078 85.4857 275.999 86.0698 274.858 86.5055C273.451 86.8248 271.978 86.6907 270.652 86.1224C270.067 85.9346 269.53 85.6219 269.079 85.2059C268.841 85.0038 268.656 84.7467 268.541 84.4571C268.425 84.1674 268.382 83.8539 268.415 83.5438Z" fill="#263238"/>
<path d="M289.599 82.7639L270.762 83.1948C271.396 81.9169 272.336 80.8151 273.498 79.9869C275.945 78.0922 278.927 77.0176 282.02 76.9157C285.092 76.861 291.35 80.5956 293.58 82.7092C295.358 84.4055 295.352 85.8761 295.352 85.8761C295.632 88.318 294.271 91.095 293.724 93.489C293.45 94.7271 292.91 98.4685 292.91 98.4685C291.87 98.4685 291.487 97.6409 291.637 96.6149L291.829 92.5861C290.789 91.7597 290.049 90.6153 289.721 89.328C289.394 88.0407 289.498 86.6816 290.016 85.4589C290.269 85.0895 290.844 83.4479 289.599 82.7639Z" fill="#263238"/>
<path d="M292.15 92.2784C293.019 88.9131 293.791 85.3153 292.683 82.0184L293.237 81.9773L293.477 82.1415C294.003 81.946 294.577 81.9236 295.117 82.0776C295.656 82.2315 296.133 82.5538 296.476 82.9974C296.82 83.441 297.013 83.9827 297.027 84.5436C297.041 85.1045 296.876 85.6552 296.555 86.1155C297.114 86.0937 297.662 86.2781 298.095 86.6336C298.527 86.9892 298.814 87.4913 298.901 88.0444C298.923 88.8192 298.734 89.5854 298.354 90.2606C297.974 90.9341 297.752 91.6847 297.704 92.4562C297.69 92.8427 297.813 93.2215 298.051 93.5266C298.288 93.8317 298.626 94.0436 299.004 94.1252C298.831 94.5211 298.527 94.8458 298.144 95.045C297.76 95.2441 297.32 95.3058 296.897 95.2196C297.194 95.8689 297.668 96.4213 298.265 96.8133C297.061 97.682 295.371 97.4494 294.017 96.8133C293.184 96.5051 292.492 95.9014 292.075 95.117C291.797 94.1869 291.823 93.1924 292.15 92.2784Z" fill="#263238"/>
<path d="M292.568 96.1566C292.684 96.1087 297.109 94.7886 296.973 99.3167C296.836 103.845 292.335 102.771 292.328 102.641C292.321 102.511 292.568 96.1566 292.568 96.1566Z" fill="#FFBE9D"/>
<path d="M293.361 100.972C293.361 100.972 293.443 101.027 293.573 101.095C293.762 101.171 293.972 101.171 294.161 101.095C294.457 100.917 294.7 100.663 294.867 100.361C295.034 100.058 295.119 99.717 295.112 99.3715C295.132 98.9858 295.067 98.6004 294.92 98.2429C294.884 98.1009 294.813 97.9699 294.714 97.8614C294.615 97.753 294.491 97.6703 294.353 97.6205C294.263 97.5939 294.167 97.5991 294.081 97.6353C293.995 97.6714 293.924 97.7363 293.881 97.8189C293.812 97.9488 293.84 98.0377 293.819 98.0446C293.799 98.0514 293.723 97.9625 293.764 97.7778C293.792 97.6676 293.857 97.5706 293.949 97.5042C294.011 97.4578 294.082 97.4248 294.157 97.4071C294.233 97.3895 294.311 97.3876 294.387 97.4016C294.571 97.4436 294.742 97.5323 294.882 97.6593C295.022 97.7863 295.127 97.9473 295.187 98.1267C295.371 98.522 295.453 98.9569 295.427 99.3921C295.436 99.7941 295.326 100.19 295.112 100.531C294.898 100.871 294.589 101.141 294.223 101.307C294.106 101.334 293.984 101.336 293.866 101.312C293.748 101.289 293.637 101.24 293.539 101.17C293.368 101.082 293.347 100.979 293.361 100.972Z" fill="#EB996E"/>
<path d="M297.142 92.2784C297.142 92.2784 297.265 92.1074 297.211 91.7517C297.159 91.5072 297.054 91.2772 296.903 91.0784C296.751 90.8796 296.557 90.7171 296.335 90.6026C295.688 90.3181 294.99 90.1692 294.283 90.1648C293.882 90.1769 293.483 90.0933 293.12 89.9208C292.758 89.7483 292.441 89.492 292.197 89.173C291.801 88.4565 291.652 87.6297 291.773 86.8201C291.862 86.0608 292.04 85.3631 292.122 84.7681C292.285 84.1311 292.257 83.4599 292.04 82.8392C292.056 83.4723 292.004 84.1054 291.882 84.727C291.766 85.3084 291.561 85.9787 291.451 86.779C291.303 87.6671 291.462 88.5792 291.903 89.3645C292.166 89.7679 292.552 90.0751 293.004 90.24C293.408 90.3796 293.829 90.4603 294.256 90.4795C294.937 90.4659 295.614 90.5796 296.253 90.8146C296.453 90.9103 296.631 91.045 296.778 91.2106C296.925 91.3762 297.037 91.5695 297.108 91.779C297.135 91.9441 297.146 92.1112 297.142 92.2784Z" fill="#455A64"/>
<path d="M298.176 90.288C298.176 90.288 298.272 90.158 298.306 89.8775C298.329 89.5368 298.267 89.1957 298.124 88.8851C297.982 88.5746 297.765 88.3044 297.492 88.0992C297.23 87.9115 296.932 87.781 296.616 87.7161C296.311 87.6621 296.019 87.5507 295.755 87.3878C295.636 87.2888 295.541 87.1641 295.477 87.0232C295.413 86.8822 295.381 86.7286 295.385 86.5738C295.385 86.2318 295.385 85.8898 295.385 85.5068C295.348 84.5765 295.06 83.6736 294.551 82.8939C294.444 82.716 294.296 82.5673 294.118 82.461C293.94 82.3548 293.739 82.2944 293.532 82.2852C293.237 82.2852 293.114 82.4356 293.128 82.4425C293.142 82.4493 293.278 82.3878 293.525 82.4425C293.699 82.4732 293.865 82.5443 294.007 82.65C294.149 82.7556 294.265 82.893 294.345 83.0512C294.617 83.5263 294.814 84.041 294.927 84.5766C294.998 84.8933 295.037 85.2164 295.043 85.541C295.043 85.8693 295.043 86.225 295.043 86.6149C295.041 86.8204 295.086 87.0237 295.174 87.2096C295.261 87.3955 295.39 87.5593 295.549 87.6888C295.856 87.8727 296.195 87.9958 296.548 88.0513C296.809 88.0889 297.06 88.1816 297.282 88.3231C297.505 88.4645 297.696 88.6517 297.841 88.8721C298.095 89.2987 298.212 89.7928 298.176 90.288Z" fill="#455A64"/>
<path d="M271.451 79.1456C271.451 79.1456 271.793 79.3782 272.381 79.0841C272.707 78.8966 272.989 78.6425 273.209 78.3385C273.485 77.9555 273.831 77.6283 274.228 77.3741C274.751 77.065 275.351 76.9129 275.957 76.936C276.564 76.959 277.151 77.1562 277.648 77.504C278.216 77.8939 278.722 78.4479 279.386 78.872C279.727 79.1152 280.117 79.2831 280.528 79.3645C280.963 79.4236 281.407 79.367 281.814 79.2003C282.614 78.8857 283.243 78.3727 283.934 78.0991C284.602 77.818 285.317 77.6671 286.041 77.6545C287.28 77.6221 288.495 78.0022 289.495 78.7352C290.169 79.2283 290.735 79.8546 291.157 80.5752C291.458 81.095 291.568 81.4097 291.595 81.396C291.622 81.3823 291.595 81.3139 291.54 81.1566C291.471 80.9356 291.384 80.7206 291.28 80.5136C290.887 79.7405 290.327 79.0651 289.639 78.5369C288.61 77.7398 287.342 77.3154 286.041 77.333C285.274 77.3356 284.514 77.4866 283.804 77.7776C283.059 78.0786 282.436 78.5916 281.684 78.872C281.337 79.0202 280.956 79.0699 280.583 79.0157C280.22 78.946 279.877 78.799 279.577 78.5847C278.961 78.1675 278.442 77.6203 277.826 77.2167C277.246 76.8096 276.551 76.6008 275.842 76.6217C275.228 76.6397 274.629 76.819 274.105 77.1415C273.691 77.4187 273.337 77.7771 273.065 78.1949C272.869 78.4927 272.616 78.7485 272.32 78.9473C272.062 79.1121 271.755 79.1822 271.451 79.1456Z" fill="#455A64"/>
<path d="M244.981 139.009L221.609 120.541L218.278 117.046C218.278 117.046 210.316 109.611 209.646 108.797C208.866 107.86 208.223 108.01 207.902 108.318C207.389 108.804 207.56 109.789 208.203 110.61C208.428 110.897 212.115 115.254 212.115 115.254C211.515 115.055 210.903 114.898 210.282 114.782C208.948 114.502 207.033 115.302 205.494 116.649C203.955 117.997 203.668 118.517 204.167 119.132C204.266 119.243 204.389 119.331 204.526 119.389C204.663 119.447 204.812 119.474 204.96 119.467C205.451 119.471 205.926 119.293 206.294 118.968C208.757 116.834 210.549 117.6 210.549 117.6L210.986 118.058C210.986 118.058 208.558 118.243 207.724 119.714C207.602 119.924 207.522 120.156 207.491 120.398C207.152 120.685 206.893 121.056 206.74 121.473C206.587 121.891 206.546 122.342 206.621 122.78C206.695 123.219 206.883 123.63 207.165 123.974C207.447 124.318 207.814 124.582 208.23 124.741C208.423 124.838 208.64 124.874 208.854 124.845C209.068 124.815 209.267 124.722 209.427 124.577C209.549 124.383 209.624 124.162 209.646 123.934C209.663 123.815 209.69 123.699 209.728 123.585L211.13 124.693C211.13 124.693 214.406 127.019 215.72 128.195L235.296 149.475C235.94 150.174 236.716 150.737 237.58 151.133C238.444 151.529 239.378 151.749 240.328 151.78C241.278 151.811 242.225 151.653 243.113 151.315C244.001 150.977 244.813 150.465 245.501 149.81C246.242 149.101 246.822 148.242 247.202 147.29C247.581 146.337 247.753 145.315 247.703 144.291C247.654 143.267 247.386 142.266 246.916 141.355C246.446 140.443 245.787 139.644 244.981 139.009Z" fill="#FFBE9D"/>
<path d="M220.638 120.842C220.428 121.071 220.152 121.229 219.848 121.294C219.544 121.359 219.227 121.328 218.942 121.205C218.354 121.006 217.854 120.61 217.28 120.37C215.577 119.645 213.49 120.37 211.808 119.549C211.568 119.44 211.322 119.228 211.377 118.975C211.432 118.722 211.719 118.653 211.951 118.612L217.991 117.456" fill="#FFBE9D"/>
<path d="M218.004 117.456C217.775 117.443 217.545 117.461 217.32 117.511C216.896 117.573 216.288 117.668 215.535 117.798L212.881 118.27L212.122 118.407C211.801 118.417 211.497 118.552 211.274 118.783C211.215 118.869 211.184 118.97 211.184 119.074C211.184 119.178 211.215 119.279 211.274 119.365C211.374 119.501 211.505 119.611 211.657 119.686C211.931 119.816 212.217 119.917 212.512 119.987C213.607 120.135 214.711 120.208 215.816 120.206C216.284 120.233 216.745 120.333 217.184 120.5C217.562 120.668 217.932 120.855 218.292 121.061C218.559 121.229 218.859 121.338 219.172 121.378C219.485 121.418 219.804 121.389 220.104 121.294C220.535 121.109 220.624 120.835 220.611 120.842C220.447 120.978 220.262 121.087 220.063 121.164C219.78 121.228 219.487 121.233 219.202 121.178C218.917 121.122 218.646 121.008 218.408 120.842C218.05 120.619 217.68 120.416 217.3 120.233C216.843 120.041 216.358 119.923 215.864 119.885C214.774 119.87 213.687 119.79 212.608 119.645C212.342 119.583 212.083 119.494 211.835 119.378C211.609 119.262 211.465 119.071 211.554 118.968C211.643 118.865 211.91 118.783 212.17 118.736L212.929 118.585L215.563 118.045C216.315 117.881 216.931 117.751 217.334 117.648C217.564 117.611 217.79 117.547 218.004 117.456Z" fill="#EB996E"/>
<path d="M211.075 118.038C210.793 117.766 210.454 117.56 210.083 117.436C209.676 117.333 209.247 117.361 208.858 117.518C208.377 117.721 207.93 117.995 207.531 118.332C207.122 118.684 206.677 118.994 206.204 119.255C205.805 119.474 205.353 119.58 204.898 119.563C204.742 119.556 204.59 119.512 204.453 119.437C204.317 119.361 204.2 119.254 204.111 119.125C204.042 119.034 204.002 118.925 203.995 118.811C203.995 118.811 204.057 118.913 204.18 119.071C204.27 119.176 204.383 119.26 204.509 119.318C204.635 119.376 204.773 119.406 204.912 119.406C205.333 119.398 205.745 119.282 206.109 119.071C206.564 118.805 206.995 118.498 207.395 118.154C207.804 117.806 208.265 117.524 208.763 117.32C209.201 117.152 209.684 117.14 210.131 117.285C210.419 117.381 210.68 117.545 210.89 117.764C211.04 117.928 211.088 118.031 211.075 118.038Z" fill="#EB996E"/>
<path d="M207.936 110.288C208.207 110.553 208.454 110.841 208.674 111.15L210.398 113.27L212.156 115.363C212.407 115.641 212.636 115.939 212.84 116.253C212.537 116.023 212.259 115.762 212.012 115.473C211.527 114.96 210.884 114.242 210.2 113.421C209.516 112.6 208.927 111.827 208.517 111.253C208.286 110.955 208.091 110.631 207.936 110.288Z" fill="#EB996E"/>
<path d="M210.911 119.857C210.804 119.906 210.691 119.943 210.576 119.967C210.431 120.003 210.295 120.069 210.177 120.161C210.059 120.253 209.962 120.368 209.892 120.5C209.856 120.591 209.844 120.69 209.857 120.787C209.871 120.884 209.908 120.976 209.967 121.054C210.118 121.248 210.29 121.425 210.48 121.581C210.726 121.775 210.894 122.052 210.952 122.361C210.962 122.531 210.933 122.701 210.866 122.857C210.8 123.014 210.698 123.153 210.569 123.264C210.441 123.371 210.292 123.45 210.132 123.497C209.972 123.544 209.804 123.558 209.639 123.537C209.332 123.51 209.041 123.391 208.804 123.195C208.445 122.863 208.136 122.481 207.888 122.06C207.712 121.779 207.583 121.472 207.505 121.15C207.464 120.918 207.505 120.788 207.505 120.788C207.505 120.788 207.505 120.918 207.587 121.13C207.689 121.429 207.834 121.713 208.018 121.971C208.271 122.366 208.577 122.725 208.927 123.038C209.134 123.21 209.392 123.308 209.66 123.318C209.929 123.328 210.193 123.249 210.412 123.093C210.511 123.01 210.591 122.905 210.644 122.786C210.698 122.668 210.723 122.539 210.719 122.409C210.673 122.154 210.534 121.925 210.329 121.766C210.129 121.593 209.952 121.395 209.803 121.177C209.73 121.074 209.686 120.953 209.675 120.827C209.665 120.7 209.687 120.574 209.741 120.459C209.825 120.309 209.943 120.182 210.086 120.087C210.228 119.991 210.392 119.932 210.562 119.912C210.674 119.872 210.792 119.853 210.911 119.857Z" fill="#EB996E"/>
<path d="M209.577 123.346C209.577 123.346 209.687 123.407 209.762 123.612C209.808 123.759 209.819 123.914 209.795 124.066C209.772 124.218 209.713 124.362 209.625 124.488C209.484 124.669 209.298 124.811 209.086 124.898C208.874 124.986 208.642 125.017 208.414 124.987C207.874 124.906 207.385 124.622 207.046 124.194C206.697 123.773 206.487 123.255 206.445 122.71C206.421 122.341 206.479 121.973 206.615 121.63C206.751 121.287 206.962 120.978 207.231 120.726C207.388 120.589 207.491 120.535 207.498 120.548C207.237 120.83 207.018 121.148 206.848 121.492C206.668 121.91 206.607 122.37 206.672 122.82C206.737 123.27 206.926 123.694 207.217 124.043C207.526 124.436 207.97 124.699 208.462 124.782C208.657 124.81 208.855 124.789 209.039 124.721C209.223 124.653 209.387 124.54 209.516 124.392C209.598 124.286 209.656 124.163 209.687 124.032C209.717 123.901 209.72 123.765 209.694 123.633C209.632 123.448 209.564 123.353 209.577 123.346Z" fill="#EB996E"/>
<path d="M215.043 123.763C215.043 123.763 215.159 123.585 215.467 123.414C215.889 123.2 216.369 123.128 216.835 123.209L216.719 123.373C216.577 123.152 216.447 122.924 216.329 122.689C215.884 121.902 215.67 121.006 215.713 120.103C215.898 120.958 216.173 121.79 216.534 122.586C216.65 122.819 216.78 123.038 216.903 123.236L217.04 123.455L216.794 123.4C216.365 123.315 215.921 123.356 215.515 123.517C215.221 123.66 215.063 123.804 215.043 123.763Z" fill="#EB996E"/>
<path d="M208.736 116.362C208.797 116.362 208.893 116.8 208.64 117.285C208.387 117.771 207.956 117.969 207.956 117.915C207.956 117.86 208.23 117.614 208.442 117.183C208.654 116.752 208.674 116.362 208.736 116.362Z" fill="#EB996E"/>
<path d="M243.921 151.294L257.416 141.951C257.416 141.951 256.233 178.134 256.233 178.469C256.233 178.469 253.764 179.447 254.181 182.033L254.865 185.679C269.728 189.099 284.455 191.308 299.441 185.788L301.144 156.964L306.432 121.752L294.373 116.622L292.321 111.834L279.831 125.288L276.637 116.602L276.726 113.325L273.702 116.608L259.065 119.016L240.829 133.797L234.851 128.961L225.829 141.492L236.089 151.848C238.688 152.549 241.447 152.354 243.921 151.294Z" fill="#3A89FD"/>
<path d="M277.997 123.695C277.606 123.916 277.299 124.26 277.122 124.673C276.935 125.147 276.845 125.654 276.855 126.164C276.889 126.86 276.791 127.556 276.568 128.216L276.417 128.572L276.267 128.216C275.862 127.2 275.542 126.152 275.309 125.083C274.796 122.867 274.468 120.835 274.242 119.365C274.092 118.575 274.007 117.775 273.989 116.971C274.208 117.744 274.377 118.53 274.495 119.324C274.776 120.781 275.145 122.799 275.658 125.001C275.884 126.051 276.188 127.082 276.568 128.086H276.267C276.478 127.472 276.585 126.827 276.582 126.178C276.589 125.638 276.713 125.106 276.944 124.618C277.085 124.293 277.324 124.02 277.628 123.838C277.861 123.688 277.991 123.681 277.997 123.695Z" fill="#263238"/>
<path d="M293.697 118.284C293.587 118.5 293.449 118.7 293.286 118.879C292.999 119.249 292.602 119.775 292.055 120.418C291.002 121.704 289.538 123.462 287.896 125.391L285.283 128.442L285.085 128.674L285.01 128.373C284.634 126.889 284.326 125.637 284.134 124.748C284.052 124.31 283.806 124.064 283.567 124.064C283.45 124.058 283.334 124.092 283.238 124.16C283.238 124.16 283.286 123.982 283.567 123.961C283.65 123.961 283.733 123.976 283.811 124.008C283.888 124.04 283.959 124.087 284.018 124.146C284.162 124.309 284.265 124.503 284.319 124.714C284.572 125.589 284.921 126.827 285.318 128.312L285.044 128.243L287.623 125.172C289.264 123.243 290.762 121.513 291.864 120.268C292.411 119.645 292.862 119.146 293.177 118.804C293.328 118.61 293.503 118.436 293.697 118.284Z" fill="#263238"/>
<path d="M275.652 174.926C275.621 174.773 275.61 174.617 275.617 174.461C275.617 174.126 275.617 173.688 275.617 173.148C275.617 172.005 275.617 170.35 275.617 168.305C275.665 164.201 275.857 158.572 276.301 152.354C276.746 146.137 277.416 140.514 277.977 136.465C278.258 134.413 278.504 132.805 278.695 131.677L278.914 130.384C278.941 130.232 278.975 130.081 279.017 129.933C279.037 130.085 279.037 130.239 279.017 130.391C278.976 130.726 278.921 131.164 278.86 131.697C278.709 132.874 278.504 134.502 278.251 136.485C277.758 140.541 277.15 146.15 276.684 152.368C276.219 158.585 276 164.215 275.87 168.298C275.823 170.309 275.788 171.951 275.761 173.134C275.761 173.677 275.747 174.114 275.72 174.447C275.708 174.608 275.685 174.768 275.652 174.926Z" fill="#263238"/>
<path d="M272.232 183.23C271.932 182.247 271.825 181.216 271.917 180.193C271.881 179.171 271.986 178.149 272.232 177.156C272.328 178.168 272.328 179.188 272.232 180.2C272.19 181.869 272.3 183.216 272.232 183.23Z" fill="#263238"/>
<path d="M289.579 173.278C289.229 173.446 288.865 173.583 288.491 173.688C287.807 173.934 286.74 174.263 285.454 174.639C282.092 175.608 278.681 176.4 275.235 177.012C271.792 177.621 268.319 178.052 264.832 178.305C263.464 178.394 262.403 178.449 261.651 178.462C261.264 178.495 260.875 178.495 260.488 178.462C260.869 178.387 261.256 178.344 261.644 178.332L264.811 178.066C267.472 177.819 271.152 177.382 275.174 176.698C279.196 176.014 282.8 175.104 285.386 174.42L288.45 173.585C288.819 173.457 289.196 173.354 289.579 173.278Z" fill="#263238"/>
<path d="M257.375 150.241C257.279 150.241 257.218 145.206 257.238 139.002C257.259 132.799 257.361 127.764 257.457 127.764C257.553 127.764 257.615 132.799 257.594 139.002C257.573 145.206 257.478 150.241 257.375 150.241Z" fill="#263238"/>
<g opacity="0.3">
<path d="M280.994 126.499C281.363 126.486 281.726 126.597 282.024 126.816C282.322 127.034 282.537 127.347 282.636 127.703C282.773 128.435 282.67 129.208 282.861 129.933C283.053 130.658 283.716 131.362 284.448 131.212C284.884 131.068 285.255 130.775 285.495 130.384C286.931 128.439 288.083 126.3 288.915 124.03C288.915 124.084 285.126 128.38 285.126 128.38C284.985 127.294 284.699 126.231 284.277 125.22C284.154 124.892 284.004 124.331 283.689 124.187C283.176 123.948 282.492 124.7 282.15 125.158C281.8 125.622 281.404 126.048 280.967 126.43" fill="black"/>
</g>
<g opacity="0.3">
<path d="M274.817 122.593C274.886 124.998 275.348 127.376 276.185 129.632C276.258 129.861 276.385 130.07 276.555 130.24C276.642 130.33 276.756 130.389 276.879 130.408C277.003 130.426 277.129 130.404 277.239 130.343C277.515 129.881 277.744 129.393 277.923 128.886C278.272 127.908 279.694 127.819 279.694 127.819C279.457 126.714 279.146 125.627 278.764 124.563C278.695 124.388 278.573 124.239 278.415 124.137C278.256 124.035 278.07 123.985 277.882 123.995C277.635 124.078 277.415 124.225 277.244 124.421C277.073 124.617 276.958 124.855 276.91 125.11C276.698 126.861 276.726 127.669 276.466 128.284C275.782 126.41 275.262 124.18 274.824 122.532" fill="black"/>
</g>
<g opacity="0.3">
<path d="M285.308 174.42C285.47 174.304 285.607 174.157 285.712 173.987C285.816 173.818 285.885 173.629 285.916 173.432C285.947 173.235 285.938 173.034 285.89 172.841C285.842 172.648 285.756 172.466 285.636 172.306C285.382 171.996 285.05 171.757 284.674 171.616C284.298 171.474 283.892 171.434 283.496 171.499C282.705 171.637 281.962 171.971 281.334 172.471C280.684 172.943 280.089 173.476 279.405 173.893C277.729 174.926 275.691 175.159 273.721 175.193C271.754 175.111 269.784 175.198 267.832 175.453C265.903 175.829 263.974 176.821 263.044 178.558C263.037 178.524 279.857 177.327 285.308 174.42Z" fill="black"/>
</g>
<path d="M306.432 121.752C306.432 121.752 311.521 125.377 312.752 128.66C313.983 131.944 318.532 154.495 319.27 158.346C320.207 163.189 320.235 169.181 313.265 171.458C310.673 172.3 294.797 171.007 294.797 171.007L295.317 159.728L303.887 160.049C303.887 160.049 303.374 159.29 304.605 158.373L301.869 143.702C301.869 143.702 302.875 128.12 302.998 127.751C303.121 127.381 306.432 121.752 306.432 121.752Z" fill="#3A89FD"/>
<path d="M306.705 122.142C305.199 122.761 303.84 123.69 302.716 124.869C301.592 126.047 300.728 127.448 300.18 128.982C300.217 128.507 300.342 128.043 300.549 127.614C301.457 125.402 303.167 123.616 305.337 122.614C305.761 122.376 306.224 122.216 306.705 122.142Z" fill="#263238"/>
<path d="M309.483 162.334C309.428 162.334 309.312 161.957 308.97 161.431C308.515 160.747 307.92 160.166 307.226 159.728C306.544 159.27 305.772 158.964 304.962 158.832C304.339 158.743 303.942 158.832 303.929 158.756C304.256 158.59 304.626 158.53 304.989 158.585C305.86 158.65 306.699 158.94 307.424 159.427C308.161 159.892 308.769 160.537 309.189 161.301C309.386 161.609 309.488 161.968 309.483 162.334Z" fill="#263238"/>
<path d="M300.275 134.789C300.38 135.082 300.457 135.385 300.508 135.692C300.652 136.376 300.823 137.19 301.035 138.188C301.459 140.302 302.02 143.223 302.615 146.451C303.21 149.68 303.736 152.607 304.099 154.734C304.263 155.747 304.4 156.588 304.503 157.252C304.569 157.557 304.604 157.869 304.605 158.182C304.5 157.888 304.42 157.586 304.366 157.279C304.229 156.595 304.058 155.781 303.846 154.782C303.422 152.669 302.861 149.748 302.266 146.52C301.671 143.291 301.144 140.364 300.782 138.236C300.617 137.224 300.481 136.383 300.378 135.719C300.311 135.414 300.277 135.102 300.275 134.789Z" fill="#263238"/>
<path d="M294.803 171C294.777 170.709 294.777 170.416 294.803 170.124C294.803 169.502 294.803 168.702 294.858 167.737C294.92 165.685 295.022 162.888 295.166 159.707V159.536H295.344L296.753 159.591L303.907 159.899H303.955L303.989 159.933C305.054 160.8 305.865 161.939 306.335 163.23C306.462 163.586 306.56 163.952 306.63 164.324C306.662 164.454 306.674 164.588 306.664 164.721C306.623 164.721 306.541 164.18 306.178 163.291C305.668 162.061 304.851 160.982 303.805 160.159L303.894 160.193L296.739 159.947L295.33 159.885L295.508 159.721C295.364 162.895 295.214 165.719 295.091 167.737C295.022 168.702 294.967 169.502 294.926 170.124C294.918 170.42 294.877 170.714 294.803 171Z" fill="#263238"/>
<path d="M282.28 157.361L275.652 143.831C275.431 143.382 275.088 143.003 274.663 142.738C274.237 142.473 273.746 142.333 273.245 142.334H256.548C256.407 142.333 256.267 142.369 256.144 142.439C256.021 142.508 255.918 142.609 255.845 142.73C255.773 142.852 255.733 142.99 255.731 143.132C255.728 143.273 255.762 143.413 255.83 143.537L267.116 164.618C267.273 164.907 267.505 165.149 267.788 165.318C268.071 165.486 268.394 165.575 268.723 165.576H286.022L282.28 157.361Z" fill="#455A64"/>
<path d="M255.939 143.64H256.275H257.225H260.741L272.321 143.544C272.857 143.54 273.385 143.666 273.86 143.914C274.298 144.193 274.653 144.585 274.886 145.049C275.372 145.972 275.775 146.937 276.2 147.785L278.416 152.505L279.927 155.671C280.098 156.02 280.242 156.301 280.358 156.526C280.401 156.629 280.456 156.725 280.522 156.814C280.501 156.704 280.464 156.598 280.413 156.499C280.317 156.267 280.187 155.979 280.037 155.624C279.688 154.823 279.202 153.736 278.614 152.409C278.026 151.082 277.246 149.44 276.459 147.669C276.042 146.773 275.652 145.836 275.153 144.871C274.895 144.359 274.503 143.926 274.018 143.619C273.5 143.343 272.922 143.2 272.335 143.202C267.793 143.202 263.71 143.332 260.707 143.394L257.198 143.489L256.24 143.53C256.135 143.552 256.034 143.589 255.939 143.64Z" fill="#263238"/>
<path d="M266.22 146.602C266.14 146.631 266.069 146.678 266.011 146.74C265.953 146.801 265.91 146.875 265.886 146.956C265.861 147.037 265.856 147.122 265.87 147.206C265.884 147.289 265.917 147.368 265.967 147.436C266.058 147.579 266.194 147.689 266.352 147.749C266.511 147.81 266.685 147.817 266.849 147.771C266.959 147.747 267.06 147.692 267.141 147.614C267.222 147.535 267.279 147.436 267.307 147.327C267.318 147.161 267.274 146.997 267.183 146.859C267.092 146.72 266.957 146.616 266.801 146.561C266.607 146.527 266.407 146.541 266.22 146.602Z" fill="white"/>
<path d="M295.139 160.186L290.994 159.782C290.994 159.782 289.113 157.648 288.375 157.005C287.636 156.362 283.409 154.269 283.409 154.269C283.409 154.269 281.213 151.937 280.926 151.971C280.639 152.005 279.736 152.286 280.126 153.442C280.496 154.591 280.982 155.7 281.576 156.752L273.224 157.942C272.963 157.975 272.712 158.065 272.49 158.205C272.268 158.346 272.079 158.534 271.938 158.756C271.753 159.064 271.699 159.386 272.116 159.529C273.627 159.878 275.157 160.138 276.699 160.309L275.057 160.09C275.057 160.09 274.9 161.65 275.994 162.252C276.415 162.44 276.808 162.684 277.164 162.977C277.261 163.674 277.508 164.341 277.889 164.933C278.395 165.46 283.402 167.32 283.402 167.32C283.402 167.32 286.528 167.854 288.039 167.594L294.811 168.626L295.139 160.186Z" fill="#FFBE9D"/>
<path d="M280.768 156.903C281.562 156.958 282.36 156.958 283.155 156.903C283.952 156.952 284.753 156.894 285.535 156.732C284.747 156.596 283.946 156.552 283.148 156.602C282.343 156.558 281.536 156.66 280.768 156.903Z" fill="#EB996E"/>
<path d="M282.334 160.48C281.185 160.213 280.004 160.107 278.825 160.165C277.854 160.165 276.979 160.165 276.342 160.165C276 160.142 275.656 160.155 275.316 160.206C275.643 160.325 275.989 160.381 276.336 160.371C276.979 160.418 277.854 160.439 278.825 160.446C280.761 160.453 282.321 160.555 282.334 160.48Z" fill="#EB996E"/>
<path d="M282.662 163.223C282.662 163.134 281.431 163.223 279.926 163.161C278.422 163.1 277.19 162.86 277.19 162.949C278.063 163.288 278.991 163.462 279.926 163.462C280.845 163.555 281.774 163.474 282.662 163.223Z" fill="#EB996E"/>
<path d="M282.526 166.349C282.608 166.349 282.69 166.014 282.711 165.583C282.731 165.152 282.676 164.81 282.594 164.803C282.512 164.796 282.43 165.145 282.41 165.569C282.389 165.993 282.444 166.349 282.526 166.349Z" fill="#EB996E"/>
<path d="M282.834 162.587C282.916 162.587 282.929 162.293 283.039 161.985C283.148 161.677 283.306 161.458 283.251 161.39C283.196 161.321 282.888 161.499 282.758 161.889C282.628 162.279 282.758 162.607 282.834 162.587Z" fill="#EB996E"/>
<path d="M283.347 158.791C283.436 158.791 283.498 158.606 283.573 158.394C283.648 158.182 283.717 157.997 283.655 157.942C283.594 157.888 283.389 158.025 283.293 158.291C283.197 158.558 283.265 158.797 283.347 158.791Z" fill="#EB996E"/>
</svg>
