<svg width="340" height="340" viewBox="0 0 340 340" fill="none" xmlns="http://www.w3.org/2000/svg">
<path d="M297.65 88.7468H247.608V140.91H297.65V88.7468Z" fill="#E0E0E0"/>
<path d="M294.257 88.7468H244.222V140.91H294.257V88.7468Z" fill="#FAFAFA"/>
<path d="M294.277 140.923H244.208V88.7332H294.277V140.923ZM244.236 140.889H294.243V88.7604H244.236V140.889Z" fill="#E0E0E0"/>
<path d="M287.531 95.7576H250.947V133.892H287.531V95.7576Z" fill="white"/>
<path d="M250.92 134.15C250.658 134.532 250.355 134.883 250.016 135.198C249.431 135.816 248.615 136.653 247.69 137.557C246.765 138.462 245.922 139.271 245.303 139.842C244.986 140.177 244.63 140.474 244.243 140.726C244.501 140.343 244.802 139.992 245.14 139.679C245.725 139.06 246.548 138.224 247.473 137.319C248.397 136.415 249.241 135.599 249.866 135.028C250.181 134.693 250.535 134.399 250.92 134.15Z" fill="#E0E0E0"/>
<path d="M287.531 134.055C287.916 134.316 288.269 134.619 288.585 134.96C289.197 135.544 290.034 136.36 290.938 137.285C291.842 138.21 292.652 139.053 293.23 139.672C293.565 139.988 293.859 140.344 294.107 140.733C293.724 140.475 293.373 140.174 293.06 139.835C292.448 139.25 291.611 138.428 290.7 137.503C289.789 136.578 288.98 135.735 288.408 135.109C288.077 134.793 287.782 134.439 287.531 134.055Z" fill="#E0E0E0"/>
<path d="M287.429 95.88C287.689 95.497 287.992 95.1456 288.334 94.8328C288.918 94.214 289.741 93.3776 290.659 92.4732C291.577 91.5688 292.427 90.7596 293.053 90.1884C293.365 89.8499 293.719 89.5528 294.107 89.3044C293.852 89.689 293.55 90.0407 293.209 90.3516C292.624 90.9636 291.802 91.8068 290.877 92.7112C289.952 93.6156 289.109 94.4316 288.483 95.0028C288.171 95.339 287.816 95.6337 287.429 95.88Z" fill="#E0E0E0"/>
<path d="M250.845 95.9548C250.464 95.693 250.113 95.3896 249.798 95.0504C249.179 94.4656 248.35 93.6428 247.438 92.7248C246.527 91.8068 245.725 90.9568 245.154 90.338C244.818 90.0205 244.521 89.6645 244.27 89.2772C244.652 89.5351 245.003 89.8363 245.317 90.1748C245.936 90.7596 246.772 91.5824 247.676 92.5072C248.581 93.432 249.397 94.2752 249.968 94.9008C250.302 95.2151 250.597 95.5691 250.845 95.9548Z" fill="#E0E0E0"/>
<path d="M287.429 133.892C287.429 133.892 287.429 133.831 287.429 133.708C287.429 133.586 287.429 133.402 287.429 133.178C287.429 132.702 287.429 132.015 287.429 131.138C287.429 129.336 287.429 126.704 287.388 123.366C287.388 116.688 287.347 107.175 287.32 95.778L287.456 95.9208H250.981L251.144 95.7576C251.144 109.759 251.144 122.849 251.144 133.892L251.008 133.756L277.426 133.824L284.845 133.865H286.81H287.49C287.49 133.865 287.442 133.865 287.334 133.865H286.837H284.906L277.44 133.96L250.92 134.028H250.784V133.885C250.784 122.842 250.784 109.752 250.784 95.7508V95.5876H250.954H287.429H287.572V95.7304C287.572 107.161 287.517 116.708 287.504 123.406C287.504 126.732 287.47 129.35 287.463 131.152C287.463 132.029 287.463 132.709 287.463 133.192C287.463 133.409 287.463 133.579 287.463 133.708C287.463 133.838 287.436 133.899 287.429 133.892Z" fill="#E0E0E0"/>
<path d="M275.339 108.725H263.133V120.931H275.339V108.725Z" fill="#EBEBEB"/>
<path d="M247.799 30.8448H201.321V79.2948H247.799V30.8448Z" fill="#E0E0E0"/>
<path d="M244.65 30.8448H198.172V79.2948H244.65V30.8448Z" fill="#FAFAFA"/>
<path d="M244.664 79.3084H198.159V30.8312H244.664V79.3084ZM198.186 79.3084H244.637V30.8584H198.186V79.3084Z" fill="#E0E0E0"/>
<path d="M238.408 37.3592H204.422V72.7872H238.408V37.3592Z" fill="white"/>
<path d="M204.422 73.0184C204.177 73.3722 203.894 73.6983 203.579 73.9908C203.035 74.5688 202.273 75.3508 201.423 76.1804C200.573 77.01 199.777 77.7784 199.199 78.3088C198.907 78.6194 198.578 78.8933 198.22 79.1248C198.456 78.7679 198.734 78.4413 199.05 78.1524C199.594 77.5812 200.362 76.7924 201.219 75.9628C202.076 75.1332 202.865 74.3648 203.443 73.8344C203.733 73.5214 204.062 73.2472 204.422 73.0184Z" fill="#E0E0E0"/>
<path d="M238.401 72.93C238.757 73.1722 239.083 73.4552 239.373 73.7732C239.951 74.3104 240.733 75.0788 241.57 75.9288C242.406 76.7788 243.161 77.5744 243.691 78.1524C244.002 78.4447 244.276 78.7735 244.507 79.1316C244.155 78.8899 243.831 78.6093 243.542 78.2952C242.964 77.758 242.182 76.9896 241.345 76.1328C240.509 75.276 239.747 74.4872 239.217 73.9092C238.904 73.6193 238.63 73.2901 238.401 72.93Z" fill="#E0E0E0"/>
<path d="M238.306 37.4544C238.549 37.097 238.832 36.7685 239.149 36.4752C239.693 35.904 240.455 35.1152 241.305 34.2856C242.155 33.456 242.951 32.6944 243.529 32.164C243.818 31.851 244.148 31.5768 244.508 31.348C244.27 31.7012 243.992 32.0253 243.678 32.3136C243.134 32.8848 242.366 33.6736 241.509 34.51C240.652 35.3464 239.863 36.108 239.285 36.6384C238.991 36.9464 238.662 37.2201 238.306 37.4544Z" fill="#E0E0E0"/>
<path d="M204.326 37.5428C203.963 37.305 203.625 37.0292 203.32 36.72C202.749 36.176 201.96 35.4144 201.13 34.5644C200.301 33.7144 199.539 32.9188 199.009 32.3408C198.698 32.0485 198.424 31.7197 198.193 31.3616C198.548 31.5965 198.873 31.8752 199.158 32.1912C199.736 32.7352 200.518 33.5036 201.355 34.3604C202.191 35.2172 202.953 36.006 203.483 36.584C203.802 36.8683 204.085 37.1903 204.326 37.5428Z" fill="#E0E0E0"/>
<path d="M238.306 72.76C238.306 72.76 238.306 72.6988 238.306 72.59C238.306 72.4812 238.306 72.3044 238.306 72.0936C238.306 71.6516 238.306 71.0124 238.306 70.1828C238.306 68.5032 238.306 66.062 238.272 62.9612C238.272 56.7596 238.231 47.9196 238.204 37.3388L238.333 37.468H204.449L204.598 37.3184C204.598 50.32 204.598 62.4784 204.598 72.7396L204.469 72.6104L229.003 72.6784H235.899H237.721H238.353C238.353 72.6784 238.306 72.6784 238.204 72.6784H237.748H235.953H229.085L204.469 72.7396H204.34V72.76C204.34 62.5056 204.34 50.32 204.34 37.3388V37.1892H204.496H238.381H238.517V37.3184C238.517 47.9332 238.462 56.8004 238.449 63.0292C238.449 66.1164 238.449 68.544 238.415 70.2168C238.415 71.0328 238.415 71.6652 238.415 72.1072C238.415 72.3112 238.415 72.4676 238.415 72.5832C238.415 72.6988 238.313 72.76 238.306 72.76Z" fill="#E0E0E0"/>
<path d="M227.079 49.402H215.737V60.7444H227.079V49.402Z" fill="#EBEBEB"/>
<path d="M45.077 316.037C43.955 315.078 41.4594 312.038 43.3838 308.496C44.0638 307.197 45.587 306.558 46.947 305.986C48.3478 305.512 49.6667 304.824 50.857 303.946C52.9718 302.144 53.577 299.152 54.937 296.745C56.5554 293.984 59.5678 291.917 62.7502 292.06C66.4018 292.223 69.4414 295.202 70.815 298.602C72.1886 302.002 72.243 305.769 72.2702 309.434C72.2702 311.474 72.2022 313.745 70.713 315.119C69.353 316.377 67.2722 316.397 65.409 316.336L45.485 315.724" fill="#F5F5F5"/>
<path d="M83.1913 261.242H30.7837L40.2221 317.56C40.4172 318.733 40.9412 319.827 41.7332 320.714C42.5253 321.601 43.5528 322.245 44.6965 322.572L44.8801 322.619C45.0365 322.66 45.1861 322.714 45.3493 322.742C45.6987 322.813 46.0536 322.854 46.4101 322.864V322.918L46.6617 322.878H70.0401C70.4717 322.876 70.9021 322.833 71.3253 322.748C72.6889 322.537 73.9456 321.884 74.9034 320.891C75.8612 319.897 76.4674 318.618 76.6293 317.247L81.1785 278.487L81.3825 276.944L83.1845 261.582L83.1913 261.242ZM73.3041 297.16H67.9253L68.4693 280.84H74.6981L73.3041 297.16ZM75.2217 280.84H80.3693L78.4517 297.16H73.8277L75.2217 280.84ZM59.8401 315.262L59.5137 301.063H67.2725L66.8033 315.262H59.8401ZM51.4829 301.063H59.0105L59.3369 315.262H52.5845L51.4829 301.063ZM52.0609 315.262H45.7573C45.1521 311.426 44.3973 306.422 43.5337 301.063H50.9593L52.0609 315.262ZM51.1769 297.16L49.9053 280.84H58.5413L58.9153 297.16H51.1769ZM59.4389 297.16L59.0649 280.84H67.9457L67.4017 297.16H59.4389ZM58.9697 276.91L58.6229 261.8H68.5781L68.0749 276.93L58.9697 276.91ZM58.4529 276.91H49.6401L48.4297 261.8H58.1061L58.4529 276.91ZM49.0825 276.91H39.7189C39.3925 274.815 39.0729 272.83 38.7941 271.062C37.8149 264.942 37.4341 262.643 37.2437 261.78H47.9061L49.0825 276.91ZM49.3885 280.826L50.6601 297.146H42.9149C42.6565 295.494 42.3913 293.814 42.1261 292.135C41.5209 288.279 40.9157 284.424 40.3445 280.813L49.3885 280.826ZM42.3913 297.16H37.3321L34.6121 280.84H39.8345C40.6165 285.858 41.4801 291.482 42.3913 297.16ZM43.0033 301.077C43.7785 305.993 44.5333 310.835 45.2269 315.275H40.3717L37.9917 301.077H43.0033ZM67.3201 315.262L67.7961 301.063H72.9709L71.7537 315.262H67.3201ZM68.5985 276.896L69.1017 261.766H76.3233L75.0313 276.896H68.5985ZM36.7201 261.8C36.9309 262.895 37.8897 268.845 39.1681 276.93H33.9321L31.3957 261.8H36.7201ZM76.3029 315.296H72.2229L73.4333 301.097H77.9417L76.3029 315.296ZM80.8045 276.93H75.5277L76.8401 261.8H82.5997L80.8045 276.93Z" fill="#E0E0E0"/>
<path d="M286.994 257.598C283.492 255.796 279.378 255.558 275.495 256.204C273.408 256.544 271.232 257.169 269.811 258.74C268.389 260.311 268.124 263.065 269.756 264.411C270.722 265.207 272.075 265.329 273.333 265.316C276.373 265.282 279.745 264.744 282.173 266.574C283.533 267.621 284.485 269.355 286.137 269.865C287.79 270.375 289.592 269.409 290.449 267.947C291.238 266.425 291.413 264.658 290.938 263.01C290.742 261.865 290.284 260.781 289.6 259.842C288.916 258.903 288.024 258.135 286.994 257.598Z" fill="#EBEBEB"/>
<path d="M295.004 242.128C292.862 245.188 288.708 244.168 286.783 242.311C284.859 240.455 284.063 237.742 283.302 235.164C281.602 229.282 279.902 223.101 281.153 217.11C281.457 215.292 282.257 213.593 283.465 212.201C284.075 211.514 284.854 211 285.725 210.708C286.596 210.417 287.529 210.36 288.429 210.542C290.523 211.099 291.829 213.153 292.767 215.104C295.542 220.87 296.996 227.182 297.024 233.58C297.024 236.552 296.684 239.7 294.984 242.128" fill="#EBEBEB"/>
<path d="M300.88 246.514C298.554 243.794 298.112 239.714 299.146 236.314C300.179 232.914 302.512 229.922 305.205 227.528C308.369 224.709 312.053 222.536 316.051 221.129C317.598 220.498 319.264 220.215 320.933 220.3C321.763 220.349 322.568 220.601 323.279 221.032C323.99 221.463 324.585 222.062 325.013 222.775C326.155 224.951 325.061 227.589 323.877 229.745C321.788 233.551 319.405 237.189 316.751 240.625C314.616 243.379 312.168 246.065 308.911 247.336C305.653 248.608 302.281 248.431 300.553 246.18" fill="#EBEBEB"/>
<path d="M295.12 288.204C295.01 287.759 294.946 287.303 294.93 286.844C294.828 285.838 294.705 284.566 294.563 283.057C294.371 281.192 294.085 279.337 293.706 277.501C293.204 275.265 292.521 273.073 291.666 270.946C290.835 268.82 289.708 266.822 288.32 265.01C287.186 263.539 285.739 262.338 284.084 261.494C282.962 260.938 281.76 260.561 280.521 260.379C280.062 260.362 279.606 260.295 279.161 260.182C279.628 260.129 280.101 260.129 280.568 260.182C281.861 260.267 283.128 260.585 284.308 261.12C286.052 261.942 287.581 263.157 288.776 264.67C290.226 266.504 291.394 268.543 292.244 270.722C293.116 272.879 293.799 275.109 294.284 277.386C294.643 279.246 294.891 281.126 295.025 283.016C295.147 284.621 295.188 285.926 295.209 286.824C295.229 287.286 295.2 287.749 295.12 288.204Z" fill="#E0E0E0"/>
<path d="M294.889 285.294C294.85 285.081 294.836 284.864 294.848 284.648C294.848 284.165 294.848 283.553 294.848 282.805C294.848 281.207 294.848 278.895 294.767 276.039C294.624 270.327 294.134 264.18 293.182 255.51C292.285 247.35 291.074 237.878 289.782 231.71C289.51 230.309 289.231 229.044 288.973 227.943C288.715 226.841 288.517 225.903 288.293 225.107C288.069 224.312 287.973 223.788 287.865 223.319C287.8 223.111 287.761 222.897 287.749 222.68C287.846 222.872 287.922 223.075 287.973 223.285C288.116 223.747 288.293 224.332 288.511 225.053C288.728 225.774 288.987 226.766 289.265 227.868C289.544 228.97 289.857 230.228 290.156 231.628C291.753 238.92 292.956 246.293 293.76 253.715C294.712 262.398 295.12 270.307 295.181 276.032C295.215 278.895 295.181 281.214 295.079 282.832C295.032 283.58 294.998 284.192 294.964 284.675C294.964 284.884 294.939 285.092 294.889 285.294Z" fill="#E0E0E0"/>
<path d="M294.848 270.042C294.796 269.401 294.796 268.758 294.848 268.117C294.923 266.88 295.093 265.091 295.439 262.902C295.868 260.341 296.443 257.808 297.16 255.313C297.987 252.24 299.049 249.234 300.335 246.323C302.538 240.959 305.697 236.04 309.658 231.805C310.346 231.079 311.079 230.397 311.855 229.765C312.195 229.48 312.487 229.194 312.793 228.97L313.643 228.385C314.158 228.001 314.699 227.654 315.261 227.344C315.357 227.474 312.97 228.874 309.957 232.104C306.122 236.374 303.044 241.268 300.859 246.575C299.6 249.468 298.535 252.442 297.67 255.476C296.942 257.951 296.338 260.461 295.861 262.997C295.467 265.159 295.235 266.927 295.099 268.151C295.065 268.787 294.981 269.419 294.848 270.042Z" fill="#E0E0E0"/>
<path d="M309.59 296.942L308.06 317.88H281.166L279.636 296.942H309.59Z" fill="#E0E0E0"/>
<path d="M312.188 288.694H276.427V296.949H312.188V288.694Z" fill="#E0E0E0"/>
<path d="M312.188 317.084V319.369H310.509H277.019V317.084H312.188Z" fill="#EBEBEB"/>
<path d="M308.863 323.394L310.508 319.369H278.297L280.221 323.394H308.863Z" fill="#E0E0E0"/>
<path d="M280.16 303.79C280.16 303.79 280.201 303.858 280.289 303.98L280.691 304.511L282.255 306.517L282.329 306.605L282.397 306.517C283.377 305.157 284.696 303.334 286.246 301.192H286.022C287.171 302.811 288.443 304.592 289.809 306.558L289.932 306.728L290.068 306.564L294.563 301.22H294.297L294.549 301.532L298.568 306.571L298.704 306.741L298.826 306.564L302.614 301.199H302.396L307.068 306.524L307.149 306.619L307.211 306.51L308.673 304.055C308.829 303.79 308.951 303.572 309.047 303.375C309.098 303.303 309.138 303.223 309.162 303.137C309.103 303.202 309.05 303.272 309.006 303.348L308.591 303.98L307.061 306.388H307.204L302.6 301.016L302.485 300.88L302.383 301.029C301.22 302.654 299.935 304.429 298.554 306.367H298.813L294.801 301.322L294.556 301.016L294.427 300.852L294.297 301.009L289.816 306.367H290.068L286.239 301.022L286.124 300.866L286.015 301.022L282.2 306.415H282.336L280.704 304.463L280.269 303.96C280.196 303.842 280.16 303.785 280.16 303.79Z" fill="#F5F5F5"/>
<path d="M279.263 296.806C279.263 296.902 286.001 296.976 294.311 296.976C302.621 296.976 309.366 296.902 309.366 296.806C309.366 296.711 302.627 296.636 294.311 296.636C285.995 296.636 279.263 296.711 279.263 296.806Z" fill="#F5F5F5"/>
<path d="M277.902 319.6C277.902 319.695 285.226 319.77 294.263 319.77C303.3 319.77 310.624 319.695 310.624 319.6C310.624 319.505 303.3 319.437 294.263 319.437C285.226 319.437 277.902 319.505 277.902 319.6Z" fill="#F5F5F5"/>
<path d="M136.401 48.96C136.292 49.6727 135.974 50.3369 135.487 50.8687C135 51.4005 134.366 51.7759 133.666 51.9475C132.965 52.119 132.23 52.079 131.552 51.8325C130.875 51.5859 130.286 51.144 129.859 50.5625C129.433 49.981 129.189 49.2862 129.157 48.5658C129.126 47.8455 129.309 47.132 129.683 46.5157C130.057 45.8994 130.606 45.4079 131.259 45.1034C131.913 44.799 132.642 44.6952 133.355 44.8052C134.31 44.9526 135.167 45.4731 135.738 46.2521C136.309 47.0312 136.548 48.0051 136.401 48.96Z" fill="#E0E0E0"/>
<path d="M136.061 47.668C135.755 47.838 133.77 44.5196 132.233 40.0792C130.696 35.6388 129.615 32.0552 129.914 31.9192C130.213 31.7832 131.907 35.2444 133.423 39.6508C134.939 44.0572 136.367 47.5048 136.061 47.668Z" fill="#E0E0E0"/>
<path d="M141.59 30.2328C141.801 30.4436 139.679 32.6264 136.095 33.4696C134.573 33.8687 132.97 33.8381 131.465 33.3812C130.295 32.9868 129.792 32.3408 129.894 32.2252C129.996 32.1096 130.621 32.3884 131.675 32.5108C133.059 32.6731 134.46 32.5809 135.81 32.2388C139.033 31.4976 141.365 29.92 141.59 30.2328Z" fill="#E0E0E0"/>
<path d="M148.077 47.26C147.968 47.9727 147.649 48.6369 147.163 49.1687C146.676 49.7005 146.042 50.0759 145.342 50.2474C144.641 50.419 143.906 50.379 143.228 50.1324C142.551 49.8859 141.961 49.444 141.535 48.8625C141.109 48.281 140.864 47.5862 140.833 46.8658C140.802 46.1455 140.985 45.432 141.359 44.8157C141.733 44.1994 142.282 43.7079 142.935 43.4034C143.589 43.0989 144.318 42.9952 145.031 43.1052C145.504 43.1774 145.958 43.3422 146.367 43.5902C146.777 43.8382 147.133 44.1645 147.416 44.5504C147.699 44.9364 147.903 45.3744 148.016 45.8394C148.13 46.3043 148.15 46.7871 148.077 47.26Z" fill="#E0E0E0"/>
<path d="M147.737 45.9816C147.431 46.1516 145.445 42.8332 143.908 38.386C142.371 33.9388 141.29 30.3688 141.589 30.226C141.889 30.0832 143.582 33.5444 145.098 37.9508C146.615 42.3572 148.049 45.8184 147.737 45.9816Z" fill="#E0E0E0"/>
<path d="M142.514 32.538C142.772 32.7488 140.882 34.9656 137.55 35.8768C134.218 36.788 131.464 35.8768 131.58 35.5912C131.695 35.3056 134.232 35.5232 137.21 34.6596C140.188 33.796 142.269 32.2592 142.514 32.538Z" fill="#E0E0E0"/>
<path d="M34.5644 90.6032C34.2638 90.807 33.9095 90.917 33.5464 90.9194C33.1833 90.9218 32.8276 90.8165 32.5244 90.6168C32.2211 90.417 31.9839 90.1319 31.8427 89.7973C31.7015 89.4628 31.6627 89.0939 31.7312 88.7373C31.7996 88.3806 31.9723 88.0523 32.2274 87.7939C32.4824 87.5354 32.8084 87.3584 33.164 87.2851C33.5197 87.2119 33.8891 87.2458 34.2255 87.3825C34.5619 87.5193 34.8502 87.7527 35.054 88.0532C35.1901 88.2525 35.2855 88.4768 35.3346 88.7131C35.3838 88.9494 35.3856 89.1931 35.3401 89.4302C35.2946 89.6672 35.2026 89.8929 35.0695 90.0942C34.9363 90.2956 34.7647 90.4685 34.5644 90.6032Z" fill="#E0E0E0"/>
<path d="M34.9246 90.0388C34.7546 89.9844 35.2986 88.1076 36.4138 86.0132C37.529 83.9188 38.4538 82.2936 38.6306 82.3548C38.8074 82.416 38.0866 84.2316 36.9782 86.3056C35.8698 88.3796 35.0878 90.0932 34.9246 90.0388Z" fill="#E0E0E0"/>
<path d="M43.2616 86.088C43.2616 86.2376 41.7248 86.2036 40.1812 85.17C39.5084 84.7461 38.9669 84.1434 38.6172 83.4292C38.3656 82.8648 38.4336 82.4568 38.5084 82.4568C38.5832 82.4568 38.6988 82.7764 39.0116 83.2116C39.43 83.7767 39.9458 84.2625 40.5348 84.6464C41.9152 85.578 43.3092 85.8976 43.2616 86.088Z" fill="#E0E0E0"/>
<path d="M39.2018 94.3364C38.9018 94.5411 38.5478 94.6522 38.1846 94.6557C37.8215 94.6592 37.4654 94.5548 37.1615 94.3559C36.8576 94.157 36.6196 93.8724 36.4775 93.5382C36.3353 93.204 36.2955 92.8351 36.3631 92.4782C36.4307 92.1214 36.6026 91.7926 36.857 91.5334C37.1115 91.2743 37.4371 91.0964 37.7927 91.0223C38.1482 90.9483 38.5178 90.9813 38.8546 91.1173C39.1913 91.2533 39.4802 91.4862 39.6846 91.7864C39.9585 92.1886 40.0615 92.6832 39.971 93.1613C39.8805 93.6395 39.6038 94.0621 39.2018 94.3364Z" fill="#E0E0E0"/>
<path d="M39.5555 93.772C39.3855 93.7176 39.9295 91.8408 41.0447 89.7464C42.1599 87.652 43.0847 86.0268 43.2615 86.088C43.4383 86.1492 42.7243 87.9648 41.6091 90.0388C40.4939 92.1128 39.7255 93.84 39.5555 93.772Z" fill="#E0E0E0"/>
<path d="M42.7242 87.2236C42.7242 87.3936 41.269 87.4548 39.7866 86.5436C38.3042 85.6324 37.6922 84.2996 37.8418 84.2384C37.9914 84.1772 38.7598 85.1904 40.1198 85.9928C41.4798 86.7952 42.7446 87.04 42.7242 87.2236Z" fill="#E0E0E0"/>
<path d="M83.8984 54.8216L66.64 52.7136C66.079 52.6356 65.5705 52.3419 65.2226 51.8949C64.8747 51.448 64.7147 50.883 64.7768 50.32L67.7008 26.4724C67.7705 25.8999 68.0646 25.3786 68.5186 25.0228C68.9725 24.6671 69.549 24.5061 70.1216 24.5752L81.0492 25.9352L88.4408 35.6932L86.3192 52.9788C86.2398 53.5429 85.9409 54.0529 85.4877 54.3979C85.0344 54.743 84.4633 54.8952 83.8984 54.8216Z" fill="#EBEBEB"/>
<path d="M81.0491 25.8876L80.2399 32.5992C80.1801 33.1303 80.3311 33.6637 80.6604 34.0846C80.9898 34.5055 81.4712 34.7803 82.0011 34.85L88.4543 35.6456L81.0491 25.8876Z" fill="#F5F5F5"/>
<path d="M80.2403 33.2044C80.1817 33.713 80.2988 34.2264 80.5722 34.6593C80.8455 35.0922 81.2587 35.4187 81.7431 35.5844L81.9539 35.6524C82.7767 35.9108 88.2031 37.5768 88.2167 37.4476C88.2303 37.3184 88.4411 35.6456 88.4411 35.6456L81.9879 34.85C81.9879 34.85 80.3831 34.5984 80.2403 33.2044Z" fill="#E0E0E0"/>
<path d="M78.8119 32.1504C77.4701 32.146 76.1308 32.0345 74.8067 31.8172C73.4704 31.7058 72.1448 31.4898 70.8423 31.1712C72.1837 31.1836 73.5224 31.295 74.8475 31.5044C76.1839 31.615 77.5095 31.831 78.8119 32.1504Z" fill="#FAFAFA"/>
<path d="M83.4971 36.5772C83.4971 36.6656 80.5391 36.3732 76.9215 35.9312C73.3039 35.4892 70.3663 35.054 70.3799 34.9656C70.3935 34.8772 73.3311 35.1696 76.9555 35.6456C80.5799 36.1216 83.5107 36.4888 83.4971 36.5772Z" fill="#FAFAFA"/>
<path d="M84.32 39.8888C84.32 39.9772 81.0968 39.6576 77.146 39.168C73.1952 38.6784 70.006 38.2228 70.0196 38.1412C70.0332 38.0596 73.236 38.3724 77.1868 38.8212C81.1376 39.27 84.32 39.8072 84.32 39.8888Z" fill="#FAFAFA"/>
<path d="M83.9259 42.8808C83.9259 42.9692 80.7027 42.6428 76.7587 42.16C72.8147 41.6772 69.6119 41.2148 69.6255 41.1264C69.6391 41.038 72.8419 41.3644 76.7927 41.8472C80.7435 42.33 83.9395 42.7924 83.9259 42.8808Z" fill="#FAFAFA"/>
<path d="M83.5587 45.8728C83.5587 45.9544 80.3355 45.6348 76.3915 45.152C72.4475 44.6692 69.2447 44.2 69.2583 44.1184C69.2719 44.0368 72.4747 44.3564 76.4255 44.8392C80.3763 45.322 83.5723 45.7844 83.5587 45.8728Z" fill="#FAFAFA"/>
<path d="M83.1911 48.858C83.1911 48.9464 79.9747 48.6268 76.0239 48.178C72.0731 47.7292 68.8771 47.226 68.8907 47.1444C68.9043 47.0628 72.1139 47.3756 76.0579 47.8652C80.0019 48.3548 83.2047 48.7764 83.1911 48.858Z" fill="#FAFAFA"/>
<path d="M113.187 105.607C114.695 105.172 115.565 103.597 115.129 102.088C114.694 100.58 113.119 99.7103 111.61 100.146C110.102 100.581 109.232 102.157 109.668 103.665C110.103 105.173 111.679 106.043 113.187 105.607Z" fill="#E0E0E0"/>
<path d="M114.825 101.932C114.689 102.034 112.839 99.688 111.125 96.4512C109.412 93.2144 108.072 90.6168 108.201 90.5352C108.331 90.4536 109.976 92.9356 111.669 96.152C113.363 99.3684 114.961 101.823 114.825 101.932Z" fill="#E0E0E0"/>
<path d="M113.431 87.3868C113.587 87.4412 112.989 88.9236 111.391 89.9504C109.793 90.9772 108.209 90.9296 108.222 90.7664C108.236 90.6032 109.623 90.3652 111.051 89.4064C112.479 88.4476 113.275 87.2984 113.431 87.3868Z" fill="#E0E0E0"/>
<path d="M114.675 90.066C114.839 90.1 114.301 91.6028 112.669 92.4868C111.037 93.3708 109.494 93.0512 109.555 92.8948C109.616 92.7384 110.915 92.7452 112.37 91.9428C113.825 91.1404 114.512 89.9708 114.675 90.066Z" fill="#E0E0E0"/>
<path d="M155.462 133.069L159.624 131.804L177.698 131.274L181.778 132.382L181.248 142.324L172.02 148.206L163.071 148.029L157.448 142.902L156.203 137.822L155.462 133.069Z" fill="#FFBE9D"/>
<path d="M207.665 148.716C206.582 146.443 205.358 144.241 204 142.12C201.804 138.749 198.444 136.305 194.562 135.252L179.813 131.254C179.813 131.254 179.051 145.989 168.933 145.989C158.814 145.989 156.815 132.178 156.815 132.178L139.747 138.978C139.162 139.203 135.198 140.576 130.594 150.45C126.208 159.854 124.291 164.669 124.291 164.669L141.875 169.742L142.97 185.558L142.351 206.04H196.071L195.357 184.328L195.861 168.32L196.541 169.395L214.295 162.275C214.295 162.275 211.983 157.61 207.665 148.716Z" fill="#3A89FD"/>
<path d="M142.549 199.192C142.168 200.743 141.189 204.19 140.583 205.639C140.459 206.084 140.459 206.554 140.583 206.999C140.794 207.441 141.678 207.278 142.161 207.182C146.595 206.319 151.497 207.033 155.829 208.325C160.331 209.685 164.669 212.174 169.341 212.092C172.503 212.038 175.508 210.807 178.548 209.916C184.187 208.267 190.097 207.756 195.935 208.413C196.33 208.502 196.743 208.451 197.105 208.27C197.622 207.917 197.581 207.162 197.479 206.543C197.255 205.081 195.711 201.062 195.337 199.614" fill="#3A89FD"/>
<path d="M139.55 148.396C139.652 148.396 140.23 153.265 140.808 159.276C141.386 165.288 141.807 170.211 141.712 170.218C141.617 170.224 141.032 165.349 140.454 159.338C139.876 153.326 139.454 148.403 139.55 148.396Z" fill="#263238"/>
<path d="M196.751 150.572C196.847 150.572 196.697 155.122 196.411 160.718C196.126 166.314 195.813 170.85 195.731 170.843C195.65 170.836 195.786 166.294 196.071 160.698C196.357 155.101 196.656 150.566 196.751 150.572Z" fill="#263238"/>
<path d="M182.736 132.008C182.734 132.167 182.711 132.325 182.668 132.478C182.607 132.818 182.519 133.26 182.41 133.838C182.078 135.477 181.651 137.096 181.132 138.686C180.383 141.071 179.159 143.28 177.534 145.18C176.554 146.285 175.384 147.206 174.08 147.9C172.661 148.648 171.08 149.036 169.476 149.029C166.375 148.962 163.402 147.776 161.106 145.69C159.266 143.996 157.814 141.925 156.849 139.618C156.189 138.084 155.681 136.49 155.332 134.858C155.21 134.28 155.128 133.831 155.088 133.498C155.053 133.344 155.035 133.186 155.033 133.028C155.09 133.176 155.131 133.328 155.156 133.484L155.468 134.81C155.863 136.423 156.4 137.998 157.073 139.516C158.055 141.77 159.503 143.791 161.323 145.445C163.571 147.46 166.465 148.606 169.483 148.675C171.029 148.681 172.553 148.31 173.924 147.594C175.206 146.917 176.358 146.017 177.324 144.935C178.934 143.073 180.159 140.909 180.928 138.57C181.608 136.592 182.016 134.926 182.288 133.81L182.614 132.491C182.644 132.328 182.684 132.166 182.736 132.008Z" fill="#263238"/>
<path d="M161.487 142.603C161.548 142.684 161.188 143.031 160.691 143.385C160.195 143.738 159.739 143.949 159.685 143.868C159.63 143.786 159.984 143.439 160.487 143.092C160.99 142.746 161.432 142.528 161.487 142.603Z" fill="#263238"/>
<path d="M167.539 148.818C167.421 148.347 167.421 147.854 167.539 147.383C167.548 146.909 167.666 146.444 167.885 146.023C167.987 146.023 167.987 146.703 167.885 147.458C167.877 147.932 167.759 148.398 167.539 148.818Z" fill="#263238"/>
<path d="M176.487 146.288C176.419 146.356 175.855 145.935 175.229 145.336C174.604 144.738 174.155 144.208 174.216 144.133C174.277 144.058 174.848 144.486 175.474 145.085C176.1 145.683 176.555 146.2 176.487 146.288Z" fill="#263238"/>
<path d="M180.2 140.318C180.146 140.4 179.636 140.162 179.017 139.876C178.398 139.59 177.875 139.366 177.902 139.264C177.929 139.162 178.514 139.264 179.16 139.556C179.806 139.849 180.255 140.236 180.2 140.318Z" fill="#263238"/>
<path d="M157.76 136.415C157.794 136.503 157.434 136.721 156.958 136.898C156.482 137.074 156.067 137.149 156.033 137.054C155.999 136.959 156.359 136.748 156.835 136.571C157.311 136.394 157.76 136.326 157.76 136.415Z" fill="#263238"/>
<g opacity="0.3">
<path d="M196.616 153.279L198.397 168.667L196.514 169.422L195.847 168.348L196.616 153.279Z" fill="black"/>
</g>
<path d="M136 149.015C135.345 148.9 134.728 148.625 134.205 148.213C133.287 147.614 132.682 146.955 132.75 146.853C133.864 147.515 134.948 148.225 136 148.981V149.015Z" fill="white"/>
<path d="M150.382 151.232C149.397 151.311 148.407 151.275 147.431 151.123C146.441 151.089 145.46 150.936 144.507 150.668C145.494 150.588 146.486 150.625 147.465 150.776C148.452 150.806 149.432 150.959 150.382 151.232Z" fill="white"/>
<path d="M165.961 154.095C164.976 154.1 163.992 154.013 163.023 153.836C162.04 153.778 161.064 153.634 160.106 153.408C161.09 153.286 162.087 153.311 163.064 153.483C164.054 153.544 165.03 153.75 165.961 154.095Z" fill="white"/>
<path d="M185.749 152.075C184.644 152.437 183.505 152.685 182.349 152.816C181.216 153.063 180.061 153.195 178.901 153.211C181.137 152.602 183.429 152.222 185.742 152.075H185.749Z" fill="white"/>
<path d="M197.88 147.472C197.459 148.015 196.893 148.43 196.248 148.668C195.652 149.013 194.97 149.181 194.283 149.151C194.869 148.844 195.476 148.575 196.098 148.349C196.671 148.016 197.267 147.723 197.88 147.472Z" fill="white"/>
<path d="M204.918 145.676C204.275 146.188 203.538 146.569 202.749 146.798C201.999 147.141 201.187 147.328 200.362 147.349C201.095 146.991 201.857 146.698 202.64 146.472C203.372 146.132 204.135 145.866 204.918 145.676Z" fill="white"/>
<path d="M190.543 144.731C188.562 145.437 186.51 145.92 184.423 146.173C185.39 145.762 186.4 145.463 187.435 145.282C188.447 144.981 189.489 144.796 190.543 144.731Z" fill="white"/>
<path d="M200.389 140.338C199.63 140.912 198.803 141.389 197.928 141.76C197.101 142.232 196.219 142.602 195.303 142.861C196.887 141.813 198.596 140.965 200.389 140.338Z" fill="white"/>
<path d="M189.72 139.074C188.383 139.617 186.965 139.937 185.524 140.019C186.165 139.694 186.854 139.475 187.564 139.373C188.262 139.157 188.99 139.056 189.72 139.074Z" fill="white"/>
<path d="M196.282 137.034C196.323 137.129 195.895 137.387 195.33 137.618C194.766 137.85 194.283 137.958 194.242 137.87C194.202 137.782 194.637 137.516 195.201 137.292C195.766 137.068 196.248 136.945 196.282 137.034Z" fill="white"/>
<path d="M170.639 150.96C169.641 151.166 168.614 151.194 167.606 151.042C166.588 150.994 165.586 150.763 164.648 150.362C165.651 150.404 166.65 150.504 167.64 150.661C168.645 150.704 169.646 150.804 170.639 150.96Z" fill="white"/>
<path d="M180.588 148.192C180.588 148.288 180.044 148.526 179.316 148.723C178.588 148.92 177.956 149.002 177.956 148.906C177.956 148.811 178.5 148.58 179.228 148.376C179.955 148.172 180.56 148.097 180.588 148.192Z" fill="white"/>
<path d="M157.223 148.05C156.419 148.148 155.606 148.127 154.809 147.988C153.999 147.967 153.197 147.825 152.429 147.567C153.232 147.473 154.046 147.496 154.843 147.635C155.652 147.661 156.453 147.8 157.223 148.05Z" fill="white"/>
<path d="M146.547 145.479C145.662 145.478 144.782 145.359 143.929 145.126C143.054 145.015 142.199 144.786 141.386 144.446C142.27 144.446 143.151 144.565 144.004 144.799C144.878 144.913 145.733 145.142 146.547 145.479Z" fill="white"/>
<path d="M147.274 139.543C146.615 139.659 145.941 139.659 145.282 139.543C144.611 139.541 143.945 139.419 143.317 139.182C143.978 139.067 144.655 139.067 145.316 139.182C145.985 139.185 146.648 139.307 147.274 139.543Z" fill="white"/>
<path d="M154.462 142.072C153.886 142.301 153.253 142.341 152.653 142.188C152.037 142.149 151.449 141.91 150.98 141.508C151.565 141.587 152.144 141.701 152.714 141.848C153.302 141.881 153.886 141.956 154.462 142.072Z" fill="white"/>
<path d="M153.626 137.047C153.035 137.058 152.448 136.952 151.899 136.734C151.315 136.617 150.76 136.386 150.267 136.054C150.857 136.039 151.445 136.143 151.994 136.36C152.578 136.478 153.133 136.711 153.626 137.047Z" fill="white"/>
<path d="M187.422 134.64C187.422 134.735 187.014 134.946 186.456 135.116C185.898 135.286 185.416 135.34 185.388 135.245C185.361 135.15 185.79 134.939 186.354 134.776C186.918 134.613 187.394 134.565 187.422 134.64Z" fill="white"/>
<path d="M136.388 155.57C135.002 155.181 133.689 154.57 132.498 153.762C133.886 154.144 135.201 154.755 136.388 155.57Z" fill="white"/>
<path d="M130.56 161.527C129.874 161.575 129.185 161.509 128.52 161.33C127.833 161.257 127.162 161.071 126.535 160.779C127.914 160.791 129.282 161.044 130.574 161.527H130.56Z" fill="white"/>
<path d="M138.638 164.37C137.799 164.183 136.974 163.935 136.17 163.628C135.331 163.435 134.506 163.182 133.702 162.874C135.452 162.918 137.158 163.435 138.638 164.37Z" fill="white"/>
<path d="M146.88 157.76C145.443 157.996 143.978 157.996 142.542 157.76C143.978 157.524 145.443 157.524 146.88 157.76Z" fill="white"/>
<path d="M150.28 166.763C149.349 166.585 148.427 166.358 147.52 166.083C146.584 165.904 145.658 165.677 144.745 165.403C146.678 165.357 148.589 165.826 150.28 166.763Z" fill="white"/>
<path d="M166.24 162.88C165.773 162.948 165.299 162.948 164.832 162.88C163.692 162.804 162.557 162.665 161.432 162.466C160.316 162.27 159.21 162.016 158.12 161.704C157.657 161.605 157.211 161.44 156.794 161.214C156.794 161.112 158.896 161.663 161.493 162.119C164.091 162.574 166.246 162.778 166.24 162.88Z" fill="white"/>
<path d="M166.322 168.688C165.298 168.804 164.265 168.804 163.241 168.688C162.213 168.695 161.188 168.579 160.188 168.341C161.209 168.228 162.24 168.228 163.262 168.341C164.291 168.342 165.318 168.459 166.322 168.688Z" fill="white"/>
<path d="M176.344 158.705C174.363 158.991 172.354 159.041 170.36 158.855C172.342 158.569 174.351 158.519 176.344 158.705Z" fill="white"/>
<path d="M184.872 166.185C183.453 166.519 182.008 166.733 180.554 166.824C179.11 167.034 177.653 167.129 176.195 167.11C177.615 166.784 179.059 166.57 180.513 166.471C181.956 166.261 183.413 166.166 184.872 166.185Z" fill="white"/>
<path d="M191.76 157.808C190.462 158.3 189.124 158.682 187.762 158.95C186.427 159.336 185.062 159.607 183.682 159.759C184.979 159.263 186.317 158.878 187.68 158.61C189.015 158.228 190.38 157.96 191.76 157.808Z" fill="white"/>
<path d="M192.488 163.309C192.078 163.747 191.548 164.055 190.964 164.193C190.414 164.437 189.804 164.515 189.21 164.417C189.737 164.178 190.285 163.991 190.849 163.86C191.374 163.62 191.924 163.435 192.488 163.309Z" fill="white"/>
<path d="M202.518 152.245C201.859 152.618 201.145 152.884 200.403 153.034C199.695 153.301 198.949 153.453 198.193 153.483C198.853 153.113 199.567 152.847 200.308 152.694C201.018 152.435 201.763 152.284 202.518 152.245Z" fill="white"/>
<path d="M207.618 158.569C205.292 159.41 202.893 160.029 200.451 160.419C201.591 159.941 202.776 159.575 203.987 159.324C205.169 158.954 206.386 158.701 207.618 158.569Z" fill="white"/>
<path d="M209.399 153.299C208.63 153.807 207.798 154.214 206.924 154.51C206.095 154.914 205.217 155.211 204.313 155.394C205.913 154.484 207.622 153.78 209.399 153.299Z" fill="white"/>
<path d="M204.163 164.07C202.933 164.973 201.571 165.68 200.124 166.165C201.354 165.262 202.717 164.555 204.163 164.07Z" fill="white"/>
<path d="M152.551 178.024C151.601 178.123 150.642 178.107 149.695 177.976C148.739 177.959 147.789 177.824 146.866 177.575C147.817 177.476 148.776 177.492 149.722 177.623C150.678 177.64 151.628 177.775 152.551 178.024Z" fill="white"/>
<path d="M157.332 174.277C155.247 174.055 153.195 173.598 151.212 172.917C152.263 172.964 153.306 173.13 154.32 173.414C155.353 173.587 156.364 173.876 157.332 174.277Z" fill="white"/>
<path d="M174.692 174.243C173.005 174.479 171.293 174.479 169.605 174.243C171.293 174.007 173.005 174.007 174.692 174.243Z" fill="white"/>
<path d="M171.85 180.343C171.407 180.467 170.949 180.522 170.49 180.506C169.409 180.546 168.328 180.507 167.253 180.39C166.176 180.276 165.11 180.081 164.064 179.806C163.622 179.723 163.196 179.574 162.799 179.364C162.799 179.262 164.798 179.778 167.294 180.044C169.789 180.309 171.843 180.234 171.85 180.343Z" fill="white"/>
<path d="M190.849 176.032C189.556 176.359 188.225 176.51 186.891 176.48C185.561 176.567 184.226 176.475 182.92 176.208C182.92 176.106 184.702 176.174 186.884 176.127C189.067 176.079 190.835 175.93 190.849 176.032Z" fill="white"/>
<path d="M190.55 170.503C188.802 171.038 186.991 171.34 185.164 171.401C186.912 170.868 188.723 170.566 190.55 170.503Z" fill="white"/>
<path d="M150.457 203.266C149.433 203.284 148.41 203.25 147.39 203.164C146.368 203.2 145.344 203.184 144.323 203.116C145.324 202.835 146.367 202.731 147.404 202.81C148.44 202.78 149.474 202.934 150.457 203.266Z" fill="white"/>
<path d="M161.527 206.557C160.273 206.615 159.016 206.551 157.774 206.366C156.518 206.3 155.27 206.118 154.047 205.822C155.304 205.764 156.563 205.828 157.808 206.013C159.062 206.078 160.307 206.26 161.527 206.557Z" fill="white"/>
<path d="M172.299 209.1C171.103 209.507 169.855 209.736 168.593 209.78C167.338 209.94 166.067 209.917 164.819 209.712C164.819 209.61 166.505 209.596 168.566 209.433C170.626 209.27 172.278 208.998 172.299 209.1Z" fill="white"/>
<path d="M171.258 204.061C170.279 204.281 169.277 204.39 168.273 204.388C167.277 204.503 166.271 204.503 165.274 204.388C166.25 204.159 167.25 204.049 168.253 204.061C169.251 203.938 170.26 203.938 171.258 204.061Z" fill="white"/>
<path d="M162.275 201.049C160.925 201.248 159.56 201.332 158.195 201.3C156.821 201.382 155.443 201.348 154.074 201.198C155.436 200.999 156.812 200.915 158.188 200.947C159.551 200.866 160.918 200.901 162.275 201.049Z" fill="white"/>
<path d="M183.219 200.852C181.919 201.127 180.597 201.286 179.269 201.328C177.949 201.488 176.618 201.528 175.291 201.45C176.591 201.179 177.913 201.02 179.241 200.974C180.561 200.818 181.892 200.777 183.219 200.852Z" fill="white"/>
<path d="M183.967 204.925C183.967 205.034 182.206 205.17 180.098 205.686C177.99 206.203 176.351 206.883 176.311 206.788C177.449 206.086 178.704 205.595 180.017 205.34C181.299 204.972 182.636 204.831 183.967 204.925Z" fill="white"/>
<path d="M194.29 202.64C193.725 202.876 193.12 203.003 192.508 203.014C191.909 203.133 191.292 203.133 190.692 203.014C191.854 202.648 193.076 202.514 194.29 202.62V202.64Z" fill="white"/>
<path d="M181.948 134.892C181.907 134.98 181.356 134.783 180.676 134.552C179.996 134.32 179.439 134.157 179.452 134.055C179.911 133.96 180.389 134.018 180.812 134.218C181.499 134.456 181.996 134.81 181.948 134.892Z" fill="#263238"/>
<path d="M153.748 186.742C152.504 186.79 151.259 186.72 150.028 186.531C148.787 186.461 147.556 186.274 146.35 185.973C147.591 185.921 148.835 185.991 150.062 186.184C151.306 186.255 152.54 186.441 153.748 186.742Z" fill="white"/>
<path d="M165.104 185.171C164.167 185.293 163.219 185.293 162.282 185.171C161.34 185.166 160.401 185.047 159.487 184.817C160.424 184.695 161.373 184.695 162.309 184.817C163.252 184.822 164.19 184.941 165.104 185.171Z" fill="white"/>
<path d="M183.09 183.906C183.09 184.008 181.479 183.994 179.513 184.171C177.548 184.348 175.964 184.627 175.943 184.525C177.079 184.114 178.272 183.884 179.479 183.845C180.678 183.672 181.898 183.693 183.09 183.906Z" fill="white"/>
<path d="M191.25 190.291C189.596 190.446 187.932 190.482 186.273 190.4C184.612 190.432 182.951 190.348 181.302 190.148C182.956 189.99 184.62 189.954 186.279 190.04C187.94 190.007 189.601 190.091 191.25 190.291Z" fill="white"/>
<path d="M191.889 182.111C190.763 182.735 189.46 182.96 188.19 182.75C188.789 182.565 189.407 182.446 190.033 182.396C190.639 182.235 191.262 182.139 191.889 182.111Z" fill="white"/>
<path d="M172.108 190.108C171.187 190.465 170.196 190.61 169.211 190.529C168.222 190.565 167.237 190.379 166.328 189.985C166.328 189.883 167.627 190.148 169.218 190.176C170.809 190.203 172.088 190.006 172.108 190.108Z" fill="white"/>
<path d="M161.656 191.298C159.794 191.533 157.909 191.533 156.046 191.298C157.909 191.062 159.794 191.062 161.656 191.298Z" fill="white"/>
<path d="M154.129 195.255C152.644 195.443 151.139 195.4 149.668 195.126C150.403 194.968 151.158 194.929 151.905 195.01C152.655 194.97 153.406 195.053 154.129 195.255Z" fill="white"/>
<path d="M170.204 196.676C169.017 196.815 167.818 196.833 166.627 196.731C165.43 196.746 164.235 196.646 163.057 196.432C164.247 196.297 165.447 196.279 166.641 196.377C167.835 196.361 169.029 196.462 170.204 196.676Z" fill="white"/>
<path d="M184.233 194.623C183.192 194.659 182.149 194.634 181.111 194.548C180.068 194.576 179.023 194.544 177.983 194.453C179.006 194.191 180.066 194.104 181.118 194.194C182.173 194.165 183.225 194.309 184.233 194.623Z" fill="white"/>
<path d="M194.31 197.547C193.254 197.678 192.192 197.746 191.128 197.751C190.067 197.874 189 197.933 187.932 197.928C190.007 197.349 192.181 197.219 194.31 197.547Z" fill="white"/>
<path d="M146.2 191.556C146.2 191.651 145.69 191.814 145.017 191.916C144.344 192.018 143.793 192.032 143.78 191.916C143.766 191.801 144.296 191.658 144.963 191.549C145.629 191.44 146.2 191.454 146.2 191.556Z" fill="white"/>
<path d="M147.37 171.013C147.37 171.115 146.731 171.251 145.921 171.319C145.43 171.42 144.922 171.404 144.439 171.272C145.381 170.951 146.386 170.862 147.37 171.013Z" fill="white"/>
<path d="M156.815 156.067C156.325 156.182 155.815 156.182 155.326 156.067C154.516 155.958 153.87 155.795 153.884 155.693C154.374 155.578 154.883 155.578 155.373 155.693C156.182 155.802 156.828 155.965 156.815 156.067Z" fill="white"/>
<path d="M192.277 154.584C191.208 154.944 190.105 155.193 188.986 155.326C187.887 155.574 186.766 155.706 185.64 155.72C186.709 155.359 187.812 155.108 188.931 154.972C190.029 154.724 191.151 154.594 192.277 154.584Z" fill="white"/>
<g opacity="0.3">
<path d="M142.182 199.505C143.174 201.158 145.248 201.838 147.18 201.946C149.111 202.055 151.049 201.722 152.966 201.946C155.972 202.314 158.651 204.027 161.596 204.768C168.294 206.441 175.196 202.871 182.077 202.844C184.423 202.844 186.756 203.238 189.102 203.334C191.448 203.429 193.896 203.191 195.902 202.014L195.732 199.498L142.182 199.505Z" fill="black"/>
</g>
<path d="M190.101 234.988H150.307V244.555H190.101V234.988Z" fill="#455A64"/>
<path d="M153.415 244.555L133.158 323.136H137.523L159.739 244.555H153.415Z" fill="#455A64"/>
<path d="M185.926 244.555L206.332 323.136H201.967L179.602 244.555H185.926Z" fill="#455A64"/>
<path d="M179.67 244.8C179.731 244.875 173.856 250.152 166.539 256.584C159.222 263.017 153.238 268.178 153.177 268.104C153.116 268.029 158.991 262.759 166.308 256.319C173.624 249.88 179.602 244.732 179.67 244.8Z" fill="#263238"/>
<path d="M189.564 268.362C189.502 268.444 182.614 263.146 174.175 256.544C165.736 249.941 158.95 244.528 159.011 244.446C159.072 244.365 165.954 249.662 174.393 256.265C182.832 262.868 189.618 268.287 189.564 268.362Z" fill="#263238"/>
<path d="M189.911 244.562C189.911 244.657 181.22 244.739 170.503 244.739C159.787 244.739 151.096 244.657 151.096 244.562C151.096 244.467 159.787 244.378 170.503 244.378C181.22 244.378 189.911 244.46 189.911 244.562Z" fill="#263238"/>
<path d="M172.965 295.12L164.805 308.169L189.652 323.809C191.012 321.348 181.152 308.482 181.152 308.482L185.096 302.688L172.965 295.12Z" fill="#3A89FD"/>
<g opacity="0.3">
<path d="M172.911 295.12L164.785 308.169L189.639 323.809C190.999 321.348 181.132 308.482 181.132 308.482L185.076 302.688L172.911 295.12Z" fill="black"/>
</g>
<path d="M174.128 302.6C173.851 302.526 173.556 302.554 173.298 302.678C173.039 302.803 172.834 303.017 172.72 303.28C172.631 303.56 172.652 303.863 172.778 304.128C172.904 304.394 173.127 304.601 173.4 304.708C173.702 304.788 174.023 304.753 174.302 304.612C174.58 304.47 174.797 304.231 174.91 303.94C174.956 303.644 174.889 303.343 174.723 303.095C174.556 302.846 174.303 302.67 174.012 302.6" fill="white"/>
<path d="M164.832 308.101L166.083 306.061L189.407 322.028C189.407 322.028 190.203 323.211 189.584 323.904L164.832 308.101Z" fill="white"/>
<path d="M181.615 308.638C181.533 308.754 180.894 308.428 180.051 308.441C179.207 308.455 178.568 308.768 178.487 308.645C178.405 308.523 179.031 307.965 180.051 307.965C181.071 307.965 181.71 308.543 181.615 308.638Z" fill="#263238"/>
<path d="M183.546 311.358C183.498 311.488 182.866 311.358 182.104 311.617C181.342 311.875 180.907 312.344 180.792 312.263C180.676 312.181 181.03 311.44 181.948 311.148C182.866 310.855 183.6 311.236 183.546 311.358Z" fill="#263238"/>
<path d="M183.056 315.404C182.934 315.364 183.144 314.65 183.872 314.18C184.6 313.711 185.341 313.806 185.327 313.942C185.314 314.078 184.742 314.208 184.144 314.622C183.546 315.037 183.185 315.472 183.056 315.404Z" fill="#263238"/>
<path d="M183.239 305.572C183.117 305.646 182.668 305.13 181.954 304.742C181.24 304.354 180.594 304.239 180.594 304.096C180.594 303.953 181.383 303.838 182.219 304.307C183.056 304.776 183.362 305.51 183.239 305.572Z" fill="#263238"/>
<path d="M174.856 295.283L182.954 307.89L158.325 323.891C156.965 321.443 166.614 308.441 166.614 308.441L162.806 303.001L174.856 295.283Z" fill="#3A89FD"/>
<g opacity="0.6">
<path d="M173.536 302.43C173.818 302.345 174.121 302.367 174.387 302.493C174.654 302.619 174.864 302.838 174.978 303.11C175.069 303.391 175.049 303.696 174.923 303.963C174.796 304.229 174.573 304.438 174.298 304.545C173.996 304.631 173.673 304.602 173.392 304.464C173.111 304.326 172.89 304.088 172.774 303.797C172.71 303.494 172.765 303.179 172.927 302.915C173.089 302.652 173.346 302.461 173.645 302.382" fill="white"/>
</g>
<g opacity="0.6">
<path d="M182.92 307.809L181.642 305.769L158.522 322.089C158.522 322.089 157.747 323.286 158.372 323.972L182.92 307.809Z" fill="white"/>
</g>
<path d="M166.131 308.577C166.213 308.693 166.852 308.36 167.695 308.36C168.538 308.36 169.177 308.666 169.259 308.543C169.341 308.421 168.708 307.863 167.688 307.863C166.668 307.863 166.036 308.482 166.131 308.577Z" fill="#263238"/>
<path d="M164.241 311.324C164.288 311.46 164.921 311.324 165.682 311.569C166.444 311.814 166.893 312.249 167.008 312.188C167.124 312.127 166.757 311.379 165.832 311.093C164.907 310.808 164.173 311.209 164.241 311.324Z" fill="#263238"/>
<path d="M164.784 315.37C164.914 315.323 164.689 314.616 163.948 314.153C163.207 313.691 162.479 313.8 162.493 313.936C162.506 314.072 163.084 314.194 163.683 314.582C164.281 314.969 164.655 315.432 164.784 315.37Z" fill="#263238"/>
<path d="M164.465 305.531C164.587 305.612 165.029 305.082 165.737 304.688C166.444 304.293 167.097 304.164 167.097 304.008C167.097 303.851 166.308 303.763 165.478 304.246C164.649 304.728 164.343 305.476 164.465 305.531Z" fill="#263238"/>
<path d="M141.957 205.85C141.957 205.85 120.36 227.181 124.875 242.447C128.472 254.51 159.739 305.102 159.739 305.102L178.514 292.822L154.081 247.316C153.828 245.09 153.373 242.891 152.721 240.747L154.081 238.932C154.081 238.932 162.18 235.096 168.98 235.532L169.585 206.06L141.957 205.85Z" fill="#263238"/>
<path d="M168.98 235.545C168.98 235.545 181.628 238.68 184.28 238.68C185.953 238.68 185.035 243.685 185.939 245.725V246.167L168.191 293.189L186.504 303.994C186.504 303.994 200.342 269.158 203.293 263.269C206.244 257.38 210.984 243.678 212.813 239.605C214.642 235.532 212.133 228.487 208.964 222.367C205.795 216.247 195.82 206.047 195.82 206.047H169.585L168.98 235.545Z" fill="#263238"/>
<path d="M205.585 227.644C204.474 227.28 203.337 227.001 202.185 226.807C199.417 226.387 196.587 226.805 194.059 228.007C191.531 229.21 189.421 231.141 188 233.553C187.433 234.56 186.939 235.608 186.524 236.688C186.561 236.376 186.636 236.07 186.749 235.776C187.011 234.958 187.36 234.169 187.789 233.424C189.183 230.92 191.322 228.914 193.91 227.684C196.498 226.454 199.405 226.062 202.226 226.562C203.072 226.702 203.902 226.93 204.701 227.242C205.01 227.342 205.307 227.476 205.585 227.644Z" fill="#455A64"/>
<path d="M195.079 238.68C194.586 239.02 194.07 239.324 193.535 239.591C192.294 240.306 191.106 241.109 189.979 241.992C188.854 242.877 187.795 243.843 186.81 244.882C186.422 245.336 186.007 245.765 185.565 246.167C185.853 245.637 186.21 245.147 186.626 244.712C187.571 243.612 188.621 242.608 189.761 241.713C190.897 240.813 192.121 240.03 193.413 239.374C193.937 239.073 194.496 238.84 195.079 238.68Z" fill="#455A64"/>
<path d="M154.129 238.911C154.068 238.952 153.449 237.98 152.218 236.667C151.481 235.898 150.675 235.197 149.811 234.573C147.699 233.038 145.279 231.978 142.719 231.465C141.675 231.25 140.615 231.122 139.55 231.084C137.734 231.023 136.605 231.193 136.599 231.125C136.851 231.038 137.114 230.986 137.381 230.969C137.689 230.918 138 230.886 138.312 230.874C138.679 230.874 139.094 230.812 139.557 230.833C140.638 230.836 141.717 230.938 142.78 231.139C144.082 231.398 145.354 231.793 146.574 232.315C147.775 232.857 148.915 233.525 149.974 234.308C150.841 234.956 151.642 235.687 152.368 236.49C152.687 236.824 152.925 237.17 153.157 237.456C153.355 237.697 153.537 237.952 153.701 238.218C153.869 238.432 154.013 238.664 154.129 238.911Z" fill="#455A64"/>
<path d="M154.129 238.911C153.976 238.39 153.851 237.861 153.755 237.327C153.425 236.067 152.969 234.844 152.395 233.675C151.538 232.043 150.563 230.474 149.478 228.983C149.908 229.323 150.288 229.721 150.607 230.166C151.433 231.201 152.14 232.326 152.715 233.519C153.297 234.712 153.72 235.976 153.973 237.279C154.117 237.811 154.169 238.362 154.129 238.911Z" fill="#455A64"/>
<path d="M159.739 305.102C159.739 305.102 159.739 305.102 159.82 305.034L160.065 304.858L161.051 304.178L164.811 301.668L178.269 292.794L178.221 292.992L167.858 273.387C162.459 263.106 157.549 253.742 153.891 246.786V246.752C153.437 244.535 153.018 242.561 152.633 240.829C151.945 238.902 150.658 237.245 148.961 236.103C148.507 235.806 148.032 235.542 147.539 235.314L147.159 235.151C147.077 235.11 147.029 235.09 147.036 235.083C147.738 235.296 148.404 235.609 149.015 236.014C150.772 237.141 152.11 238.813 152.823 240.774L154.129 246.684V246.65L168.177 273.204L178.5 292.835L178.561 292.958L178.445 293.032L164.913 301.804L161.105 304.246L160.099 304.878L159.841 305.034L159.739 305.102Z" fill="#455A64"/>
<path d="M168.593 227.984C168.593 228.052 167.614 227.984 166.043 228.072C163.997 228.198 161.969 228.532 159.991 229.072C158.009 229.593 156.098 230.354 154.299 231.336C152.939 232.104 152.184 232.744 152.144 232.696C152.289 232.517 152.456 232.358 152.64 232.22C152.841 232.038 153.055 231.869 153.279 231.717C153.567 231.503 153.866 231.305 154.177 231.125C155.959 230.061 157.885 229.257 159.896 228.738C161.892 228.191 163.946 227.885 166.016 227.827C166.644 227.807 167.273 227.828 167.899 227.888C168.134 227.889 168.367 227.921 168.593 227.984Z" fill="#455A64"/>
<path d="M168.341 224.21C168.192 224.015 168.073 223.8 167.987 223.57L167.137 221.782C166.246 219.808 165.126 217.945 163.799 216.233C162.45 214.543 160.685 213.231 158.678 212.425C157.831 212.136 156.959 211.925 156.074 211.793C156.317 211.756 156.565 211.756 156.808 211.793C157.475 211.847 158.133 211.984 158.767 212.201C160.853 212.962 162.688 214.284 164.071 216.022C165.425 217.753 166.534 219.661 167.369 221.694C167.702 222.462 167.953 223.094 168.117 223.53C168.215 223.748 168.291 223.976 168.341 224.21Z" fill="#455A64"/>
<path d="M184.28 213.683C184.28 213.758 183.287 213.806 181.744 214.22C180.845 214.47 179.969 214.795 179.126 215.193C177.059 216.176 175.224 217.585 173.74 219.327C173.138 220.036 172.599 220.796 172.129 221.598C171.326 222.958 171.02 223.931 170.952 223.91C170.987 223.677 171.051 223.448 171.143 223.23C171.219 222.967 171.317 222.71 171.435 222.462C171.571 222.17 171.707 221.83 171.911 221.476C172.361 220.64 172.892 219.85 173.495 219.116C174.975 217.304 176.856 215.861 178.99 214.9C179.863 214.503 180.774 214.196 181.71 213.982C182.064 213.895 182.423 213.827 182.784 213.778C183.053 213.727 183.326 213.697 183.6 213.69C183.826 213.662 184.054 213.66 184.28 213.683Z" fill="#455A64"/>
<path d="M187.279 233.825C187.225 233.872 186.558 233.145 185.239 232.268C183.477 231.165 181.583 230.29 179.602 229.663C177.632 228.995 175.596 228.539 173.529 228.303L172.462 228.228H171.632C171.406 228.255 171.178 228.255 170.952 228.228C171.17 228.142 171.399 228.087 171.632 228.065C171.857 228.065 172.135 228.024 172.455 228.004H173.543C175.643 228.176 177.715 228.605 179.711 229.282C181.719 229.913 183.627 230.829 185.375 232.002C185.677 232.21 185.966 232.437 186.239 232.682C186.453 232.852 186.653 233.038 186.837 233.24C187.008 233.416 187.156 233.613 187.279 233.825Z" fill="#455A64"/>
<path d="M187.803 239.408C187.803 239.442 187.558 239.312 187.313 239C187.003 238.58 186.811 238.085 186.756 237.567C186.701 237.048 186.785 236.524 187 236.048C187.177 235.688 187.361 235.525 187.395 235.545C187.189 236.186 187.092 236.858 187.109 237.531C187.229 238.192 187.464 238.827 187.803 239.408Z" fill="#455A64"/>
<path d="M186.919 243.236C186.878 243.236 186.728 243.086 186.586 242.746C186.424 242.298 186.372 241.817 186.433 241.344C186.495 240.871 186.668 240.419 186.939 240.026C187.157 239.734 187.354 239.605 187.381 239.639C187.113 240.199 186.91 240.787 186.776 241.393C186.752 242.011 186.8 242.629 186.919 243.236Z" fill="#455A64"/>
<path d="M169.13 223.91C169.284 225.854 169.318 227.804 169.232 229.752C169.264 231.7 169.178 233.648 168.973 235.586C168.824 233.643 168.792 231.692 168.878 229.745C168.845 227.797 168.929 225.848 169.13 223.91Z" fill="#455A64"/>
<path d="M188.115 112.683C187.272 113.152 186.143 112.54 185.763 111.656C185.457 110.733 185.486 109.731 185.844 108.827C186.209 107.934 186.462 107 186.599 106.046C186.636 105.167 186.388 104.299 185.892 103.572C185.396 102.846 184.678 102.299 183.845 102.014C184.234 101.673 184.55 101.258 184.775 100.793C185 100.328 185.128 99.8219 185.153 99.3058C185.178 98.7897 185.098 98.2738 184.919 97.7892C184.74 97.3046 184.465 96.861 184.11 96.4852C183.345 95.8813 182.523 95.353 181.655 94.9076C181.188 94.598 180.753 94.2427 180.357 93.8468C181.086 94.0311 181.847 94.0566 182.587 93.9216C183.182 93.7904 183.734 93.5109 184.192 93.109C184.649 92.7071 184.998 92.196 185.205 91.6232C185.398 91.0463 185.427 90.427 185.288 89.8348C185.148 89.2425 184.847 88.7009 184.416 88.2708C183.969 87.8488 183.403 87.5747 182.795 87.4859C182.186 87.3971 181.565 87.4978 181.016 87.7744C179.962 88.332 179.377 89.4812 178.867 90.5624C178.704 90.8956 178.548 91.2424 178.391 91.562C176.902 89.59 175.501 87.5568 173.203 86.8632C171.122 86.2308 168.885 86.9312 166.716 86.7748C165.138 86.6592 163.622 86.0948 162.044 85.918C160.467 85.7412 158.644 86.0812 157.753 87.3664C157.203 88.1144 157.033 89.0936 156.482 89.8416C155.339 91.3852 152.885 91.596 151.946 93.2416C151.185 94.6016 151.769 96.322 151.443 97.852C151.089 99.5112 149.723 100.722 148.601 101.993C147.479 103.265 146.506 105.019 147.132 106.597C147.683 107.957 149.301 108.732 149.852 110.126C150.233 111.146 149.954 112.282 149.933 113.37C149.913 114.458 150.355 115.75 151.416 115.994L163.486 119.184C167.647 120.877 171.938 122.584 176.406 122.584C180.873 122.584 185.681 120.428 187.456 116.3C186.8 116.272 186.18 115.995 185.722 115.525C186.306 115.258 186.824 114.865 187.238 114.373C187.652 113.882 187.952 113.304 188.115 112.683Z" fill="#263238"/>
<path d="M178.214 116.47C179.295 113.435 180.109 110.311 180.649 107.134C181.185 103.946 180.921 100.675 179.88 97.614C179.71 97.1584 178.262 94.0916 177.779 94.1392C177.432 94.1732 178.323 97.036 178.146 97.3352C176.474 100.212 176.018 103.673 176.283 106.998C176.575 110.222 177.223 113.403 178.214 116.484" fill="#263238"/>
<path d="M167.552 143.235C172.543 143.126 178.208 132.219 178.208 132.219L178.534 104.183C178.799 96.1112 174.318 89.2228 166.24 89.1888L165.492 89.2296C161.869 89.4247 158.452 90.9761 155.921 93.5753C153.39 96.1746 151.93 99.6312 151.831 103.258C151.64 110.255 151.525 117.994 151.769 121.727C152.279 129.458 160.086 130.247 160.086 130.247C160.086 130.247 160.127 132.042 160.154 134.327C160.208 139.434 165.553 143.412 167.552 143.242V143.235Z" fill="#FFBE9D"/>
<path d="M160.085 130.247C163.659 130.048 167.1 128.828 170 126.732C170 126.732 167.844 132.491 160.085 132.172V130.247Z" fill="#EB996E"/>
<path d="M155.169 109.33C155.183 109.619 155.309 109.891 155.519 110.089C155.73 110.287 156.009 110.395 156.298 110.391C156.439 110.394 156.579 110.369 156.71 110.316C156.841 110.264 156.96 110.187 157.061 110.088C157.162 109.989 157.242 109.871 157.296 109.741C157.351 109.611 157.379 109.471 157.379 109.33C157.368 109.042 157.245 108.77 157.034 108.573C156.824 108.376 156.545 108.269 156.257 108.276C156.116 108.273 155.976 108.297 155.844 108.349C155.713 108.4 155.593 108.477 155.492 108.575C155.39 108.673 155.31 108.79 155.254 108.92C155.199 109.05 155.17 109.189 155.169 109.33Z" fill="#263238"/>
<path d="M153.68 106.379C153.823 106.522 154.625 105.856 155.815 105.794C157.005 105.733 157.91 106.284 158.032 106.128C158.155 105.971 157.937 105.808 157.543 105.55C157.009 105.221 156.386 105.067 155.761 105.108C155.138 105.145 154.544 105.384 154.068 105.788C153.68 106.08 153.585 106.318 153.68 106.379Z" fill="#263238"/>
<path d="M165.92 109.045C165.931 109.333 166.054 109.606 166.264 109.805C166.474 110.003 166.753 110.111 167.042 110.106C167.183 110.109 167.324 110.084 167.456 110.033C167.588 109.981 167.708 109.904 167.81 109.805C167.911 109.706 167.992 109.588 168.047 109.457C168.102 109.327 168.13 109.186 168.13 109.045C168.116 108.758 167.991 108.488 167.782 108.291C167.572 108.095 167.295 107.987 167.008 107.991C166.867 107.986 166.726 108.01 166.594 108.061C166.462 108.112 166.342 108.189 166.241 108.287C166.139 108.386 166.058 108.503 166.003 108.633C165.948 108.764 165.92 108.903 165.92 109.045Z" fill="#263238"/>
<path d="M165.329 106.236C165.478 106.372 166.281 105.713 167.471 105.652C168.661 105.59 169.565 106.134 169.687 105.985C169.81 105.835 169.592 105.665 169.198 105.407C168.664 105.079 168.042 104.924 167.416 104.965C166.797 104.993 166.203 105.219 165.723 105.611C165.369 105.91 165.24 106.175 165.329 106.236Z" fill="#263238"/>
<path d="M161.555 115.6C160.917 115.437 160.261 115.355 159.603 115.355C159.304 115.355 159.011 115.294 158.923 115.09C158.875 114.778 158.927 114.459 159.073 114.179C159.324 113.431 159.576 112.642 159.848 111.819C160.922 108.46 161.677 105.699 161.541 105.658C161.405 105.618 160.426 108.31 159.358 111.67C159.1 112.495 158.855 113.283 158.624 114.036C158.454 114.414 158.42 114.839 158.529 115.24C158.578 115.344 158.651 115.436 158.742 115.508C158.833 115.58 158.939 115.63 159.052 115.654C159.221 115.695 159.395 115.711 159.569 115.702C160.232 115.753 160.9 115.719 161.555 115.6Z" fill="#263238"/>
<path d="M165.098 116.239C164.907 116.239 164.975 117.531 163.914 118.504C162.854 119.476 161.48 119.415 161.48 119.592C161.48 119.768 161.8 119.83 162.378 119.816C163.134 119.782 163.855 119.487 164.418 118.98C164.957 118.49 165.284 117.809 165.329 117.082C165.349 116.538 165.186 116.226 165.098 116.239Z" fill="#263238"/>
<path d="M165.138 101.408C165.274 101.728 166.451 101.51 167.858 101.606C169.266 101.701 170.408 102.014 170.578 101.714C170.653 101.572 170.442 101.279 169.973 100.994C169.351 100.633 168.651 100.428 167.933 100.395C167.214 100.347 166.494 100.471 165.832 100.756C165.322 100.994 165.077 101.259 165.138 101.408Z" fill="#263238"/>
<path d="M153.939 102.401C154.163 102.66 154.966 102.34 155.979 102.272C156.992 102.204 157.808 102.354 157.985 102.061C158.06 101.918 157.917 101.66 157.536 101.422C157.03 101.143 156.452 101.02 155.876 101.069C155.301 101.117 154.752 101.335 154.299 101.694C153.939 102 153.837 102.279 153.939 102.401Z" fill="#263238"/>
<path d="M178.208 109.949C178.337 109.881 183.444 108.093 183.56 113.39C183.675 118.687 178.33 117.708 178.317 117.558C178.303 117.409 178.208 109.949 178.208 109.949Z" fill="#FFBE9D"/>
<path d="M179.887 115.518C179.887 115.518 179.982 115.58 180.139 115.648C180.357 115.734 180.6 115.734 180.819 115.648C181.376 115.43 181.825 114.532 181.832 113.608C181.834 113.154 181.736 112.707 181.546 112.295C181.49 112.133 181.396 111.987 181.271 111.869C181.147 111.751 180.997 111.664 180.832 111.615C180.726 111.591 180.615 111.604 180.517 111.653C180.419 111.701 180.341 111.781 180.295 111.88C180.227 112.03 180.261 112.139 180.234 112.146C180.207 112.152 180.118 112.064 180.159 111.84C180.185 111.709 180.254 111.591 180.356 111.506C180.427 111.448 180.509 111.405 180.596 111.38C180.684 111.354 180.776 111.346 180.866 111.357C181.085 111.396 181.289 111.49 181.46 111.631C181.632 111.771 181.764 111.953 181.846 112.159C182.088 112.587 182.224 113.068 182.24 113.56C182.24 114.628 181.703 115.641 180.941 115.879C180.801 115.924 180.652 115.937 180.505 115.916C180.359 115.894 180.22 115.84 180.098 115.756C179.901 115.648 179.874 115.525 179.887 115.518Z" fill="#EB996E"/>
<path d="M155.149 94.4316C154.285 93.9692 156.822 91.1608 158.916 90.1748C162.085 88.6924 166.94 87.7404 169.891 88.536C173.441 89.4948 176.399 91.2152 178.215 94.4112C179.968 97.6665 180.823 101.331 180.69 105.026C180.757 106.149 180.522 107.269 180.01 108.27C179.282 109.453 177.868 110.208 177.97 111.826C177.993 112.118 177.958 112.413 177.867 112.692C177.776 112.971 177.631 113.229 177.439 113.451C176.481 114.492 175.284 113.54 174.719 112.574C173.529 110.534 173.359 108.038 173.23 105.658C173.044 103.973 173.136 102.268 173.502 100.613C173.747 99.7288 174.182 98.8856 174.352 97.988C174.482 97.5452 174.513 97.0793 174.442 96.6233C174.372 96.1673 174.202 95.7324 173.944 95.3496C173.815 95.1918 173.669 95.0482 173.509 94.9212C172.762 94.2853 171.86 93.8594 170.894 93.6874C169.929 93.5153 168.935 93.6032 168.015 93.942C165.043 95.0368 159.963 96.662 158.617 95.6828C156.686 94.2548 156.217 93.3096 156.217 93.3096L155.149 94.4316Z" fill="#263238"/>
<path d="M169.599 87.8152C168.142 87.3206 166.602 87.12 165.067 87.225C163.532 87.3301 162.033 87.7387 160.657 88.4272C159.919 88.7766 159.258 89.2718 158.716 89.883C158.174 90.4942 157.761 91.2087 157.502 91.9836C157.08 93.5612 157.774 95.4856 159.297 96.0636L159.399 96.1316C161.67 96.8592 163.139 96.5396 165.383 95.7304C167.274 95.0504 168.94 93.8536 170.823 93.1872C172.848 92.4684 175.042 92.376 177.12 92.922C175.106 90.5875 172.512 88.826 169.599 87.8152Z" fill="#263238"/>
<path d="M179.684 93.058C179.636 93.0988 179.208 92.5888 178.324 91.9972C177.822 91.6465 177.281 91.3566 176.712 91.1336C176.029 90.8544 175.293 90.7312 174.556 90.7732C173.207 90.924 171.927 91.4519 170.864 92.2964C170.041 92.9764 169.66 93.4932 169.613 93.4524C169.565 93.4116 169.667 93.2892 169.844 93.0444C170.094 92.7006 170.381 92.3859 170.701 92.106C171.78 91.1616 173.129 90.5791 174.556 90.44C175.346 90.3926 176.136 90.5324 176.862 90.848C177.447 91.0916 177.999 91.4117 178.5 91.8C178.98 92.1301 179.383 92.559 179.684 93.058Z" fill="#455A64"/>
<path d="M180.2 94.9348C180.16 95.4606 180.024 95.9747 179.799 96.4512C178.85 98.8267 177.101 100.796 174.855 102.02C174.408 102.299 173.915 102.497 173.4 102.605C176.576 101.027 179.014 98.277 180.2 94.9348Z" fill="#455A64"/>
<path d="M182.369 95.7984C182.4 95.9967 182.4 96.1985 182.369 96.3968C182.336 96.9461 182.259 97.4919 182.138 98.0288C181.732 99.8122 180.89 101.467 179.688 102.846C178.486 104.225 176.961 105.284 175.25 105.93C174.735 106.124 174.205 106.274 173.665 106.379C173.47 106.432 173.268 106.452 173.067 106.44C173.067 106.379 173.896 106.23 175.154 105.692C176.792 105.004 178.251 103.95 179.419 102.611C180.587 101.272 181.434 99.6839 181.893 97.9676C182.274 96.6484 182.301 95.7916 182.369 95.7984Z" fill="#455A64"/>
<path d="M163.533 87.3324C163.075 87.5362 162.605 87.7133 162.126 87.8628C161.018 88.3097 159.984 88.9218 159.059 89.6784C158.137 90.4393 157.339 91.3385 156.693 92.344C156.189 93.1192 155.958 93.6428 155.904 93.6224C156.002 93.1209 156.196 92.643 156.475 92.2148C157.081 91.1408 157.881 90.1885 158.835 89.4064C159.784 88.6193 160.873 88.0173 162.044 87.6316C162.518 87.4427 163.023 87.3413 163.533 87.3324Z" fill="#455A64"/>
<path d="M184.028 87.9988C183.912 89.1053 183.434 90.1426 182.668 90.95C182 91.8357 181.062 92.4801 179.996 92.786C180.868 92.1921 181.674 91.5083 182.403 90.746C183.044 89.8927 183.589 88.9714 184.028 87.9988Z" fill="#455A64"/>
<path d="M125.8 165.138L118.619 179.52C117.821 181.124 117.446 182.905 117.531 184.695C117.662 187.379 118.821 189.909 120.766 191.763C122.712 193.616 125.296 194.65 127.983 194.65L148.485 193.46L149.383 184.103L133.783 180.343L139.693 169.164L125.8 165.138Z" fill="#FFBE9D"/>
<path d="M145.37 184.069H149.382C149.382 184.069 158.44 180.798 160.303 181.111C161.983 181.39 168.123 185.47 169.327 186.279C169.46 186.371 169.562 186.502 169.619 186.653C169.736 186.973 169.725 187.326 169.588 187.637C169.452 187.949 169.199 188.196 168.885 188.326L168.756 188.374L168.81 188.557C168.883 188.795 168.915 189.043 168.905 189.292C168.892 189.48 168.818 189.659 168.695 189.802C168.572 189.946 168.407 190.046 168.223 190.089C168.039 190.131 167.846 190.114 167.673 190.039C167.499 189.964 167.355 189.836 167.26 189.672L167.491 190.087C167.584 190.255 167.629 190.446 167.62 190.638V191.012C167.609 191.212 167.538 191.405 167.417 191.565C167.296 191.725 167.13 191.845 166.94 191.91C166.757 191.971 166.56 191.978 166.373 191.93C166.186 191.881 166.017 191.78 165.886 191.638C165.104 190.781 163.424 189.06 162.282 188.87C161.05 188.724 159.81 188.663 158.569 188.686C158.316 188.685 158.068 188.761 157.859 188.905C157.65 189.048 157.49 189.252 157.4 189.489C158.08 189.536 162.778 191.991 164.444 192.889C164.705 193.018 164.93 193.21 165.098 193.447C165.267 193.685 165.374 193.96 165.41 194.249C165.471 194.766 165.213 195.316 164.179 195.072C162.06 194.44 159.99 193.656 157.984 192.726C157.984 192.726 155.944 192.141 154.584 193.079C152.714 194.398 151.864 194.881 150.246 194.351C149.271 194.023 148.336 193.587 147.458 193.052L144.289 192.739C144.289 192.739 141.277 185.218 145.37 184.069Z" fill="#FFBE9D"/>
<path d="M157.332 185.599C157.894 185.492 158.461 185.412 159.032 185.361C160.412 185.27 161.795 185.506 163.067 186.049C164.34 186.593 165.466 187.429 166.355 188.489C167.035 189.298 167.328 189.897 167.362 189.883C167.307 189.737 167.238 189.596 167.158 189.462C166.962 189.094 166.734 188.743 166.478 188.414C165.601 187.313 164.463 186.446 163.168 185.893C161.873 185.34 160.461 185.117 159.059 185.246C158.636 185.278 158.217 185.348 157.808 185.456C157.644 185.484 157.484 185.532 157.332 185.599Z" fill="#EB996E"/>
<path d="M158.29 183.403C158.864 183.224 159.458 183.119 160.058 183.09C161.515 183.083 162.944 183.488 164.179 184.26C165.404 185.046 166.519 185.991 167.498 187.068L168.409 188.034C168.511 188.159 168.628 188.274 168.756 188.374C168.667 188.236 168.567 188.106 168.456 187.986C168.259 187.748 167.967 187.401 167.586 186.986C166.625 185.872 165.507 184.903 164.268 184.11C163.005 183.324 161.539 182.927 160.052 182.968C159.605 182.991 159.164 183.073 158.739 183.212C158.59 183.253 158.481 183.314 158.399 183.342C158.318 183.369 158.284 183.396 158.29 183.403Z" fill="#EB996E"/>
<path d="M133.783 180.309C133.783 180.37 133.069 180.254 131.941 180.261C130.468 180.293 129.009 180.552 127.616 181.03C126.218 181.486 124.907 182.175 123.74 183.07C122.856 183.75 122.434 184.341 122.38 184.307C122.325 184.273 122.455 184.137 122.638 183.872C122.915 183.509 123.23 183.176 123.577 182.879C124.727 181.897 126.057 181.149 127.493 180.676C128.92 180.181 130.425 179.951 131.934 179.996C132.39 180.013 132.845 180.065 133.294 180.152C133.464 180.179 133.629 180.232 133.783 180.309Z" fill="#EB996E"/>
<path d="M213.364 162.663C213.364 162.663 217.845 175.583 222.68 187.544C222.774 187.788 222.852 188.038 222.911 188.292C223.064 189.058 223.044 189.848 222.853 190.605C222.661 191.363 222.303 192.068 221.805 192.669C221.306 193.27 220.68 193.753 219.972 194.081C219.263 194.41 218.49 194.576 217.709 194.568H189.462V185.477L206.856 181.784L200.56 167.804L213.364 162.663Z" fill="#FFBE9D"/>
<path d="M195.343 184.355H191.331C191.331 184.355 182.274 181.084 180.411 181.397C178.731 181.676 172.591 185.756 171.387 186.565C171.252 186.652 171.15 186.781 171.095 186.932C170.978 187.252 170.989 187.604 171.125 187.916C171.262 188.228 171.514 188.475 171.829 188.605L171.958 188.659L171.897 188.843C171.826 189.081 171.796 189.329 171.809 189.577C171.822 189.766 171.896 189.945 172.019 190.088C172.142 190.231 172.307 190.332 172.491 190.374C172.675 190.417 172.868 190.4 173.041 190.325C173.214 190.25 173.359 190.121 173.454 189.958L173.223 190.366C173.127 190.533 173.082 190.725 173.094 190.917V191.291C173.103 191.492 173.173 191.686 173.295 191.848C173.416 192.009 173.583 192.13 173.774 192.195C173.958 192.255 174.155 192.26 174.342 192.211C174.529 192.161 174.698 192.059 174.828 191.916C175.61 191.06 177.289 189.346 178.425 189.156C179.659 189.006 180.902 188.945 182.145 188.972C182.398 188.973 182.645 189.05 182.853 189.193C183.062 189.336 183.223 189.539 183.314 189.774C182.634 189.822 177.935 192.277 176.269 193.174C176.008 193.304 175.783 193.496 175.614 193.733C175.444 193.97 175.336 194.245 175.297 194.534C175.236 195.058 175.501 195.602 176.535 195.364C178.654 194.733 180.724 193.949 182.729 193.018C182.729 193.018 184.769 192.426 186.129 193.365C188.006 194.691 188.849 195.174 190.468 194.636C191.446 194.313 192.383 193.88 193.263 193.344L196.431 193.025C196.431 193.025 199.437 185.504 195.343 184.355Z" fill="#FFBE9D"/>
<path d="M183.383 185.885C182.82 185.777 182.253 185.698 181.683 185.647C180.302 185.554 178.918 185.789 177.646 186.333C176.373 186.876 175.247 187.713 174.359 188.775C173.679 189.584 173.387 190.182 173.353 190.135C173.405 189.989 173.473 189.85 173.557 189.72C173.753 189.35 173.981 188.998 174.237 188.666C175.118 187.568 176.257 186.704 177.552 186.151C178.848 185.599 180.259 185.374 181.662 185.497C182.085 185.534 182.503 185.607 182.913 185.715C183.077 185.749 183.235 185.806 183.383 185.885Z" fill="#EB996E"/>
<path d="M182.424 183.682C181.847 183.508 181.251 183.406 180.649 183.376C179.196 183.37 177.77 183.773 176.535 184.538C175.309 185.325 174.191 186.27 173.21 187.347L172.305 188.319C172.198 188.441 172.082 188.554 171.958 188.659C172.043 188.52 172.141 188.391 172.251 188.272C172.455 188.034 172.747 187.687 173.121 187.265C174.086 186.153 175.206 185.187 176.447 184.396C177.706 183.607 179.171 183.21 180.656 183.253C181.105 183.273 181.549 183.356 181.975 183.498C182.09 183.531 182.201 183.574 182.308 183.627L182.424 183.682Z" fill="#EB996E"/>
<path d="M217.92 184.457C217.886 184.504 217.335 184.069 216.369 183.518C213.843 182.061 210.934 181.402 208.026 181.628C206.91 181.71 206.23 181.866 206.217 181.805C206.36 181.722 206.516 181.664 206.679 181.635C207.112 181.517 207.553 181.431 207.998 181.376C210.97 181.005 213.977 181.686 216.498 183.301C216.878 183.541 217.24 183.809 217.58 184.103C217.811 184.314 217.94 184.436 217.92 184.457Z" fill="#EB996E"/>
<path d="M289.843 194.922H49.9526V199.498H289.843V194.922Z" fill="#455A64"/>
<path d="M59.697 323.197H56.4126V199.192H63.437L59.697 323.197Z" fill="#455A64"/>
<path d="M101.946 323.136H98.668V199.281H105.692L101.946 323.136Z" fill="#263238"/>
<path d="M239.591 323H236.307V199.294H243.331L239.591 323Z" fill="#263238"/>
<path d="M274.958 323.136H271.674V199.24H278.698L274.958 323.136Z" fill="#455A64"/>
<path d="M189.638 194.874H147.512C146.937 194.873 146.384 194.651 145.967 194.254C145.551 193.856 145.303 193.314 145.275 192.739L144.01 163.737C143.997 163.435 144.046 163.134 144.152 162.852C144.259 162.569 144.422 162.311 144.631 162.093C144.84 161.875 145.091 161.702 145.369 161.584C145.647 161.465 145.946 161.405 146.248 161.405H190.822C191.123 161.405 191.421 161.467 191.697 161.585C191.974 161.703 192.225 161.876 192.433 162.093C192.642 162.31 192.805 162.567 192.913 162.848C193.02 163.129 193.07 163.429 193.059 163.73L191.876 192.732C191.853 193.31 191.607 193.856 191.189 194.255C190.772 194.655 190.216 194.877 189.638 194.874Z" fill="#E0E0E0"/>
<path d="M170.836 178.65C170.836 179.105 170.701 179.551 170.448 179.93C170.195 180.309 169.835 180.605 169.413 180.779C168.992 180.954 168.529 180.999 168.082 180.91C167.634 180.822 167.224 180.602 166.901 180.28C166.579 179.957 166.359 179.546 166.27 179.099C166.181 178.652 166.227 178.189 166.402 177.767C166.576 177.346 166.871 176.986 167.251 176.733C167.63 176.48 168.075 176.344 168.531 176.344C169.142 176.346 169.727 176.59 170.159 177.022C170.591 177.453 170.835 178.039 170.836 178.65Z" fill="white"/>
<path d="M269.464 143.623C269.492 143.391 269.567 143.167 269.684 142.965C269.8 142.762 269.956 142.585 270.142 142.444C270.328 142.303 270.541 142.201 270.767 142.143C270.993 142.085 271.229 142.074 271.46 142.109C271.691 142.144 271.913 142.225 272.112 142.347C272.311 142.469 272.483 142.63 272.619 142.82C272.755 143.01 272.852 143.225 272.903 143.453C272.954 143.681 272.959 143.917 272.918 144.146L265.261 190.896H261.759L269.464 143.623Z" fill="#263238"/>
<path d="M272.197 144.201L240.618 109.521L240.387 109.902L238.857 112.438L269.607 146.56C269.918 146.901 270.352 147.104 270.814 147.125C271.275 147.147 271.726 146.985 272.068 146.675C272.41 146.365 272.616 145.932 272.64 145.471C272.664 145.01 272.505 144.559 272.197 144.214V144.201Z" fill="#263238"/>
<path d="M269.878 145.098C269.878 145.098 269.824 145.024 269.838 144.881C269.858 144.671 269.961 144.478 270.123 144.344C270.247 144.236 270.398 144.164 270.559 144.133C270.72 144.102 270.886 144.113 271.041 144.167C271.236 144.232 271.405 144.357 271.524 144.523C271.644 144.69 271.709 144.89 271.709 145.095C271.709 145.3 271.644 145.5 271.524 145.667C271.405 145.833 271.236 145.958 271.041 146.023C270.886 146.075 270.721 146.087 270.56 146.057C270.399 146.028 270.249 145.957 270.123 145.853C269.961 145.719 269.858 145.526 269.838 145.316C269.838 145.173 269.838 145.098 269.878 145.098C269.919 145.098 269.933 145.418 270.28 145.656C270.374 145.719 270.482 145.758 270.595 145.769C270.708 145.779 270.821 145.762 270.926 145.717C271.049 145.667 271.154 145.581 271.229 145.471C271.304 145.361 271.345 145.231 271.347 145.098C271.347 144.964 271.306 144.833 271.231 144.722C271.156 144.61 271.05 144.524 270.926 144.473C270.821 144.429 270.707 144.413 270.594 144.425C270.481 144.437 270.373 144.476 270.28 144.541C269.96 144.772 269.96 145.112 269.878 145.098Z" fill="#455A64"/>
<path d="M270.355 142.181C270.712 142.425 271.032 142.718 271.307 143.052C271.643 143.383 271.96 143.733 272.259 144.099C272.458 144.334 272.606 144.609 272.691 144.906C272.777 145.202 272.799 145.514 272.755 145.819C272.675 146.126 272.513 146.406 272.287 146.629C272.06 146.851 271.778 147.009 271.47 147.084C271.226 147.148 270.972 147.164 270.722 147.129C270.472 147.094 270.231 147.009 270.015 146.88C269.62 146.676 269.296 146.358 269.083 145.969C269.124 145.914 269.457 146.309 270.137 146.649C270.519 146.847 270.963 146.888 271.375 146.764C271.622 146.699 271.847 146.569 272.028 146.389C272.21 146.209 272.341 145.984 272.408 145.738C272.439 145.48 272.419 145.218 272.348 144.968C272.276 144.718 272.156 144.485 271.993 144.282C271.701 143.874 271.368 143.521 271.123 143.215C270.821 142.907 270.562 142.559 270.355 142.181Z" fill="#455A64"/>
<path d="M247.901 195.024H276.651C276.651 195.024 272.979 190.448 263.412 190.448C254.497 190.448 249.186 193.066 247.901 195.024Z" fill="#263238"/>
<path d="M240.802 104.013L242.263 101.816L240.455 100.429L238.904 102.639L240.802 104.013Z" fill="#263238"/>
<path d="M243.277 105.332L236.98 100.769L230.942 108.038C220.463 109.725 216.24 116.314 216.24 116.314L234.995 130.676C241.414 123.583 238.395 113.444 238.395 113.444L243.277 105.332Z" fill="#3A89FD"/>
<path d="M238.374 113.444C237.037 112.691 235.76 111.836 234.553 110.888C233.28 110.029 232.073 109.077 230.942 108.038C232.279 108.792 233.556 109.647 234.763 110.595C236.04 111.449 237.247 112.402 238.374 113.444Z" fill="#263238"/>
<path d="M215.438 121.312C215.478 121.4 212.269 122.978 208.27 124.834C204.272 126.691 200.994 128.119 200.954 128.03C200.913 127.942 204.122 126.364 208.121 124.508C212.119 122.652 215.397 121.224 215.438 121.312Z" fill="#263238"/>
<path d="M222.673 127.568C222.747 127.636 220.272 130.288 217.158 133.491C214.043 136.694 211.453 139.237 211.385 139.169C211.317 139.101 213.785 136.449 216.899 133.246C220.014 130.043 222.605 127.5 222.673 127.568Z" fill="#263238"/>
<path d="M227.446 146.336C227.351 146.336 227.548 143.113 227.895 139.155C228.242 135.198 228.575 131.995 228.697 132.008C228.669 134.408 228.519 136.805 228.249 139.189C227.902 143.147 227.541 146.343 227.446 146.336Z" fill="#263238"/>
<path d="M325.856 323.136C325.856 323.238 256.074 323.313 170.007 323.313C83.9392 323.313 14.144 323.238 14.144 323.136C14.144 323.034 83.912 322.959 170.007 322.959C256.102 322.959 325.856 323.041 325.856 323.136Z" fill="#263238"/>
<path d="M119.378 45.2226L101.122 45.7613L101.552 60.3545L119.809 59.8159L119.378 45.2226Z" fill="#EBEBEB"/>
<path d="M119.381 45.22H119.034L118.041 45.2608L114.308 45.3832L101.123 45.7912L101.17 45.7436C101.299 50.0888 101.449 55.0664 101.612 60.3364L101.558 60.2888L119.809 59.7584L119.768 59.806C119.646 55.4064 119.544 51.7616 119.476 49.2184C119.476 47.94 119.421 46.9404 119.401 46.2604V45.4784V45.2064C119.401 45.2064 119.401 45.2948 119.401 45.4716C119.401 45.6484 119.401 45.9068 119.401 46.24C119.401 46.92 119.455 47.9196 119.496 49.1912C119.578 51.7412 119.693 55.3928 119.836 59.7992V59.84H119.789L101.537 60.384H101.483V60.3296C101.327 55.0596 101.184 50.0752 101.055 45.7368V45.6892H101.102L114.315 45.3288L118.041 45.2268H119.027H119.36L119.381 45.22Z" fill="#263238"/>
<path d="M118.753 46.1663L101.781 46.6671L102.157 59.4251L119.129 58.9243L118.753 46.1663Z" fill="#3A89FD"/>
<g opacity="0.3">
<path d="M102.156 59.4183L107.855 51.3127L111.669 56.1679L114.083 53.4411L119.129 58.9151L102.156 59.4183Z" fill="black"/>
</g>
<g opacity="0.3">
<path d="M113.056 50.184C113.057 50.5343 112.922 50.8713 112.68 51.1247C112.438 51.378 112.108 51.5282 111.758 51.544C111.486 51.5562 111.218 51.487 110.986 51.3451C110.755 51.2033 110.571 50.9954 110.458 50.7483C110.346 50.5011 110.31 50.2259 110.356 49.9582C110.401 49.6905 110.525 49.4425 110.713 49.2461C110.9 49.0497 111.142 48.914 111.408 48.8564C111.673 48.7987 111.95 48.8219 112.202 48.9227C112.454 49.0236 112.67 49.1977 112.822 49.4225C112.975 49.6472 113.056 49.9125 113.056 50.184Z" fill="black"/>
</g>
<path d="M111.116 54.9354L83.9351 59.6939L87.7391 81.4226L114.92 76.6641L111.116 54.9354Z" fill="#EBEBEB"/>
<path d="M111.119 54.9304H110.989L110.609 54.9984L109.133 55.2635L103.571 56.2564L83.9459 59.7311L84.0071 59.6496C85.1427 66.1164 86.4415 73.5284 87.8219 81.3756L87.7267 81.3076L114.927 76.5476L114.872 76.6224C113.743 70.074 112.832 64.6544 112.152 60.8532C111.826 58.956 111.574 57.4532 111.397 56.4468C111.309 55.9436 111.248 55.5492 111.2 55.284L111.139 54.8828C111.139 54.8828 111.139 55.012 111.214 55.2704C111.289 55.5288 111.329 55.9504 111.425 56.4196C111.601 57.4328 111.867 58.9152 112.207 60.8056L115.008 76.602V76.6632H114.94L87.7403 81.4232H87.6655V81.3484C86.3055 73.5012 84.9931 66.0892 83.8643 59.6224V59.5476H83.9391L103.618 56.1476L109.167 55.1956L110.636 54.944L111.01 54.8828L111.119 54.9304Z" fill="#263238"/>
<path d="M110.378 56.4785L85.1064 60.9028L88.432 79.8987L113.704 75.4744L110.378 56.4785Z" fill="#3A89FD"/>
<g opacity="0.4">
<path d="M88.4409 79.8864L95.2001 66.5312L101.959 72.964L104.979 68.3672L113.71 75.4596L88.4409 79.8864Z" fill="black"/>
</g>
<g opacity="0.4">
<path d="M102.734 63.7227C102.809 64.1211 102.763 64.5325 102.602 64.9046C102.442 65.2766 102.174 65.5925 101.833 65.8118C101.492 66.0311 101.094 66.144 100.689 66.1361C100.284 66.1281 99.8903 65.9997 99.5584 65.7672C99.2266 65.5347 98.9715 65.2087 98.8256 64.8306C98.6798 64.4526 98.6499 64.0397 98.7397 63.6445C98.8294 63.2494 99.0348 62.8899 99.3297 62.612C99.6245 62.3341 99.9955 62.1502 100.395 62.0839C100.922 61.9966 101.462 62.1193 101.899 62.4257C102.337 62.7321 102.637 63.1978 102.734 63.7227Z" fill="black"/>
</g>
<path d="M54.7806 93.772L59.0238 110.044C59.0949 110.324 59.2706 110.566 59.5147 110.721C59.7589 110.875 60.0528 110.93 60.3362 110.874L89.991 105.067C90.1366 105.038 90.2752 104.981 90.3988 104.899C90.5224 104.817 90.6286 104.712 90.7113 104.588C90.794 104.465 90.8517 104.327 90.8809 104.182C90.9102 104.036 90.9105 103.886 90.8818 103.741L88.3998 90.9092C88.3699 90.7609 88.3108 90.6201 88.226 90.4949C88.1413 90.3696 88.0325 90.2625 87.906 90.1796C87.7794 90.0967 87.6377 90.0398 87.489 90.0121C87.3404 89.9845 87.1877 89.9866 87.0398 90.0184L68.8294 93.704C68.5356 93.7639 68.2301 93.7053 67.9794 93.5408L64.1986 91.0384C63.9499 90.8754 63.6479 90.8145 63.3554 90.8684L55.6646 92.378C55.5124 92.4066 55.3678 92.4661 55.2396 92.553C55.1115 92.6398 55.0026 92.7521 54.9197 92.8829C54.8367 93.0136 54.7816 93.16 54.7577 93.313C54.7338 93.4659 54.7416 93.6222 54.7806 93.772Z" fill="#3A89FD"/>
<path d="M87.779 87.8429L55.3804 94.1875L59.1715 113.547L91.5701 107.202L87.779 87.8429Z" fill="#F5F5F5"/>
<path d="M53.1353 96.4376L59.5613 116.158C59.6187 116.326 59.7348 116.468 59.8884 116.558C60.0419 116.648 60.2227 116.68 60.3977 116.647L91.9701 110.466C92.1511 110.431 92.3121 110.329 92.4206 110.18C92.5292 110.031 92.5772 109.846 92.5549 109.664L90.1953 89.1615C90.184 89.0616 90.1522 88.9651 90.1017 88.8781C90.0512 88.791 89.9833 88.7154 89.9021 88.656C89.821 88.5966 89.7284 88.5546 89.6302 88.5328C89.532 88.511 89.4304 88.5097 89.3317 88.5292L53.7201 95.4923C53.616 95.509 53.5166 95.5479 53.4288 95.6063C53.3411 95.6648 53.2669 95.7415 53.2114 95.8312C53.1559 95.9208 53.1204 96.0214 53.1073 96.1261C53.0941 96.2307 53.1037 96.3369 53.1353 96.4376Z" fill="#3A89FD"/>
<g opacity="0.3">
<path d="M53.1353 96.4376L59.5613 116.158C59.6187 116.326 59.7348 116.468 59.8884 116.558C60.0419 116.648 60.2227 116.68 60.3977 116.647L91.9701 110.466C92.1511 110.431 92.3121 110.329 92.4206 110.18C92.5292 110.031 92.5772 109.846 92.5549 109.664L90.1953 89.1615C90.184 89.0616 90.1522 88.9651 90.1017 88.8781C90.0512 88.791 89.9833 88.7154 89.9021 88.656C89.821 88.5966 89.7284 88.5546 89.6302 88.5328C89.532 88.511 89.4304 88.5097 89.3317 88.5292L53.7201 95.4923C53.616 95.509 53.5166 95.5479 53.4288 95.6063C53.3411 95.6648 53.2669 95.7415 53.2114 95.8312C53.1559 95.9208 53.1204 96.0214 53.1073 96.1261C53.0941 96.2307 53.1037 96.3369 53.1353 96.4376Z" fill="black"/>
</g>
<path d="M65.8514 78.3972L44.683 70.652C44.3193 70.4736 44.0374 70.1633 43.8946 69.7842C43.7518 69.4052 43.759 68.9859 43.9146 68.612L49.171 54.8624C49.2908 54.4837 49.5496 54.1644 49.8953 53.9689C50.241 53.7733 50.6479 53.716 51.0342 53.8084L72.2298 61.744C72.971 62.0228 73.0526 62.8184 72.7738 63.5596L67.2658 77.7512C67.2159 77.8869 67.1396 78.0113 67.0413 78.1173C66.943 78.2233 66.8247 78.3088 66.6932 78.3689C66.5617 78.429 66.4196 78.4624 66.2751 78.4672C66.1307 78.4721 65.9866 78.4483 65.8514 78.3972Z" fill="#FAFAFA"/>
<path d="M65.6402 78.3156C65.9119 78.3883 66.198 78.3883 66.4698 78.3156C66.7946 78.2185 67.0772 78.0149 67.2722 77.7376C67.3859 77.5551 67.4751 77.3585 67.5374 77.1528C67.6258 76.9352 67.7074 76.6972 67.8026 76.4728C68.5574 74.4736 69.6386 71.6108 70.9646 68.0748C71.3046 67.184 71.6446 66.2592 72.0186 65.2936L72.583 63.8112C72.6871 63.5691 72.7712 63.319 72.8346 63.0632C72.8706 62.8114 72.8352 62.5547 72.7326 62.322C72.6286 62.0837 72.4527 61.884 72.2294 61.7508C71.978 61.6319 71.719 61.5297 71.4542 61.4448L69.8086 60.8464L66.3678 59.5884L51.061 53.992C50.7526 53.8922 50.4186 53.9059 50.1194 54.0306C49.8202 54.1553 49.5753 54.3828 49.429 54.672L48.6674 56.644L47.1782 60.5336C46.2398 63.0972 45.2606 65.552 44.363 67.8912C44.2474 68.1836 44.1386 68.476 44.0298 68.7616C43.9118 69.0213 43.8785 69.3115 43.9346 69.5912C43.9933 69.8561 44.1365 70.0948 44.3426 70.2712C44.5696 70.4428 44.8285 70.5676 45.1042 70.6384L48.341 71.8352L54.155 73.9772L62.5598 77.1324L64.8446 77.996L65.4294 78.2272C65.5 78.2504 65.5682 78.28 65.6334 78.3156C65.5606 78.3054 65.4896 78.2848 65.4226 78.2544L64.8242 78.0504L62.5598 77.2344L54.121 74.1948L48.2798 72.08L45.0362 70.9036C44.733 70.8212 44.4489 70.6803 44.1998 70.4888C43.9491 70.2714 43.777 69.9774 43.7102 69.6524C43.6376 69.3275 43.6661 68.9882 43.7918 68.68C43.9006 68.3876 44.0094 68.0952 44.125 67.8028L46.9198 60.452C47.4026 59.1804 47.899 57.8816 48.4022 56.5692C48.6538 55.8892 48.9122 55.2092 49.1706 54.5768C49.3352 54.2122 49.6301 53.9222 49.9974 53.7637C50.3647 53.6052 50.778 53.5896 51.1562 53.72L66.4562 59.33L69.8562 60.5948L71.5018 61.2C71.7813 61.2917 72.054 61.403 72.3178 61.5332C72.5802 61.6936 72.7868 61.9311 72.9094 62.2132C73.0283 62.4893 73.0683 62.7929 73.025 63.0904C72.9592 63.3604 72.8705 63.6243 72.7598 63.8792C72.5626 64.3824 72.3722 64.872 72.1886 65.3548C71.8146 66.3204 71.461 67.2452 71.1142 68.1292L67.8706 76.4932C67.7754 76.7448 67.6802 76.976 67.5986 77.1732C67.5274 77.3845 67.4291 77.5856 67.3062 77.7716C67.0943 78.0571 66.7925 78.2631 66.4494 78.3564C66.2391 78.4054 66.0204 78.4054 65.8102 78.3564C65.7518 78.3512 65.6946 78.3374 65.6402 78.3156Z" fill="#3A89FD"/>
<path d="M59.7855 64.9808L61.9887 67.7416L58.4663 68.3808L54.9507 69.02L56.2631 65.62L57.5755 62.22L59.7855 64.9808Z" fill="#3A89FD"/>
<path d="M76.7178 172.808C76.8155 172.808 76.8946 172.428 76.8946 171.958C76.8946 171.489 76.8155 171.108 76.7178 171.108C76.6202 171.108 76.541 171.489 76.541 171.958C76.541 172.428 76.6202 172.808 76.7178 172.808Z" fill="#263238"/>
<path d="M76.7179 180.479C76.4821 179.211 76.4821 177.911 76.7179 176.644C76.9536 177.911 76.9536 179.211 76.7179 180.479Z" fill="#263238"/>
<path d="M78.4178 186.014C77.8687 186.186 77.2906 186.246 76.7178 186.191L76.541 186.014V185.64V185.327C76.541 185.123 76.541 184.94 76.541 184.783C76.575 184.477 76.6226 184.287 76.6702 184.287C76.7178 184.287 76.7586 184.477 76.7926 184.783C76.7926 184.94 76.7926 185.123 76.8334 185.327V185.966L76.6566 185.79C77.253 185.737 77.8538 185.813 78.4178 186.014Z" fill="#263238"/>
<path d="M85.2451 186.014C84.6938 186.187 84.1134 186.247 83.5383 186.191C82.9633 186.247 82.3829 186.187 81.8315 186.014C82.3821 185.838 82.9633 185.777 83.5383 185.837C84.1134 185.777 84.6946 185.838 85.2451 186.014Z" fill="#263238"/>
<path d="M92.0787 186.014C90.9574 186.248 89.8 186.248 88.6787 186.014C89.8 185.78 90.9574 185.78 92.0787 186.014Z" fill="#263238"/>
<path d="M98.9063 186.014C97.7851 186.248 96.6276 186.248 95.5063 186.014C96.6276 185.78 97.7851 185.78 98.9063 186.014Z" fill="#263238"/>
<path d="M105.74 186.014C104.619 186.248 103.461 186.248 102.34 186.014C103.461 185.78 104.619 185.78 105.74 186.014Z" fill="#263238"/>
<path d="M112.574 186.014C111.453 186.247 110.296 186.247 109.174 186.014C110.296 185.781 111.453 185.781 112.574 186.014Z" fill="#263238"/>
<path d="M119.401 186.014C118.28 186.248 117.123 186.248 116.001 186.014C117.123 185.78 118.28 185.78 119.401 186.014Z" fill="#263238"/>
<path d="M126.235 186.014C125.114 186.248 123.957 186.248 122.835 186.014C123.957 185.78 125.114 185.78 126.235 186.014Z" fill="#263238"/>
<path d="M133.063 186.014C131.941 186.248 130.784 186.248 129.663 186.014C130.784 185.78 131.941 185.78 133.063 186.014Z" fill="#263238"/>
<path d="M139.897 186.014C138.775 186.248 137.618 186.248 136.497 186.014C137.618 185.78 138.775 185.78 139.897 186.014Z" fill="#263238"/>
<path d="M145.01 186.014C145.01 186.109 144.629 186.191 144.16 186.191C143.691 186.191 143.31 186.109 143.31 186.014C143.31 185.919 143.691 185.837 144.16 185.837C144.629 185.837 145.01 185.912 145.01 186.014Z" fill="#263238"/>
<path d="M99.0832 111.112H50.5108C47.9607 111.112 45.8936 113.179 45.8936 115.729V164.302C45.8936 166.852 47.9607 168.919 50.5108 168.919H99.0832C101.633 168.919 103.7 166.852 103.7 164.302V115.729C103.7 113.179 101.633 111.112 99.0832 111.112Z" fill="#3A89FD"/>
<path d="M85.6118 152.218C87.2043 151.776 88.556 150.72 89.3696 149.281C90.1832 147.843 90.392 146.14 89.9502 144.548C89.5083 142.955 88.452 141.603 87.0135 140.79C85.575 139.976 83.8723 139.767 82.2798 140.209C82.7762 135.388 78.3902 130.648 73.5418 130.778C68.6934 130.907 64.559 135.871 65.3206 140.665C63.8084 140.611 62.3366 141.16 61.2291 142.191C60.1215 143.222 59.4689 144.65 59.4148 146.163C59.3607 147.675 59.9095 149.147 60.9406 150.254C61.9716 151.362 63.4004 152.014 64.9126 152.068L85.6118 152.218Z" fill="white"/>
</svg>
